G04 #@! TF.GenerationSoftware,KiCad,Pcbnew,(5.1.2)-1*
G04 #@! TF.CreationDate,2020-05-26T19:14:15-07:00*
G04 #@! TF.ProjectId,MushAuto_UnoShield,4d757368-4175-4746-9f5f-556e6f536869,rev?*
G04 #@! TF.SameCoordinates,Original*
G04 #@! TF.FileFunction,Soldermask,Bot*
G04 #@! TF.FilePolarity,Negative*
%FSLAX46Y46*%
G04 Gerber Fmt 4.6, Leading zero omitted, Abs format (unit mm)*
G04 Created by KiCad (PCBNEW (5.1.2)-1) date 2020-05-26 19:14:15*
%MOMM*%
%LPD*%
G04 APERTURE LIST*
%ADD10C,0.100000*%
G04 APERTURE END LIST*
D10*
G36*
X115546823Y-117981313D02*
G01*
X115707242Y-118029976D01*
X115839906Y-118100886D01*
X115855078Y-118108996D01*
X115984659Y-118215341D01*
X116091004Y-118344922D01*
X116091005Y-118344924D01*
X116170024Y-118492758D01*
X116218687Y-118653177D01*
X116235117Y-118820000D01*
X116218687Y-118986823D01*
X116170024Y-119147242D01*
X116099114Y-119279906D01*
X116091004Y-119295078D01*
X115984659Y-119424659D01*
X115855078Y-119531004D01*
X115855076Y-119531005D01*
X115707242Y-119610024D01*
X115546823Y-119658687D01*
X115421804Y-119671000D01*
X115338196Y-119671000D01*
X115213177Y-119658687D01*
X115052758Y-119610024D01*
X114904924Y-119531005D01*
X114904922Y-119531004D01*
X114775341Y-119424659D01*
X114668996Y-119295078D01*
X114660886Y-119279906D01*
X114589976Y-119147242D01*
X114541313Y-118986823D01*
X114524883Y-118820000D01*
X114541313Y-118653177D01*
X114589976Y-118492758D01*
X114668995Y-118344924D01*
X114668996Y-118344922D01*
X114775341Y-118215341D01*
X114904922Y-118108996D01*
X114920094Y-118100886D01*
X115052758Y-118029976D01*
X115213177Y-117981313D01*
X115338196Y-117969000D01*
X115421804Y-117969000D01*
X115546823Y-117981313D01*
X115546823Y-117981313D01*
G37*
G36*
X135866823Y-117981313D02*
G01*
X136027242Y-118029976D01*
X136159906Y-118100886D01*
X136175078Y-118108996D01*
X136304659Y-118215341D01*
X136411004Y-118344922D01*
X136411005Y-118344924D01*
X136490024Y-118492758D01*
X136538687Y-118653177D01*
X136555117Y-118820000D01*
X136538687Y-118986823D01*
X136490024Y-119147242D01*
X136419114Y-119279906D01*
X136411004Y-119295078D01*
X136304659Y-119424659D01*
X136175078Y-119531004D01*
X136175076Y-119531005D01*
X136027242Y-119610024D01*
X135866823Y-119658687D01*
X135741804Y-119671000D01*
X135658196Y-119671000D01*
X135533177Y-119658687D01*
X135372758Y-119610024D01*
X135224924Y-119531005D01*
X135224922Y-119531004D01*
X135095341Y-119424659D01*
X134988996Y-119295078D01*
X134980886Y-119279906D01*
X134909976Y-119147242D01*
X134861313Y-118986823D01*
X134844883Y-118820000D01*
X134861313Y-118653177D01*
X134909976Y-118492758D01*
X134988995Y-118344924D01*
X134988996Y-118344922D01*
X135095341Y-118215341D01*
X135224922Y-118108996D01*
X135240094Y-118100886D01*
X135372758Y-118029976D01*
X135533177Y-117981313D01*
X135658196Y-117969000D01*
X135741804Y-117969000D01*
X135866823Y-117981313D01*
X135866823Y-117981313D01*
G37*
G36*
X160246823Y-117981313D02*
G01*
X160407242Y-118029976D01*
X160539906Y-118100886D01*
X160555078Y-118108996D01*
X160684659Y-118215341D01*
X160791004Y-118344922D01*
X160791005Y-118344924D01*
X160870024Y-118492758D01*
X160918687Y-118653177D01*
X160935117Y-118820000D01*
X160918687Y-118986823D01*
X160870024Y-119147242D01*
X160799114Y-119279906D01*
X160791004Y-119295078D01*
X160684659Y-119424659D01*
X160555078Y-119531004D01*
X160555076Y-119531005D01*
X160407242Y-119610024D01*
X160246823Y-119658687D01*
X160121804Y-119671000D01*
X160038196Y-119671000D01*
X159913177Y-119658687D01*
X159752758Y-119610024D01*
X159604924Y-119531005D01*
X159604922Y-119531004D01*
X159475341Y-119424659D01*
X159368996Y-119295078D01*
X159360886Y-119279906D01*
X159289976Y-119147242D01*
X159241313Y-118986823D01*
X159224883Y-118820000D01*
X159241313Y-118653177D01*
X159289976Y-118492758D01*
X159368995Y-118344924D01*
X159368996Y-118344922D01*
X159475341Y-118215341D01*
X159604922Y-118108996D01*
X159620094Y-118100886D01*
X159752758Y-118029976D01*
X159913177Y-117981313D01*
X160038196Y-117969000D01*
X160121804Y-117969000D01*
X160246823Y-117981313D01*
X160246823Y-117981313D01*
G37*
G36*
X120626823Y-117981313D02*
G01*
X120787242Y-118029976D01*
X120919906Y-118100886D01*
X120935078Y-118108996D01*
X121064659Y-118215341D01*
X121171004Y-118344922D01*
X121171005Y-118344924D01*
X121250024Y-118492758D01*
X121298687Y-118653177D01*
X121315117Y-118820000D01*
X121298687Y-118986823D01*
X121250024Y-119147242D01*
X121179114Y-119279906D01*
X121171004Y-119295078D01*
X121064659Y-119424659D01*
X120935078Y-119531004D01*
X120935076Y-119531005D01*
X120787242Y-119610024D01*
X120626823Y-119658687D01*
X120501804Y-119671000D01*
X120418196Y-119671000D01*
X120293177Y-119658687D01*
X120132758Y-119610024D01*
X119984924Y-119531005D01*
X119984922Y-119531004D01*
X119855341Y-119424659D01*
X119748996Y-119295078D01*
X119740886Y-119279906D01*
X119669976Y-119147242D01*
X119621313Y-118986823D01*
X119604883Y-118820000D01*
X119621313Y-118653177D01*
X119669976Y-118492758D01*
X119748995Y-118344924D01*
X119748996Y-118344922D01*
X119855341Y-118215341D01*
X119984922Y-118108996D01*
X120000094Y-118100886D01*
X120132758Y-118029976D01*
X120293177Y-117981313D01*
X120418196Y-117969000D01*
X120501804Y-117969000D01*
X120626823Y-117981313D01*
X120626823Y-117981313D01*
G37*
G36*
X123166823Y-117981313D02*
G01*
X123327242Y-118029976D01*
X123459906Y-118100886D01*
X123475078Y-118108996D01*
X123604659Y-118215341D01*
X123711004Y-118344922D01*
X123711005Y-118344924D01*
X123790024Y-118492758D01*
X123838687Y-118653177D01*
X123855117Y-118820000D01*
X123838687Y-118986823D01*
X123790024Y-119147242D01*
X123719114Y-119279906D01*
X123711004Y-119295078D01*
X123604659Y-119424659D01*
X123475078Y-119531004D01*
X123475076Y-119531005D01*
X123327242Y-119610024D01*
X123166823Y-119658687D01*
X123041804Y-119671000D01*
X122958196Y-119671000D01*
X122833177Y-119658687D01*
X122672758Y-119610024D01*
X122524924Y-119531005D01*
X122524922Y-119531004D01*
X122395341Y-119424659D01*
X122288996Y-119295078D01*
X122280886Y-119279906D01*
X122209976Y-119147242D01*
X122161313Y-118986823D01*
X122144883Y-118820000D01*
X122161313Y-118653177D01*
X122209976Y-118492758D01*
X122288995Y-118344924D01*
X122288996Y-118344922D01*
X122395341Y-118215341D01*
X122524922Y-118108996D01*
X122540094Y-118100886D01*
X122672758Y-118029976D01*
X122833177Y-117981313D01*
X122958196Y-117969000D01*
X123041804Y-117969000D01*
X123166823Y-117981313D01*
X123166823Y-117981313D01*
G37*
G36*
X125706823Y-117981313D02*
G01*
X125867242Y-118029976D01*
X125999906Y-118100886D01*
X126015078Y-118108996D01*
X126144659Y-118215341D01*
X126251004Y-118344922D01*
X126251005Y-118344924D01*
X126330024Y-118492758D01*
X126378687Y-118653177D01*
X126395117Y-118820000D01*
X126378687Y-118986823D01*
X126330024Y-119147242D01*
X126259114Y-119279906D01*
X126251004Y-119295078D01*
X126144659Y-119424659D01*
X126015078Y-119531004D01*
X126015076Y-119531005D01*
X125867242Y-119610024D01*
X125706823Y-119658687D01*
X125581804Y-119671000D01*
X125498196Y-119671000D01*
X125373177Y-119658687D01*
X125212758Y-119610024D01*
X125064924Y-119531005D01*
X125064922Y-119531004D01*
X124935341Y-119424659D01*
X124828996Y-119295078D01*
X124820886Y-119279906D01*
X124749976Y-119147242D01*
X124701313Y-118986823D01*
X124684883Y-118820000D01*
X124701313Y-118653177D01*
X124749976Y-118492758D01*
X124828995Y-118344924D01*
X124828996Y-118344922D01*
X124935341Y-118215341D01*
X125064922Y-118108996D01*
X125080094Y-118100886D01*
X125212758Y-118029976D01*
X125373177Y-117981313D01*
X125498196Y-117969000D01*
X125581804Y-117969000D01*
X125706823Y-117981313D01*
X125706823Y-117981313D01*
G37*
G36*
X128246823Y-117981313D02*
G01*
X128407242Y-118029976D01*
X128539906Y-118100886D01*
X128555078Y-118108996D01*
X128684659Y-118215341D01*
X128791004Y-118344922D01*
X128791005Y-118344924D01*
X128870024Y-118492758D01*
X128918687Y-118653177D01*
X128935117Y-118820000D01*
X128918687Y-118986823D01*
X128870024Y-119147242D01*
X128799114Y-119279906D01*
X128791004Y-119295078D01*
X128684659Y-119424659D01*
X128555078Y-119531004D01*
X128555076Y-119531005D01*
X128407242Y-119610024D01*
X128246823Y-119658687D01*
X128121804Y-119671000D01*
X128038196Y-119671000D01*
X127913177Y-119658687D01*
X127752758Y-119610024D01*
X127604924Y-119531005D01*
X127604922Y-119531004D01*
X127475341Y-119424659D01*
X127368996Y-119295078D01*
X127360886Y-119279906D01*
X127289976Y-119147242D01*
X127241313Y-118986823D01*
X127224883Y-118820000D01*
X127241313Y-118653177D01*
X127289976Y-118492758D01*
X127368995Y-118344924D01*
X127368996Y-118344922D01*
X127475341Y-118215341D01*
X127604922Y-118108996D01*
X127620094Y-118100886D01*
X127752758Y-118029976D01*
X127913177Y-117981313D01*
X128038196Y-117969000D01*
X128121804Y-117969000D01*
X128246823Y-117981313D01*
X128246823Y-117981313D01*
G37*
G36*
X130786823Y-117981313D02*
G01*
X130947242Y-118029976D01*
X131079906Y-118100886D01*
X131095078Y-118108996D01*
X131224659Y-118215341D01*
X131331004Y-118344922D01*
X131331005Y-118344924D01*
X131410024Y-118492758D01*
X131458687Y-118653177D01*
X131475117Y-118820000D01*
X131458687Y-118986823D01*
X131410024Y-119147242D01*
X131339114Y-119279906D01*
X131331004Y-119295078D01*
X131224659Y-119424659D01*
X131095078Y-119531004D01*
X131095076Y-119531005D01*
X130947242Y-119610024D01*
X130786823Y-119658687D01*
X130661804Y-119671000D01*
X130578196Y-119671000D01*
X130453177Y-119658687D01*
X130292758Y-119610024D01*
X130144924Y-119531005D01*
X130144922Y-119531004D01*
X130015341Y-119424659D01*
X129908996Y-119295078D01*
X129900886Y-119279906D01*
X129829976Y-119147242D01*
X129781313Y-118986823D01*
X129764883Y-118820000D01*
X129781313Y-118653177D01*
X129829976Y-118492758D01*
X129908995Y-118344924D01*
X129908996Y-118344922D01*
X130015341Y-118215341D01*
X130144922Y-118108996D01*
X130160094Y-118100886D01*
X130292758Y-118029976D01*
X130453177Y-117981313D01*
X130578196Y-117969000D01*
X130661804Y-117969000D01*
X130786823Y-117981313D01*
X130786823Y-117981313D01*
G37*
G36*
X133326823Y-117981313D02*
G01*
X133487242Y-118029976D01*
X133619906Y-118100886D01*
X133635078Y-118108996D01*
X133764659Y-118215341D01*
X133871004Y-118344922D01*
X133871005Y-118344924D01*
X133950024Y-118492758D01*
X133998687Y-118653177D01*
X134015117Y-118820000D01*
X133998687Y-118986823D01*
X133950024Y-119147242D01*
X133879114Y-119279906D01*
X133871004Y-119295078D01*
X133764659Y-119424659D01*
X133635078Y-119531004D01*
X133635076Y-119531005D01*
X133487242Y-119610024D01*
X133326823Y-119658687D01*
X133201804Y-119671000D01*
X133118196Y-119671000D01*
X132993177Y-119658687D01*
X132832758Y-119610024D01*
X132684924Y-119531005D01*
X132684922Y-119531004D01*
X132555341Y-119424659D01*
X132448996Y-119295078D01*
X132440886Y-119279906D01*
X132369976Y-119147242D01*
X132321313Y-118986823D01*
X132304883Y-118820000D01*
X132321313Y-118653177D01*
X132369976Y-118492758D01*
X132448995Y-118344924D01*
X132448996Y-118344922D01*
X132555341Y-118215341D01*
X132684922Y-118108996D01*
X132700094Y-118100886D01*
X132832758Y-118029976D01*
X132993177Y-117981313D01*
X133118196Y-117969000D01*
X133201804Y-117969000D01*
X133326823Y-117981313D01*
X133326823Y-117981313D01*
G37*
G36*
X157706823Y-117981313D02*
G01*
X157867242Y-118029976D01*
X157999906Y-118100886D01*
X158015078Y-118108996D01*
X158144659Y-118215341D01*
X158251004Y-118344922D01*
X158251005Y-118344924D01*
X158330024Y-118492758D01*
X158378687Y-118653177D01*
X158395117Y-118820000D01*
X158378687Y-118986823D01*
X158330024Y-119147242D01*
X158259114Y-119279906D01*
X158251004Y-119295078D01*
X158144659Y-119424659D01*
X158015078Y-119531004D01*
X158015076Y-119531005D01*
X157867242Y-119610024D01*
X157706823Y-119658687D01*
X157581804Y-119671000D01*
X157498196Y-119671000D01*
X157373177Y-119658687D01*
X157212758Y-119610024D01*
X157064924Y-119531005D01*
X157064922Y-119531004D01*
X156935341Y-119424659D01*
X156828996Y-119295078D01*
X156820886Y-119279906D01*
X156749976Y-119147242D01*
X156701313Y-118986823D01*
X156684883Y-118820000D01*
X156701313Y-118653177D01*
X156749976Y-118492758D01*
X156828995Y-118344924D01*
X156828996Y-118344922D01*
X156935341Y-118215341D01*
X157064922Y-118108996D01*
X157080094Y-118100886D01*
X157212758Y-118029976D01*
X157373177Y-117981313D01*
X157498196Y-117969000D01*
X157581804Y-117969000D01*
X157706823Y-117981313D01*
X157706823Y-117981313D01*
G37*
G36*
X142466823Y-117981313D02*
G01*
X142627242Y-118029976D01*
X142759906Y-118100886D01*
X142775078Y-118108996D01*
X142904659Y-118215341D01*
X143011004Y-118344922D01*
X143011005Y-118344924D01*
X143090024Y-118492758D01*
X143138687Y-118653177D01*
X143155117Y-118820000D01*
X143138687Y-118986823D01*
X143090024Y-119147242D01*
X143019114Y-119279906D01*
X143011004Y-119295078D01*
X142904659Y-119424659D01*
X142775078Y-119531004D01*
X142775076Y-119531005D01*
X142627242Y-119610024D01*
X142466823Y-119658687D01*
X142341804Y-119671000D01*
X142258196Y-119671000D01*
X142133177Y-119658687D01*
X141972758Y-119610024D01*
X141824924Y-119531005D01*
X141824922Y-119531004D01*
X141695341Y-119424659D01*
X141588996Y-119295078D01*
X141580886Y-119279906D01*
X141509976Y-119147242D01*
X141461313Y-118986823D01*
X141444883Y-118820000D01*
X141461313Y-118653177D01*
X141509976Y-118492758D01*
X141588995Y-118344924D01*
X141588996Y-118344922D01*
X141695341Y-118215341D01*
X141824922Y-118108996D01*
X141840094Y-118100886D01*
X141972758Y-118029976D01*
X142133177Y-117981313D01*
X142258196Y-117969000D01*
X142341804Y-117969000D01*
X142466823Y-117981313D01*
X142466823Y-117981313D01*
G37*
G36*
X145006823Y-117981313D02*
G01*
X145167242Y-118029976D01*
X145299906Y-118100886D01*
X145315078Y-118108996D01*
X145444659Y-118215341D01*
X145551004Y-118344922D01*
X145551005Y-118344924D01*
X145630024Y-118492758D01*
X145678687Y-118653177D01*
X145695117Y-118820000D01*
X145678687Y-118986823D01*
X145630024Y-119147242D01*
X145559114Y-119279906D01*
X145551004Y-119295078D01*
X145444659Y-119424659D01*
X145315078Y-119531004D01*
X145315076Y-119531005D01*
X145167242Y-119610024D01*
X145006823Y-119658687D01*
X144881804Y-119671000D01*
X144798196Y-119671000D01*
X144673177Y-119658687D01*
X144512758Y-119610024D01*
X144364924Y-119531005D01*
X144364922Y-119531004D01*
X144235341Y-119424659D01*
X144128996Y-119295078D01*
X144120886Y-119279906D01*
X144049976Y-119147242D01*
X144001313Y-118986823D01*
X143984883Y-118820000D01*
X144001313Y-118653177D01*
X144049976Y-118492758D01*
X144128995Y-118344924D01*
X144128996Y-118344922D01*
X144235341Y-118215341D01*
X144364922Y-118108996D01*
X144380094Y-118100886D01*
X144512758Y-118029976D01*
X144673177Y-117981313D01*
X144798196Y-117969000D01*
X144881804Y-117969000D01*
X145006823Y-117981313D01*
X145006823Y-117981313D01*
G37*
G36*
X147546823Y-117981313D02*
G01*
X147707242Y-118029976D01*
X147839906Y-118100886D01*
X147855078Y-118108996D01*
X147984659Y-118215341D01*
X148091004Y-118344922D01*
X148091005Y-118344924D01*
X148170024Y-118492758D01*
X148218687Y-118653177D01*
X148235117Y-118820000D01*
X148218687Y-118986823D01*
X148170024Y-119147242D01*
X148099114Y-119279906D01*
X148091004Y-119295078D01*
X147984659Y-119424659D01*
X147855078Y-119531004D01*
X147855076Y-119531005D01*
X147707242Y-119610024D01*
X147546823Y-119658687D01*
X147421804Y-119671000D01*
X147338196Y-119671000D01*
X147213177Y-119658687D01*
X147052758Y-119610024D01*
X146904924Y-119531005D01*
X146904922Y-119531004D01*
X146775341Y-119424659D01*
X146668996Y-119295078D01*
X146660886Y-119279906D01*
X146589976Y-119147242D01*
X146541313Y-118986823D01*
X146524883Y-118820000D01*
X146541313Y-118653177D01*
X146589976Y-118492758D01*
X146668995Y-118344924D01*
X146668996Y-118344922D01*
X146775341Y-118215341D01*
X146904922Y-118108996D01*
X146920094Y-118100886D01*
X147052758Y-118029976D01*
X147213177Y-117981313D01*
X147338196Y-117969000D01*
X147421804Y-117969000D01*
X147546823Y-117981313D01*
X147546823Y-117981313D01*
G37*
G36*
X150086823Y-117981313D02*
G01*
X150247242Y-118029976D01*
X150379906Y-118100886D01*
X150395078Y-118108996D01*
X150524659Y-118215341D01*
X150631004Y-118344922D01*
X150631005Y-118344924D01*
X150710024Y-118492758D01*
X150758687Y-118653177D01*
X150775117Y-118820000D01*
X150758687Y-118986823D01*
X150710024Y-119147242D01*
X150639114Y-119279906D01*
X150631004Y-119295078D01*
X150524659Y-119424659D01*
X150395078Y-119531004D01*
X150395076Y-119531005D01*
X150247242Y-119610024D01*
X150086823Y-119658687D01*
X149961804Y-119671000D01*
X149878196Y-119671000D01*
X149753177Y-119658687D01*
X149592758Y-119610024D01*
X149444924Y-119531005D01*
X149444922Y-119531004D01*
X149315341Y-119424659D01*
X149208996Y-119295078D01*
X149200886Y-119279906D01*
X149129976Y-119147242D01*
X149081313Y-118986823D01*
X149064883Y-118820000D01*
X149081313Y-118653177D01*
X149129976Y-118492758D01*
X149208995Y-118344924D01*
X149208996Y-118344922D01*
X149315341Y-118215341D01*
X149444922Y-118108996D01*
X149460094Y-118100886D01*
X149592758Y-118029976D01*
X149753177Y-117981313D01*
X149878196Y-117969000D01*
X149961804Y-117969000D01*
X150086823Y-117981313D01*
X150086823Y-117981313D01*
G37*
G36*
X152626823Y-117981313D02*
G01*
X152787242Y-118029976D01*
X152919906Y-118100886D01*
X152935078Y-118108996D01*
X153064659Y-118215341D01*
X153171004Y-118344922D01*
X153171005Y-118344924D01*
X153250024Y-118492758D01*
X153298687Y-118653177D01*
X153315117Y-118820000D01*
X153298687Y-118986823D01*
X153250024Y-119147242D01*
X153179114Y-119279906D01*
X153171004Y-119295078D01*
X153064659Y-119424659D01*
X152935078Y-119531004D01*
X152935076Y-119531005D01*
X152787242Y-119610024D01*
X152626823Y-119658687D01*
X152501804Y-119671000D01*
X152418196Y-119671000D01*
X152293177Y-119658687D01*
X152132758Y-119610024D01*
X151984924Y-119531005D01*
X151984922Y-119531004D01*
X151855341Y-119424659D01*
X151748996Y-119295078D01*
X151740886Y-119279906D01*
X151669976Y-119147242D01*
X151621313Y-118986823D01*
X151604883Y-118820000D01*
X151621313Y-118653177D01*
X151669976Y-118492758D01*
X151748995Y-118344924D01*
X151748996Y-118344922D01*
X151855341Y-118215341D01*
X151984922Y-118108996D01*
X152000094Y-118100886D01*
X152132758Y-118029976D01*
X152293177Y-117981313D01*
X152418196Y-117969000D01*
X152501804Y-117969000D01*
X152626823Y-117981313D01*
X152626823Y-117981313D01*
G37*
G36*
X155166823Y-117981313D02*
G01*
X155327242Y-118029976D01*
X155459906Y-118100886D01*
X155475078Y-118108996D01*
X155604659Y-118215341D01*
X155711004Y-118344922D01*
X155711005Y-118344924D01*
X155790024Y-118492758D01*
X155838687Y-118653177D01*
X155855117Y-118820000D01*
X155838687Y-118986823D01*
X155790024Y-119147242D01*
X155719114Y-119279906D01*
X155711004Y-119295078D01*
X155604659Y-119424659D01*
X155475078Y-119531004D01*
X155475076Y-119531005D01*
X155327242Y-119610024D01*
X155166823Y-119658687D01*
X155041804Y-119671000D01*
X154958196Y-119671000D01*
X154833177Y-119658687D01*
X154672758Y-119610024D01*
X154524924Y-119531005D01*
X154524922Y-119531004D01*
X154395341Y-119424659D01*
X154288996Y-119295078D01*
X154280886Y-119279906D01*
X154209976Y-119147242D01*
X154161313Y-118986823D01*
X154144883Y-118820000D01*
X154161313Y-118653177D01*
X154209976Y-118492758D01*
X154288995Y-118344924D01*
X154288996Y-118344922D01*
X154395341Y-118215341D01*
X154524922Y-118108996D01*
X154540094Y-118100886D01*
X154672758Y-118029976D01*
X154833177Y-117981313D01*
X154958196Y-117969000D01*
X155041804Y-117969000D01*
X155166823Y-117981313D01*
X155166823Y-117981313D01*
G37*
G36*
X118086823Y-117981313D02*
G01*
X118247242Y-118029976D01*
X118379906Y-118100886D01*
X118395078Y-118108996D01*
X118524659Y-118215341D01*
X118631004Y-118344922D01*
X118631005Y-118344924D01*
X118710024Y-118492758D01*
X118758687Y-118653177D01*
X118775117Y-118820000D01*
X118758687Y-118986823D01*
X118710024Y-119147242D01*
X118639114Y-119279906D01*
X118631004Y-119295078D01*
X118524659Y-119424659D01*
X118395078Y-119531004D01*
X118395076Y-119531005D01*
X118247242Y-119610024D01*
X118086823Y-119658687D01*
X117961804Y-119671000D01*
X117878196Y-119671000D01*
X117753177Y-119658687D01*
X117592758Y-119610024D01*
X117444924Y-119531005D01*
X117444922Y-119531004D01*
X117315341Y-119424659D01*
X117208996Y-119295078D01*
X117200886Y-119279906D01*
X117129976Y-119147242D01*
X117081313Y-118986823D01*
X117064883Y-118820000D01*
X117081313Y-118653177D01*
X117129976Y-118492758D01*
X117208995Y-118344924D01*
X117208996Y-118344922D01*
X117315341Y-118215341D01*
X117444922Y-118108996D01*
X117460094Y-118100886D01*
X117592758Y-118029976D01*
X117753177Y-117981313D01*
X117878196Y-117969000D01*
X117961804Y-117969000D01*
X118086823Y-117981313D01*
X118086823Y-117981313D01*
G37*
G36*
X138406823Y-117981313D02*
G01*
X138567242Y-118029976D01*
X138699906Y-118100886D01*
X138715078Y-118108996D01*
X138844659Y-118215341D01*
X138951004Y-118344922D01*
X138951005Y-118344924D01*
X139030024Y-118492758D01*
X139078687Y-118653177D01*
X139095117Y-118820000D01*
X139078687Y-118986823D01*
X139030024Y-119147242D01*
X138959114Y-119279906D01*
X138951004Y-119295078D01*
X138844659Y-119424659D01*
X138715078Y-119531004D01*
X138715076Y-119531005D01*
X138567242Y-119610024D01*
X138406823Y-119658687D01*
X138281804Y-119671000D01*
X138198196Y-119671000D01*
X138073177Y-119658687D01*
X137912758Y-119610024D01*
X137764924Y-119531005D01*
X137764922Y-119531004D01*
X137635341Y-119424659D01*
X137528996Y-119295078D01*
X137520886Y-119279906D01*
X137449976Y-119147242D01*
X137401313Y-118986823D01*
X137384883Y-118820000D01*
X137401313Y-118653177D01*
X137449976Y-118492758D01*
X137528995Y-118344924D01*
X137528996Y-118344922D01*
X137635341Y-118215341D01*
X137764922Y-118108996D01*
X137780094Y-118100886D01*
X137912758Y-118029976D01*
X138073177Y-117981313D01*
X138198196Y-117969000D01*
X138281804Y-117969000D01*
X138406823Y-117981313D01*
X138406823Y-117981313D01*
G37*
G36*
X112661000Y-119011000D02*
G01*
X110859000Y-119011000D01*
X110859000Y-117209000D01*
X112661000Y-117209000D01*
X112661000Y-119011000D01*
X112661000Y-119011000D01*
G37*
G36*
X99961000Y-119011000D02*
G01*
X98159000Y-119011000D01*
X98159000Y-117209000D01*
X99961000Y-117209000D01*
X99961000Y-119011000D01*
X99961000Y-119011000D01*
G37*
G36*
X106311000Y-119011000D02*
G01*
X104509000Y-119011000D01*
X104509000Y-117209000D01*
X106311000Y-117209000D01*
X106311000Y-119011000D01*
X106311000Y-119011000D01*
G37*
G36*
X105520443Y-114675519D02*
G01*
X105586627Y-114682037D01*
X105756466Y-114733557D01*
X105912991Y-114817222D01*
X105948729Y-114846552D01*
X106050186Y-114929814D01*
X106133448Y-115031271D01*
X106162778Y-115067009D01*
X106246443Y-115223534D01*
X106297963Y-115393373D01*
X106315359Y-115570000D01*
X106297963Y-115746627D01*
X106246443Y-115916466D01*
X106162778Y-116072991D01*
X106133448Y-116108729D01*
X106050186Y-116210186D01*
X105948729Y-116293448D01*
X105912991Y-116322778D01*
X105756466Y-116406443D01*
X105586627Y-116457963D01*
X105520442Y-116464482D01*
X105454260Y-116471000D01*
X105365740Y-116471000D01*
X105299558Y-116464482D01*
X105233373Y-116457963D01*
X105063534Y-116406443D01*
X104907009Y-116322778D01*
X104871271Y-116293448D01*
X104769814Y-116210186D01*
X104686552Y-116108729D01*
X104657222Y-116072991D01*
X104573557Y-115916466D01*
X104522037Y-115746627D01*
X104504641Y-115570000D01*
X104522037Y-115393373D01*
X104573557Y-115223534D01*
X104657222Y-115067009D01*
X104686552Y-115031271D01*
X104769814Y-114929814D01*
X104871271Y-114846552D01*
X104907009Y-114817222D01*
X105063534Y-114733557D01*
X105233373Y-114682037D01*
X105299557Y-114675519D01*
X105365740Y-114669000D01*
X105454260Y-114669000D01*
X105520443Y-114675519D01*
X105520443Y-114675519D01*
G37*
G36*
X111870443Y-114675519D02*
G01*
X111936627Y-114682037D01*
X112106466Y-114733557D01*
X112262991Y-114817222D01*
X112298729Y-114846552D01*
X112400186Y-114929814D01*
X112483448Y-115031271D01*
X112512778Y-115067009D01*
X112596443Y-115223534D01*
X112647963Y-115393373D01*
X112665359Y-115570000D01*
X112647963Y-115746627D01*
X112596443Y-115916466D01*
X112512778Y-116072991D01*
X112483448Y-116108729D01*
X112400186Y-116210186D01*
X112298729Y-116293448D01*
X112262991Y-116322778D01*
X112106466Y-116406443D01*
X111936627Y-116457963D01*
X111870442Y-116464482D01*
X111804260Y-116471000D01*
X111715740Y-116471000D01*
X111649558Y-116464482D01*
X111583373Y-116457963D01*
X111413534Y-116406443D01*
X111257009Y-116322778D01*
X111221271Y-116293448D01*
X111119814Y-116210186D01*
X111036552Y-116108729D01*
X111007222Y-116072991D01*
X110923557Y-115916466D01*
X110872037Y-115746627D01*
X110854641Y-115570000D01*
X110872037Y-115393373D01*
X110923557Y-115223534D01*
X111007222Y-115067009D01*
X111036552Y-115031271D01*
X111119814Y-114929814D01*
X111221271Y-114846552D01*
X111257009Y-114817222D01*
X111413534Y-114733557D01*
X111583373Y-114682037D01*
X111649557Y-114675519D01*
X111715740Y-114669000D01*
X111804260Y-114669000D01*
X111870443Y-114675519D01*
X111870443Y-114675519D01*
G37*
G36*
X99170443Y-114675519D02*
G01*
X99236627Y-114682037D01*
X99406466Y-114733557D01*
X99562991Y-114817222D01*
X99598729Y-114846552D01*
X99700186Y-114929814D01*
X99783448Y-115031271D01*
X99812778Y-115067009D01*
X99896443Y-115223534D01*
X99947963Y-115393373D01*
X99965359Y-115570000D01*
X99947963Y-115746627D01*
X99896443Y-115916466D01*
X99812778Y-116072991D01*
X99783448Y-116108729D01*
X99700186Y-116210186D01*
X99598729Y-116293448D01*
X99562991Y-116322778D01*
X99406466Y-116406443D01*
X99236627Y-116457963D01*
X99170442Y-116464482D01*
X99104260Y-116471000D01*
X99015740Y-116471000D01*
X98949558Y-116464482D01*
X98883373Y-116457963D01*
X98713534Y-116406443D01*
X98557009Y-116322778D01*
X98521271Y-116293448D01*
X98419814Y-116210186D01*
X98336552Y-116108729D01*
X98307222Y-116072991D01*
X98223557Y-115916466D01*
X98172037Y-115746627D01*
X98154641Y-115570000D01*
X98172037Y-115393373D01*
X98223557Y-115223534D01*
X98307222Y-115067009D01*
X98336552Y-115031271D01*
X98419814Y-114929814D01*
X98521271Y-114846552D01*
X98557009Y-114817222D01*
X98713534Y-114733557D01*
X98883373Y-114682037D01*
X98949557Y-114675519D01*
X99015740Y-114669000D01*
X99104260Y-114669000D01*
X99170443Y-114675519D01*
X99170443Y-114675519D01*
G37*
G36*
X144209272Y-112613428D02*
G01*
X144395991Y-112690770D01*
X144395993Y-112690771D01*
X144564037Y-112803054D01*
X144706946Y-112945963D01*
X144819229Y-113114007D01*
X144819230Y-113114009D01*
X144896572Y-113300728D01*
X144936000Y-113498947D01*
X144936000Y-113701053D01*
X144896572Y-113899272D01*
X144819230Y-114085991D01*
X144819229Y-114085993D01*
X144706946Y-114254037D01*
X144564037Y-114396946D01*
X144395993Y-114509229D01*
X144395992Y-114509230D01*
X144395991Y-114509230D01*
X144209272Y-114586572D01*
X144011053Y-114626000D01*
X143808947Y-114626000D01*
X143610728Y-114586572D01*
X143424009Y-114509230D01*
X143424008Y-114509230D01*
X143424007Y-114509229D01*
X143255963Y-114396946D01*
X143113054Y-114254037D01*
X143000771Y-114085993D01*
X143000770Y-114085991D01*
X142923428Y-113899272D01*
X142884000Y-113701053D01*
X142884000Y-113498947D01*
X142923428Y-113300728D01*
X143000770Y-113114009D01*
X143000771Y-113114007D01*
X143113054Y-112945963D01*
X143255963Y-112803054D01*
X143424007Y-112690771D01*
X143424009Y-112690770D01*
X143610728Y-112613428D01*
X143808947Y-112574000D01*
X144011053Y-112574000D01*
X144209272Y-112613428D01*
X144209272Y-112613428D01*
G37*
G36*
X156509272Y-112613428D02*
G01*
X156695991Y-112690770D01*
X156695993Y-112690771D01*
X156864037Y-112803054D01*
X157006946Y-112945963D01*
X157119229Y-113114007D01*
X157119230Y-113114009D01*
X157196572Y-113300728D01*
X157236000Y-113498947D01*
X157236000Y-113701053D01*
X157196572Y-113899272D01*
X157119230Y-114085991D01*
X157119229Y-114085993D01*
X157006946Y-114254037D01*
X156864037Y-114396946D01*
X156695993Y-114509229D01*
X156695992Y-114509230D01*
X156695991Y-114509230D01*
X156509272Y-114586572D01*
X156311053Y-114626000D01*
X156108947Y-114626000D01*
X155910728Y-114586572D01*
X155724009Y-114509230D01*
X155724008Y-114509230D01*
X155724007Y-114509229D01*
X155555963Y-114396946D01*
X155413054Y-114254037D01*
X155300771Y-114085993D01*
X155300770Y-114085991D01*
X155223428Y-113899272D01*
X155184000Y-113701053D01*
X155184000Y-113498947D01*
X155223428Y-113300728D01*
X155300770Y-113114009D01*
X155300771Y-113114007D01*
X155413054Y-112945963D01*
X155555963Y-112803054D01*
X155724007Y-112690771D01*
X155724009Y-112690770D01*
X155910728Y-112613428D01*
X156108947Y-112574000D01*
X156311053Y-112574000D01*
X156509272Y-112613428D01*
X156509272Y-112613428D01*
G37*
G36*
X133649272Y-112613428D02*
G01*
X133835991Y-112690770D01*
X133835993Y-112690771D01*
X134004037Y-112803054D01*
X134146946Y-112945963D01*
X134259229Y-113114007D01*
X134259230Y-113114009D01*
X134336572Y-113300728D01*
X134376000Y-113498947D01*
X134376000Y-113701053D01*
X134336572Y-113899272D01*
X134259230Y-114085991D01*
X134259229Y-114085993D01*
X134146946Y-114254037D01*
X134004037Y-114396946D01*
X133835993Y-114509229D01*
X133835992Y-114509230D01*
X133835991Y-114509230D01*
X133649272Y-114586572D01*
X133451053Y-114626000D01*
X133248947Y-114626000D01*
X133050728Y-114586572D01*
X132864009Y-114509230D01*
X132864008Y-114509230D01*
X132864007Y-114509229D01*
X132695963Y-114396946D01*
X132553054Y-114254037D01*
X132440771Y-114085993D01*
X132440770Y-114085991D01*
X132363428Y-113899272D01*
X132324000Y-113701053D01*
X132324000Y-113498947D01*
X132363428Y-113300728D01*
X132440770Y-113114009D01*
X132440771Y-113114007D01*
X132553054Y-112945963D01*
X132695963Y-112803054D01*
X132864007Y-112690771D01*
X132864009Y-112690770D01*
X133050728Y-112613428D01*
X133248947Y-112574000D01*
X133451053Y-112574000D01*
X133649272Y-112613428D01*
X133649272Y-112613428D01*
G37*
G36*
X121349272Y-112613428D02*
G01*
X121535991Y-112690770D01*
X121535993Y-112690771D01*
X121704037Y-112803054D01*
X121846946Y-112945963D01*
X121959229Y-113114007D01*
X121959230Y-113114009D01*
X122036572Y-113300728D01*
X122076000Y-113498947D01*
X122076000Y-113701053D01*
X122036572Y-113899272D01*
X121959230Y-114085991D01*
X121959229Y-114085993D01*
X121846946Y-114254037D01*
X121704037Y-114396946D01*
X121535993Y-114509229D01*
X121535992Y-114509230D01*
X121535991Y-114509230D01*
X121349272Y-114586572D01*
X121151053Y-114626000D01*
X120948947Y-114626000D01*
X120750728Y-114586572D01*
X120564009Y-114509230D01*
X120564008Y-114509230D01*
X120564007Y-114509229D01*
X120395963Y-114396946D01*
X120253054Y-114254037D01*
X120140771Y-114085993D01*
X120140770Y-114085991D01*
X120063428Y-113899272D01*
X120024000Y-113701053D01*
X120024000Y-113498947D01*
X120063428Y-113300728D01*
X120140770Y-113114009D01*
X120140771Y-113114007D01*
X120253054Y-112945963D01*
X120395963Y-112803054D01*
X120564007Y-112690771D01*
X120564009Y-112690770D01*
X120750728Y-112613428D01*
X120948947Y-112574000D01*
X121151053Y-112574000D01*
X121349272Y-112613428D01*
X121349272Y-112613428D01*
G37*
G36*
X102501000Y-110121000D02*
G01*
X100699000Y-110121000D01*
X100699000Y-108319000D01*
X102501000Y-108319000D01*
X102501000Y-110121000D01*
X102501000Y-110121000D01*
G37*
G36*
X99170443Y-108325519D02*
G01*
X99236627Y-108332037D01*
X99406466Y-108383557D01*
X99562991Y-108467222D01*
X99598729Y-108496552D01*
X99700186Y-108579814D01*
X99783448Y-108681271D01*
X99812778Y-108717009D01*
X99896443Y-108873534D01*
X99947963Y-109043373D01*
X99965359Y-109220000D01*
X99947963Y-109396627D01*
X99896443Y-109566466D01*
X99812778Y-109722991D01*
X99783448Y-109758729D01*
X99700186Y-109860186D01*
X99598729Y-109943448D01*
X99562991Y-109972778D01*
X99406466Y-110056443D01*
X99236627Y-110107963D01*
X99170443Y-110114481D01*
X99104260Y-110121000D01*
X99015740Y-110121000D01*
X98949557Y-110114481D01*
X98883373Y-110107963D01*
X98713534Y-110056443D01*
X98557009Y-109972778D01*
X98521271Y-109943448D01*
X98419814Y-109860186D01*
X98336552Y-109758729D01*
X98307222Y-109722991D01*
X98223557Y-109566466D01*
X98172037Y-109396627D01*
X98154641Y-109220000D01*
X98172037Y-109043373D01*
X98223557Y-108873534D01*
X98307222Y-108717009D01*
X98336552Y-108681271D01*
X98419814Y-108579814D01*
X98521271Y-108496552D01*
X98557009Y-108467222D01*
X98713534Y-108383557D01*
X98883373Y-108332037D01*
X98949557Y-108325519D01*
X99015740Y-108319000D01*
X99104260Y-108319000D01*
X99170443Y-108325519D01*
X99170443Y-108325519D01*
G37*
G36*
X135649272Y-106613428D02*
G01*
X135835991Y-106690770D01*
X135835993Y-106690771D01*
X136004037Y-106803054D01*
X136146946Y-106945963D01*
X136259229Y-107114007D01*
X136259230Y-107114009D01*
X136336572Y-107300728D01*
X136376000Y-107498947D01*
X136376000Y-107701053D01*
X136336572Y-107899272D01*
X136259230Y-108085991D01*
X136259229Y-108085993D01*
X136146946Y-108254037D01*
X136004037Y-108396946D01*
X135835993Y-108509229D01*
X135835992Y-108509230D01*
X135835991Y-108509230D01*
X135649272Y-108586572D01*
X135451053Y-108626000D01*
X135248947Y-108626000D01*
X135050728Y-108586572D01*
X134864009Y-108509230D01*
X134864008Y-108509230D01*
X134864007Y-108509229D01*
X134695963Y-108396946D01*
X134553054Y-108254037D01*
X134440771Y-108085993D01*
X134440770Y-108085991D01*
X134363428Y-107899272D01*
X134324000Y-107701053D01*
X134324000Y-107498947D01*
X134363428Y-107300728D01*
X134440770Y-107114009D01*
X134440771Y-107114007D01*
X134553054Y-106945963D01*
X134695963Y-106803054D01*
X134864007Y-106690771D01*
X134864009Y-106690770D01*
X135050728Y-106613428D01*
X135248947Y-106574000D01*
X135451053Y-106574000D01*
X135649272Y-106613428D01*
X135649272Y-106613428D01*
G37*
G36*
X158509272Y-106613428D02*
G01*
X158695991Y-106690770D01*
X158695993Y-106690771D01*
X158864037Y-106803054D01*
X159006946Y-106945963D01*
X159119229Y-107114007D01*
X159119230Y-107114009D01*
X159196572Y-107300728D01*
X159236000Y-107498947D01*
X159236000Y-107701053D01*
X159196572Y-107899272D01*
X159119230Y-108085991D01*
X159119229Y-108085993D01*
X159006946Y-108254037D01*
X158864037Y-108396946D01*
X158695993Y-108509229D01*
X158695992Y-108509230D01*
X158695991Y-108509230D01*
X158509272Y-108586572D01*
X158311053Y-108626000D01*
X158108947Y-108626000D01*
X157910728Y-108586572D01*
X157724009Y-108509230D01*
X157724008Y-108509230D01*
X157724007Y-108509229D01*
X157555963Y-108396946D01*
X157413054Y-108254037D01*
X157300771Y-108085993D01*
X157300770Y-108085991D01*
X157223428Y-107899272D01*
X157184000Y-107701053D01*
X157184000Y-107498947D01*
X157223428Y-107300728D01*
X157300770Y-107114009D01*
X157300771Y-107114007D01*
X157413054Y-106945963D01*
X157555963Y-106803054D01*
X157724007Y-106690771D01*
X157724009Y-106690770D01*
X157910728Y-106613428D01*
X158108947Y-106574000D01*
X158311053Y-106574000D01*
X158509272Y-106613428D01*
X158509272Y-106613428D01*
G37*
G36*
X102501000Y-105041000D02*
G01*
X100699000Y-105041000D01*
X100699000Y-103239000D01*
X102501000Y-103239000D01*
X102501000Y-105041000D01*
X102501000Y-105041000D01*
G37*
G36*
X99170443Y-103245519D02*
G01*
X99236627Y-103252037D01*
X99406466Y-103303557D01*
X99562991Y-103387222D01*
X99598729Y-103416552D01*
X99700186Y-103499814D01*
X99783448Y-103601271D01*
X99812778Y-103637009D01*
X99896443Y-103793534D01*
X99947963Y-103963373D01*
X99965359Y-104140000D01*
X99947963Y-104316627D01*
X99896443Y-104486466D01*
X99812778Y-104642991D01*
X99783448Y-104678729D01*
X99700186Y-104780186D01*
X99598729Y-104863448D01*
X99562991Y-104892778D01*
X99406466Y-104976443D01*
X99236627Y-105027963D01*
X99170442Y-105034482D01*
X99104260Y-105041000D01*
X99015740Y-105041000D01*
X98949557Y-105034481D01*
X98883373Y-105027963D01*
X98713534Y-104976443D01*
X98557009Y-104892778D01*
X98521271Y-104863448D01*
X98419814Y-104780186D01*
X98336552Y-104678729D01*
X98307222Y-104642991D01*
X98223557Y-104486466D01*
X98172037Y-104316627D01*
X98154641Y-104140000D01*
X98172037Y-103963373D01*
X98223557Y-103793534D01*
X98307222Y-103637009D01*
X98336552Y-103601271D01*
X98419814Y-103499814D01*
X98521271Y-103416552D01*
X98557009Y-103387222D01*
X98713534Y-103303557D01*
X98883373Y-103252037D01*
X98949558Y-103245518D01*
X99015740Y-103239000D01*
X99104260Y-103239000D01*
X99170443Y-103245519D01*
X99170443Y-103245519D01*
G37*
G36*
X157236000Y-102626000D02*
G01*
X155184000Y-102626000D01*
X155184000Y-100574000D01*
X157236000Y-100574000D01*
X157236000Y-102626000D01*
X157236000Y-102626000D01*
G37*
G36*
X144209272Y-100613428D02*
G01*
X144395991Y-100690770D01*
X144395993Y-100690771D01*
X144564037Y-100803054D01*
X144706946Y-100945963D01*
X144819229Y-101114007D01*
X144819230Y-101114009D01*
X144896572Y-101300728D01*
X144936000Y-101498947D01*
X144936000Y-101701053D01*
X144896572Y-101899272D01*
X144819230Y-102085991D01*
X144819229Y-102085993D01*
X144706946Y-102254037D01*
X144564037Y-102396946D01*
X144395993Y-102509229D01*
X144395992Y-102509230D01*
X144395991Y-102509230D01*
X144209272Y-102586572D01*
X144011053Y-102626000D01*
X143808947Y-102626000D01*
X143610728Y-102586572D01*
X143424009Y-102509230D01*
X143424008Y-102509230D01*
X143424007Y-102509229D01*
X143255963Y-102396946D01*
X143113054Y-102254037D01*
X143000771Y-102085993D01*
X143000770Y-102085991D01*
X142923428Y-101899272D01*
X142884000Y-101701053D01*
X142884000Y-101498947D01*
X142923428Y-101300728D01*
X143000770Y-101114009D01*
X143000771Y-101114007D01*
X143113054Y-100945963D01*
X143255963Y-100803054D01*
X143424007Y-100690771D01*
X143424009Y-100690770D01*
X143610728Y-100613428D01*
X143808947Y-100574000D01*
X144011053Y-100574000D01*
X144209272Y-100613428D01*
X144209272Y-100613428D01*
G37*
G36*
X134376000Y-102626000D02*
G01*
X132324000Y-102626000D01*
X132324000Y-100574000D01*
X134376000Y-100574000D01*
X134376000Y-102626000D01*
X134376000Y-102626000D01*
G37*
G36*
X121349272Y-100613428D02*
G01*
X121535991Y-100690770D01*
X121535993Y-100690771D01*
X121704037Y-100803054D01*
X121846946Y-100945963D01*
X121959229Y-101114007D01*
X121959230Y-101114009D01*
X122036572Y-101300728D01*
X122076000Y-101498947D01*
X122076000Y-101701053D01*
X122036572Y-101899272D01*
X121959230Y-102085991D01*
X121959229Y-102085993D01*
X121846946Y-102254037D01*
X121704037Y-102396946D01*
X121535993Y-102509229D01*
X121535992Y-102509230D01*
X121535991Y-102509230D01*
X121349272Y-102586572D01*
X121151053Y-102626000D01*
X120948947Y-102626000D01*
X120750728Y-102586572D01*
X120564009Y-102509230D01*
X120564008Y-102509230D01*
X120564007Y-102509229D01*
X120395963Y-102396946D01*
X120253054Y-102254037D01*
X120140771Y-102085993D01*
X120140770Y-102085991D01*
X120063428Y-101899272D01*
X120024000Y-101701053D01*
X120024000Y-101498947D01*
X120063428Y-101300728D01*
X120140770Y-101114009D01*
X120140771Y-101114007D01*
X120253054Y-100945963D01*
X120395963Y-100803054D01*
X120564007Y-100690771D01*
X120564009Y-100690770D01*
X120750728Y-100613428D01*
X120948947Y-100574000D01*
X121151053Y-100574000D01*
X121349272Y-100613428D01*
X121349272Y-100613428D01*
G37*
G36*
X99170443Y-98165519D02*
G01*
X99236627Y-98172037D01*
X99406466Y-98223557D01*
X99562991Y-98307222D01*
X99598729Y-98336552D01*
X99700186Y-98419814D01*
X99783448Y-98521271D01*
X99812778Y-98557009D01*
X99896443Y-98713534D01*
X99947963Y-98883373D01*
X99965359Y-99060000D01*
X99947963Y-99236627D01*
X99896443Y-99406466D01*
X99812778Y-99562991D01*
X99783448Y-99598729D01*
X99700186Y-99700186D01*
X99598729Y-99783448D01*
X99562991Y-99812778D01*
X99406466Y-99896443D01*
X99236627Y-99947963D01*
X99170443Y-99954481D01*
X99104260Y-99961000D01*
X99015740Y-99961000D01*
X98949557Y-99954481D01*
X98883373Y-99947963D01*
X98713534Y-99896443D01*
X98557009Y-99812778D01*
X98521271Y-99783448D01*
X98419814Y-99700186D01*
X98336552Y-99598729D01*
X98307222Y-99562991D01*
X98223557Y-99406466D01*
X98172037Y-99236627D01*
X98154641Y-99060000D01*
X98172037Y-98883373D01*
X98223557Y-98713534D01*
X98307222Y-98557009D01*
X98336552Y-98521271D01*
X98419814Y-98419814D01*
X98521271Y-98336552D01*
X98557009Y-98307222D01*
X98713534Y-98223557D01*
X98883373Y-98172037D01*
X98949557Y-98165519D01*
X99015740Y-98159000D01*
X99104260Y-98159000D01*
X99170443Y-98165519D01*
X99170443Y-98165519D01*
G37*
G36*
X102501000Y-99961000D02*
G01*
X100699000Y-99961000D01*
X100699000Y-98159000D01*
X102501000Y-98159000D01*
X102501000Y-99961000D01*
X102501000Y-99961000D01*
G37*
G36*
X121349272Y-93563428D02*
G01*
X121535991Y-93640770D01*
X121535993Y-93640771D01*
X121704037Y-93753054D01*
X121846946Y-93895963D01*
X121959229Y-94064007D01*
X121959230Y-94064009D01*
X122036572Y-94250728D01*
X122076000Y-94448947D01*
X122076000Y-94651053D01*
X122036572Y-94849272D01*
X121959230Y-95035991D01*
X121959229Y-95035993D01*
X121846946Y-95204037D01*
X121704037Y-95346946D01*
X121535993Y-95459229D01*
X121535992Y-95459230D01*
X121535991Y-95459230D01*
X121349272Y-95536572D01*
X121151053Y-95576000D01*
X120948947Y-95576000D01*
X120750728Y-95536572D01*
X120564009Y-95459230D01*
X120564008Y-95459230D01*
X120564007Y-95459229D01*
X120395963Y-95346946D01*
X120253054Y-95204037D01*
X120140771Y-95035993D01*
X120140770Y-95035991D01*
X120063428Y-94849272D01*
X120024000Y-94651053D01*
X120024000Y-94448947D01*
X120063428Y-94250728D01*
X120140770Y-94064009D01*
X120140771Y-94064007D01*
X120253054Y-93895963D01*
X120395963Y-93753054D01*
X120564007Y-93640771D01*
X120564009Y-93640770D01*
X120750728Y-93563428D01*
X120948947Y-93524000D01*
X121151053Y-93524000D01*
X121349272Y-93563428D01*
X121349272Y-93563428D01*
G37*
G36*
X156509272Y-93563428D02*
G01*
X156695991Y-93640770D01*
X156695993Y-93640771D01*
X156864037Y-93753054D01*
X157006946Y-93895963D01*
X157119229Y-94064007D01*
X157119230Y-94064009D01*
X157196572Y-94250728D01*
X157236000Y-94448947D01*
X157236000Y-94651053D01*
X157196572Y-94849272D01*
X157119230Y-95035991D01*
X157119229Y-95035993D01*
X157006946Y-95204037D01*
X156864037Y-95346946D01*
X156695993Y-95459229D01*
X156695992Y-95459230D01*
X156695991Y-95459230D01*
X156509272Y-95536572D01*
X156311053Y-95576000D01*
X156108947Y-95576000D01*
X155910728Y-95536572D01*
X155724009Y-95459230D01*
X155724008Y-95459230D01*
X155724007Y-95459229D01*
X155555963Y-95346946D01*
X155413054Y-95204037D01*
X155300771Y-95035993D01*
X155300770Y-95035991D01*
X155223428Y-94849272D01*
X155184000Y-94651053D01*
X155184000Y-94448947D01*
X155223428Y-94250728D01*
X155300770Y-94064009D01*
X155300771Y-94064007D01*
X155413054Y-93895963D01*
X155555963Y-93753054D01*
X155724007Y-93640771D01*
X155724009Y-93640770D01*
X155910728Y-93563428D01*
X156108947Y-93524000D01*
X156311053Y-93524000D01*
X156509272Y-93563428D01*
X156509272Y-93563428D01*
G37*
G36*
X133649272Y-93563428D02*
G01*
X133835991Y-93640770D01*
X133835993Y-93640771D01*
X134004037Y-93753054D01*
X134146946Y-93895963D01*
X134259229Y-94064007D01*
X134259230Y-94064009D01*
X134336572Y-94250728D01*
X134376000Y-94448947D01*
X134376000Y-94651053D01*
X134336572Y-94849272D01*
X134259230Y-95035991D01*
X134259229Y-95035993D01*
X134146946Y-95204037D01*
X134004037Y-95346946D01*
X133835993Y-95459229D01*
X133835992Y-95459230D01*
X133835991Y-95459230D01*
X133649272Y-95536572D01*
X133451053Y-95576000D01*
X133248947Y-95576000D01*
X133050728Y-95536572D01*
X132864009Y-95459230D01*
X132864008Y-95459230D01*
X132864007Y-95459229D01*
X132695963Y-95346946D01*
X132553054Y-95204037D01*
X132440771Y-95035993D01*
X132440770Y-95035991D01*
X132363428Y-94849272D01*
X132324000Y-94651053D01*
X132324000Y-94448947D01*
X132363428Y-94250728D01*
X132440770Y-94064009D01*
X132440771Y-94064007D01*
X132553054Y-93895963D01*
X132695963Y-93753054D01*
X132864007Y-93640771D01*
X132864009Y-93640770D01*
X133050728Y-93563428D01*
X133248947Y-93524000D01*
X133451053Y-93524000D01*
X133649272Y-93563428D01*
X133649272Y-93563428D01*
G37*
G36*
X144209272Y-93563428D02*
G01*
X144395991Y-93640770D01*
X144395993Y-93640771D01*
X144564037Y-93753054D01*
X144706946Y-93895963D01*
X144819229Y-94064007D01*
X144819230Y-94064009D01*
X144896572Y-94250728D01*
X144936000Y-94448947D01*
X144936000Y-94651053D01*
X144896572Y-94849272D01*
X144819230Y-95035991D01*
X144819229Y-95035993D01*
X144706946Y-95204037D01*
X144564037Y-95346946D01*
X144395993Y-95459229D01*
X144395992Y-95459230D01*
X144395991Y-95459230D01*
X144209272Y-95536572D01*
X144011053Y-95576000D01*
X143808947Y-95576000D01*
X143610728Y-95536572D01*
X143424009Y-95459230D01*
X143424008Y-95459230D01*
X143424007Y-95459229D01*
X143255963Y-95346946D01*
X143113054Y-95204037D01*
X143000771Y-95035993D01*
X143000770Y-95035991D01*
X142923428Y-94849272D01*
X142884000Y-94651053D01*
X142884000Y-94448947D01*
X142923428Y-94250728D01*
X143000770Y-94064009D01*
X143000771Y-94064007D01*
X143113054Y-93895963D01*
X143255963Y-93753054D01*
X143424007Y-93640771D01*
X143424009Y-93640770D01*
X143610728Y-93563428D01*
X143808947Y-93524000D01*
X144011053Y-93524000D01*
X144209272Y-93563428D01*
X144209272Y-93563428D01*
G37*
G36*
X99170443Y-93085519D02*
G01*
X99236627Y-93092037D01*
X99406466Y-93143557D01*
X99562991Y-93227222D01*
X99598729Y-93256552D01*
X99700186Y-93339814D01*
X99783448Y-93441271D01*
X99812778Y-93477009D01*
X99896443Y-93633534D01*
X99947963Y-93803373D01*
X99965359Y-93980000D01*
X99947963Y-94156627D01*
X99896443Y-94326466D01*
X99812778Y-94482991D01*
X99783448Y-94518729D01*
X99700186Y-94620186D01*
X99598729Y-94703448D01*
X99562991Y-94732778D01*
X99406466Y-94816443D01*
X99236627Y-94867963D01*
X99170443Y-94874481D01*
X99104260Y-94881000D01*
X99015740Y-94881000D01*
X98949557Y-94874481D01*
X98883373Y-94867963D01*
X98713534Y-94816443D01*
X98557009Y-94732778D01*
X98521271Y-94703448D01*
X98419814Y-94620186D01*
X98336552Y-94518729D01*
X98307222Y-94482991D01*
X98223557Y-94326466D01*
X98172037Y-94156627D01*
X98154641Y-93980000D01*
X98172037Y-93803373D01*
X98223557Y-93633534D01*
X98307222Y-93477009D01*
X98336552Y-93441271D01*
X98419814Y-93339814D01*
X98521271Y-93256552D01*
X98557009Y-93227222D01*
X98713534Y-93143557D01*
X98883373Y-93092037D01*
X98949557Y-93085519D01*
X99015740Y-93079000D01*
X99104260Y-93079000D01*
X99170443Y-93085519D01*
X99170443Y-93085519D01*
G37*
G36*
X102501000Y-94881000D02*
G01*
X100699000Y-94881000D01*
X100699000Y-93079000D01*
X102501000Y-93079000D01*
X102501000Y-94881000D01*
X102501000Y-94881000D01*
G37*
G36*
X99170443Y-88005519D02*
G01*
X99236627Y-88012037D01*
X99406466Y-88063557D01*
X99562991Y-88147222D01*
X99598729Y-88176552D01*
X99700186Y-88259814D01*
X99783448Y-88361271D01*
X99812778Y-88397009D01*
X99896443Y-88553534D01*
X99947963Y-88723373D01*
X99965359Y-88900000D01*
X99947963Y-89076627D01*
X99896443Y-89246466D01*
X99812778Y-89402991D01*
X99783448Y-89438729D01*
X99700186Y-89540186D01*
X99598729Y-89623448D01*
X99562991Y-89652778D01*
X99406466Y-89736443D01*
X99236627Y-89787963D01*
X99170443Y-89794481D01*
X99104260Y-89801000D01*
X99015740Y-89801000D01*
X98949557Y-89794481D01*
X98883373Y-89787963D01*
X98713534Y-89736443D01*
X98557009Y-89652778D01*
X98521271Y-89623448D01*
X98419814Y-89540186D01*
X98336552Y-89438729D01*
X98307222Y-89402991D01*
X98223557Y-89246466D01*
X98172037Y-89076627D01*
X98154641Y-88900000D01*
X98172037Y-88723373D01*
X98223557Y-88553534D01*
X98307222Y-88397009D01*
X98336552Y-88361271D01*
X98419814Y-88259814D01*
X98521271Y-88176552D01*
X98557009Y-88147222D01*
X98713534Y-88063557D01*
X98883373Y-88012037D01*
X98949557Y-88005519D01*
X99015740Y-87999000D01*
X99104260Y-87999000D01*
X99170443Y-88005519D01*
X99170443Y-88005519D01*
G37*
G36*
X102501000Y-89801000D02*
G01*
X100699000Y-89801000D01*
X100699000Y-87999000D01*
X102501000Y-87999000D01*
X102501000Y-89801000D01*
X102501000Y-89801000D01*
G37*
G36*
X158509272Y-87563428D02*
G01*
X158695991Y-87640770D01*
X158695993Y-87640771D01*
X158864037Y-87753054D01*
X159006946Y-87895963D01*
X159118928Y-88063557D01*
X159119230Y-88064009D01*
X159196572Y-88250728D01*
X159236000Y-88448947D01*
X159236000Y-88651053D01*
X159196572Y-88849272D01*
X159119230Y-89035991D01*
X159119229Y-89035993D01*
X159006946Y-89204037D01*
X158864037Y-89346946D01*
X158695993Y-89459229D01*
X158695992Y-89459230D01*
X158695991Y-89459230D01*
X158509272Y-89536572D01*
X158311053Y-89576000D01*
X158108947Y-89576000D01*
X157910728Y-89536572D01*
X157724009Y-89459230D01*
X157724008Y-89459230D01*
X157724007Y-89459229D01*
X157555963Y-89346946D01*
X157413054Y-89204037D01*
X157300771Y-89035993D01*
X157300770Y-89035991D01*
X157223428Y-88849272D01*
X157184000Y-88651053D01*
X157184000Y-88448947D01*
X157223428Y-88250728D01*
X157300770Y-88064009D01*
X157301072Y-88063557D01*
X157413054Y-87895963D01*
X157555963Y-87753054D01*
X157724007Y-87640771D01*
X157724009Y-87640770D01*
X157910728Y-87563428D01*
X158108947Y-87524000D01*
X158311053Y-87524000D01*
X158509272Y-87563428D01*
X158509272Y-87563428D01*
G37*
G36*
X135649272Y-87563428D02*
G01*
X135835991Y-87640770D01*
X135835993Y-87640771D01*
X136004037Y-87753054D01*
X136146946Y-87895963D01*
X136258928Y-88063557D01*
X136259230Y-88064009D01*
X136336572Y-88250728D01*
X136376000Y-88448947D01*
X136376000Y-88651053D01*
X136336572Y-88849272D01*
X136259230Y-89035991D01*
X136259229Y-89035993D01*
X136146946Y-89204037D01*
X136004037Y-89346946D01*
X135835993Y-89459229D01*
X135835992Y-89459230D01*
X135835991Y-89459230D01*
X135649272Y-89536572D01*
X135451053Y-89576000D01*
X135248947Y-89576000D01*
X135050728Y-89536572D01*
X134864009Y-89459230D01*
X134864008Y-89459230D01*
X134864007Y-89459229D01*
X134695963Y-89346946D01*
X134553054Y-89204037D01*
X134440771Y-89035993D01*
X134440770Y-89035991D01*
X134363428Y-88849272D01*
X134324000Y-88651053D01*
X134324000Y-88448947D01*
X134363428Y-88250728D01*
X134440770Y-88064009D01*
X134441072Y-88063557D01*
X134553054Y-87895963D01*
X134695963Y-87753054D01*
X134864007Y-87640771D01*
X134864009Y-87640770D01*
X135050728Y-87563428D01*
X135248947Y-87524000D01*
X135451053Y-87524000D01*
X135649272Y-87563428D01*
X135649272Y-87563428D01*
G37*
G36*
X134376000Y-83576000D02*
G01*
X132324000Y-83576000D01*
X132324000Y-81524000D01*
X134376000Y-81524000D01*
X134376000Y-83576000D01*
X134376000Y-83576000D01*
G37*
G36*
X157236000Y-83576000D02*
G01*
X155184000Y-83576000D01*
X155184000Y-81524000D01*
X157236000Y-81524000D01*
X157236000Y-83576000D01*
X157236000Y-83576000D01*
G37*
G36*
X121349272Y-81563428D02*
G01*
X121535991Y-81640770D01*
X121535993Y-81640771D01*
X121704037Y-81753054D01*
X121846946Y-81895963D01*
X121959229Y-82064007D01*
X121959230Y-82064009D01*
X122036572Y-82250728D01*
X122076000Y-82448947D01*
X122076000Y-82651053D01*
X122036572Y-82849272D01*
X121959230Y-83035991D01*
X121959229Y-83035993D01*
X121846946Y-83204037D01*
X121704037Y-83346946D01*
X121535993Y-83459229D01*
X121535992Y-83459230D01*
X121535991Y-83459230D01*
X121349272Y-83536572D01*
X121151053Y-83576000D01*
X120948947Y-83576000D01*
X120750728Y-83536572D01*
X120564009Y-83459230D01*
X120564008Y-83459230D01*
X120564007Y-83459229D01*
X120395963Y-83346946D01*
X120253054Y-83204037D01*
X120140771Y-83035993D01*
X120140770Y-83035991D01*
X120063428Y-82849272D01*
X120024000Y-82651053D01*
X120024000Y-82448947D01*
X120063428Y-82250728D01*
X120140770Y-82064009D01*
X120140771Y-82064007D01*
X120253054Y-81895963D01*
X120395963Y-81753054D01*
X120564007Y-81640771D01*
X120564009Y-81640770D01*
X120750728Y-81563428D01*
X120948947Y-81524000D01*
X121151053Y-81524000D01*
X121349272Y-81563428D01*
X121349272Y-81563428D01*
G37*
G36*
X144209272Y-81563428D02*
G01*
X144395991Y-81640770D01*
X144395993Y-81640771D01*
X144564037Y-81753054D01*
X144706946Y-81895963D01*
X144819229Y-82064007D01*
X144819230Y-82064009D01*
X144896572Y-82250728D01*
X144936000Y-82448947D01*
X144936000Y-82651053D01*
X144896572Y-82849272D01*
X144819230Y-83035991D01*
X144819229Y-83035993D01*
X144706946Y-83204037D01*
X144564037Y-83346946D01*
X144395993Y-83459229D01*
X144395992Y-83459230D01*
X144395991Y-83459230D01*
X144209272Y-83536572D01*
X144011053Y-83576000D01*
X143808947Y-83576000D01*
X143610728Y-83536572D01*
X143424009Y-83459230D01*
X143424008Y-83459230D01*
X143424007Y-83459229D01*
X143255963Y-83346946D01*
X143113054Y-83204037D01*
X143000771Y-83035993D01*
X143000770Y-83035991D01*
X142923428Y-82849272D01*
X142884000Y-82651053D01*
X142884000Y-82448947D01*
X142923428Y-82250728D01*
X143000770Y-82064009D01*
X143000771Y-82064007D01*
X143113054Y-81895963D01*
X143255963Y-81753054D01*
X143424007Y-81640771D01*
X143424009Y-81640770D01*
X143610728Y-81563428D01*
X143808947Y-81524000D01*
X144011053Y-81524000D01*
X144209272Y-81563428D01*
X144209272Y-81563428D01*
G37*
G36*
X109330442Y-75305518D02*
G01*
X109396627Y-75312037D01*
X109566466Y-75363557D01*
X109722991Y-75447222D01*
X109758729Y-75476552D01*
X109860186Y-75559814D01*
X109943448Y-75661271D01*
X109972778Y-75697009D01*
X110056443Y-75853534D01*
X110107963Y-76023373D01*
X110125359Y-76200000D01*
X110107963Y-76376627D01*
X110056443Y-76546466D01*
X109972778Y-76702991D01*
X109943448Y-76738729D01*
X109860186Y-76840186D01*
X109758729Y-76923448D01*
X109722991Y-76952778D01*
X109566466Y-77036443D01*
X109396627Y-77087963D01*
X109330442Y-77094482D01*
X109264260Y-77101000D01*
X109175740Y-77101000D01*
X109109558Y-77094482D01*
X109043373Y-77087963D01*
X108873534Y-77036443D01*
X108717009Y-76952778D01*
X108681271Y-76923448D01*
X108579814Y-76840186D01*
X108496552Y-76738729D01*
X108467222Y-76702991D01*
X108383557Y-76546466D01*
X108332037Y-76376627D01*
X108314641Y-76200000D01*
X108332037Y-76023373D01*
X108383557Y-75853534D01*
X108467222Y-75697009D01*
X108496552Y-75661271D01*
X108579814Y-75559814D01*
X108681271Y-75476552D01*
X108717009Y-75447222D01*
X108873534Y-75363557D01*
X109043373Y-75312037D01*
X109109558Y-75305518D01*
X109175740Y-75299000D01*
X109264260Y-75299000D01*
X109330442Y-75305518D01*
X109330442Y-75305518D01*
G37*
G36*
X114410442Y-75305518D02*
G01*
X114476627Y-75312037D01*
X114646466Y-75363557D01*
X114802991Y-75447222D01*
X114838729Y-75476552D01*
X114940186Y-75559814D01*
X115023448Y-75661271D01*
X115052778Y-75697009D01*
X115136443Y-75853534D01*
X115187963Y-76023373D01*
X115205359Y-76200000D01*
X115187963Y-76376627D01*
X115136443Y-76546466D01*
X115052778Y-76702991D01*
X115023448Y-76738729D01*
X114940186Y-76840186D01*
X114838729Y-76923448D01*
X114802991Y-76952778D01*
X114646466Y-77036443D01*
X114476627Y-77087963D01*
X114410442Y-77094482D01*
X114344260Y-77101000D01*
X114255740Y-77101000D01*
X114189558Y-77094482D01*
X114123373Y-77087963D01*
X113953534Y-77036443D01*
X113797009Y-76952778D01*
X113761271Y-76923448D01*
X113659814Y-76840186D01*
X113576552Y-76738729D01*
X113547222Y-76702991D01*
X113463557Y-76546466D01*
X113412037Y-76376627D01*
X113394641Y-76200000D01*
X113412037Y-76023373D01*
X113463557Y-75853534D01*
X113547222Y-75697009D01*
X113576552Y-75661271D01*
X113659814Y-75559814D01*
X113761271Y-75476552D01*
X113797009Y-75447222D01*
X113953534Y-75363557D01*
X114123373Y-75312037D01*
X114189558Y-75305518D01*
X114255740Y-75299000D01*
X114344260Y-75299000D01*
X114410442Y-75305518D01*
X114410442Y-75305518D01*
G37*
G36*
X104250442Y-75305518D02*
G01*
X104316627Y-75312037D01*
X104486466Y-75363557D01*
X104642991Y-75447222D01*
X104678729Y-75476552D01*
X104780186Y-75559814D01*
X104863448Y-75661271D01*
X104892778Y-75697009D01*
X104976443Y-75853534D01*
X105027963Y-76023373D01*
X105045359Y-76200000D01*
X105027963Y-76376627D01*
X104976443Y-76546466D01*
X104892778Y-76702991D01*
X104863448Y-76738729D01*
X104780186Y-76840186D01*
X104678729Y-76923448D01*
X104642991Y-76952778D01*
X104486466Y-77036443D01*
X104316627Y-77087963D01*
X104250442Y-77094482D01*
X104184260Y-77101000D01*
X104095740Y-77101000D01*
X104029558Y-77094482D01*
X103963373Y-77087963D01*
X103793534Y-77036443D01*
X103637009Y-76952778D01*
X103601271Y-76923448D01*
X103499814Y-76840186D01*
X103416552Y-76738729D01*
X103387222Y-76702991D01*
X103303557Y-76546466D01*
X103252037Y-76376627D01*
X103234641Y-76200000D01*
X103252037Y-76023373D01*
X103303557Y-75853534D01*
X103387222Y-75697009D01*
X103416552Y-75661271D01*
X103499814Y-75559814D01*
X103601271Y-75476552D01*
X103637009Y-75447222D01*
X103793534Y-75363557D01*
X103963373Y-75312037D01*
X104029558Y-75305518D01*
X104095740Y-75299000D01*
X104184260Y-75299000D01*
X104250442Y-75305518D01*
X104250442Y-75305518D01*
G37*
G36*
X119490442Y-75305518D02*
G01*
X119556627Y-75312037D01*
X119726466Y-75363557D01*
X119882991Y-75447222D01*
X119918729Y-75476552D01*
X120020186Y-75559814D01*
X120103448Y-75661271D01*
X120132778Y-75697009D01*
X120216443Y-75853534D01*
X120267963Y-76023373D01*
X120285359Y-76200000D01*
X120267963Y-76376627D01*
X120216443Y-76546466D01*
X120132778Y-76702991D01*
X120103448Y-76738729D01*
X120020186Y-76840186D01*
X119918729Y-76923448D01*
X119882991Y-76952778D01*
X119726466Y-77036443D01*
X119556627Y-77087963D01*
X119490442Y-77094482D01*
X119424260Y-77101000D01*
X119335740Y-77101000D01*
X119269558Y-77094482D01*
X119203373Y-77087963D01*
X119033534Y-77036443D01*
X118877009Y-76952778D01*
X118841271Y-76923448D01*
X118739814Y-76840186D01*
X118656552Y-76738729D01*
X118627222Y-76702991D01*
X118543557Y-76546466D01*
X118492037Y-76376627D01*
X118474641Y-76200000D01*
X118492037Y-76023373D01*
X118543557Y-75853534D01*
X118627222Y-75697009D01*
X118656552Y-75661271D01*
X118739814Y-75559814D01*
X118841271Y-75476552D01*
X118877009Y-75447222D01*
X119033534Y-75363557D01*
X119203373Y-75312037D01*
X119269558Y-75305518D01*
X119335740Y-75299000D01*
X119424260Y-75299000D01*
X119490442Y-75305518D01*
X119490442Y-75305518D01*
G37*
G36*
X99170442Y-75305518D02*
G01*
X99236627Y-75312037D01*
X99406466Y-75363557D01*
X99562991Y-75447222D01*
X99598729Y-75476552D01*
X99700186Y-75559814D01*
X99783448Y-75661271D01*
X99812778Y-75697009D01*
X99896443Y-75853534D01*
X99947963Y-76023373D01*
X99965359Y-76200000D01*
X99947963Y-76376627D01*
X99896443Y-76546466D01*
X99812778Y-76702991D01*
X99783448Y-76738729D01*
X99700186Y-76840186D01*
X99598729Y-76923448D01*
X99562991Y-76952778D01*
X99406466Y-77036443D01*
X99236627Y-77087963D01*
X99170442Y-77094482D01*
X99104260Y-77101000D01*
X99015740Y-77101000D01*
X98949558Y-77094482D01*
X98883373Y-77087963D01*
X98713534Y-77036443D01*
X98557009Y-76952778D01*
X98521271Y-76923448D01*
X98419814Y-76840186D01*
X98336552Y-76738729D01*
X98307222Y-76702991D01*
X98223557Y-76546466D01*
X98172037Y-76376627D01*
X98154641Y-76200000D01*
X98172037Y-76023373D01*
X98223557Y-75853534D01*
X98307222Y-75697009D01*
X98336552Y-75661271D01*
X98419814Y-75559814D01*
X98521271Y-75476552D01*
X98557009Y-75447222D01*
X98713534Y-75363557D01*
X98883373Y-75312037D01*
X98949558Y-75305518D01*
X99015740Y-75299000D01*
X99104260Y-75299000D01*
X99170442Y-75305518D01*
X99170442Y-75305518D01*
G37*
G36*
X99170442Y-72765518D02*
G01*
X99236627Y-72772037D01*
X99406466Y-72823557D01*
X99562991Y-72907222D01*
X99598729Y-72936552D01*
X99700186Y-73019814D01*
X99783448Y-73121271D01*
X99812778Y-73157009D01*
X99896443Y-73313534D01*
X99947963Y-73483373D01*
X99965359Y-73660000D01*
X99947963Y-73836627D01*
X99896443Y-74006466D01*
X99812778Y-74162991D01*
X99783448Y-74198729D01*
X99700186Y-74300186D01*
X99598729Y-74383448D01*
X99562991Y-74412778D01*
X99406466Y-74496443D01*
X99236627Y-74547963D01*
X99170442Y-74554482D01*
X99104260Y-74561000D01*
X99015740Y-74561000D01*
X98949558Y-74554482D01*
X98883373Y-74547963D01*
X98713534Y-74496443D01*
X98557009Y-74412778D01*
X98521271Y-74383448D01*
X98419814Y-74300186D01*
X98336552Y-74198729D01*
X98307222Y-74162991D01*
X98223557Y-74006466D01*
X98172037Y-73836627D01*
X98154641Y-73660000D01*
X98172037Y-73483373D01*
X98223557Y-73313534D01*
X98307222Y-73157009D01*
X98336552Y-73121271D01*
X98419814Y-73019814D01*
X98521271Y-72936552D01*
X98557009Y-72907222D01*
X98713534Y-72823557D01*
X98883373Y-72772037D01*
X98949558Y-72765518D01*
X99015740Y-72759000D01*
X99104260Y-72759000D01*
X99170442Y-72765518D01*
X99170442Y-72765518D01*
G37*
G36*
X104250442Y-72765518D02*
G01*
X104316627Y-72772037D01*
X104486466Y-72823557D01*
X104642991Y-72907222D01*
X104678729Y-72936552D01*
X104780186Y-73019814D01*
X104863448Y-73121271D01*
X104892778Y-73157009D01*
X104976443Y-73313534D01*
X105027963Y-73483373D01*
X105045359Y-73660000D01*
X105027963Y-73836627D01*
X104976443Y-74006466D01*
X104892778Y-74162991D01*
X104863448Y-74198729D01*
X104780186Y-74300186D01*
X104678729Y-74383448D01*
X104642991Y-74412778D01*
X104486466Y-74496443D01*
X104316627Y-74547963D01*
X104250442Y-74554482D01*
X104184260Y-74561000D01*
X104095740Y-74561000D01*
X104029558Y-74554482D01*
X103963373Y-74547963D01*
X103793534Y-74496443D01*
X103637009Y-74412778D01*
X103601271Y-74383448D01*
X103499814Y-74300186D01*
X103416552Y-74198729D01*
X103387222Y-74162991D01*
X103303557Y-74006466D01*
X103252037Y-73836627D01*
X103234641Y-73660000D01*
X103252037Y-73483373D01*
X103303557Y-73313534D01*
X103387222Y-73157009D01*
X103416552Y-73121271D01*
X103499814Y-73019814D01*
X103601271Y-72936552D01*
X103637009Y-72907222D01*
X103793534Y-72823557D01*
X103963373Y-72772037D01*
X104029558Y-72765518D01*
X104095740Y-72759000D01*
X104184260Y-72759000D01*
X104250442Y-72765518D01*
X104250442Y-72765518D01*
G37*
G36*
X109330442Y-72765518D02*
G01*
X109396627Y-72772037D01*
X109566466Y-72823557D01*
X109722991Y-72907222D01*
X109758729Y-72936552D01*
X109860186Y-73019814D01*
X109943448Y-73121271D01*
X109972778Y-73157009D01*
X110056443Y-73313534D01*
X110107963Y-73483373D01*
X110125359Y-73660000D01*
X110107963Y-73836627D01*
X110056443Y-74006466D01*
X109972778Y-74162991D01*
X109943448Y-74198729D01*
X109860186Y-74300186D01*
X109758729Y-74383448D01*
X109722991Y-74412778D01*
X109566466Y-74496443D01*
X109396627Y-74547963D01*
X109330442Y-74554482D01*
X109264260Y-74561000D01*
X109175740Y-74561000D01*
X109109558Y-74554482D01*
X109043373Y-74547963D01*
X108873534Y-74496443D01*
X108717009Y-74412778D01*
X108681271Y-74383448D01*
X108579814Y-74300186D01*
X108496552Y-74198729D01*
X108467222Y-74162991D01*
X108383557Y-74006466D01*
X108332037Y-73836627D01*
X108314641Y-73660000D01*
X108332037Y-73483373D01*
X108383557Y-73313534D01*
X108467222Y-73157009D01*
X108496552Y-73121271D01*
X108579814Y-73019814D01*
X108681271Y-72936552D01*
X108717009Y-72907222D01*
X108873534Y-72823557D01*
X109043373Y-72772037D01*
X109109558Y-72765518D01*
X109175740Y-72759000D01*
X109264260Y-72759000D01*
X109330442Y-72765518D01*
X109330442Y-72765518D01*
G37*
G36*
X119490442Y-72765518D02*
G01*
X119556627Y-72772037D01*
X119726466Y-72823557D01*
X119882991Y-72907222D01*
X119918729Y-72936552D01*
X120020186Y-73019814D01*
X120103448Y-73121271D01*
X120132778Y-73157009D01*
X120216443Y-73313534D01*
X120267963Y-73483373D01*
X120285359Y-73660000D01*
X120267963Y-73836627D01*
X120216443Y-74006466D01*
X120132778Y-74162991D01*
X120103448Y-74198729D01*
X120020186Y-74300186D01*
X119918729Y-74383448D01*
X119882991Y-74412778D01*
X119726466Y-74496443D01*
X119556627Y-74547963D01*
X119490442Y-74554482D01*
X119424260Y-74561000D01*
X119335740Y-74561000D01*
X119269558Y-74554482D01*
X119203373Y-74547963D01*
X119033534Y-74496443D01*
X118877009Y-74412778D01*
X118841271Y-74383448D01*
X118739814Y-74300186D01*
X118656552Y-74198729D01*
X118627222Y-74162991D01*
X118543557Y-74006466D01*
X118492037Y-73836627D01*
X118474641Y-73660000D01*
X118492037Y-73483373D01*
X118543557Y-73313534D01*
X118627222Y-73157009D01*
X118656552Y-73121271D01*
X118739814Y-73019814D01*
X118841271Y-72936552D01*
X118877009Y-72907222D01*
X119033534Y-72823557D01*
X119203373Y-72772037D01*
X119269558Y-72765518D01*
X119335740Y-72759000D01*
X119424260Y-72759000D01*
X119490442Y-72765518D01*
X119490442Y-72765518D01*
G37*
G36*
X114410442Y-72765518D02*
G01*
X114476627Y-72772037D01*
X114646466Y-72823557D01*
X114802991Y-72907222D01*
X114838729Y-72936552D01*
X114940186Y-73019814D01*
X115023448Y-73121271D01*
X115052778Y-73157009D01*
X115136443Y-73313534D01*
X115187963Y-73483373D01*
X115205359Y-73660000D01*
X115187963Y-73836627D01*
X115136443Y-74006466D01*
X115052778Y-74162991D01*
X115023448Y-74198729D01*
X114940186Y-74300186D01*
X114838729Y-74383448D01*
X114802991Y-74412778D01*
X114646466Y-74496443D01*
X114476627Y-74547963D01*
X114410442Y-74554482D01*
X114344260Y-74561000D01*
X114255740Y-74561000D01*
X114189558Y-74554482D01*
X114123373Y-74547963D01*
X113953534Y-74496443D01*
X113797009Y-74412778D01*
X113761271Y-74383448D01*
X113659814Y-74300186D01*
X113576552Y-74198729D01*
X113547222Y-74162991D01*
X113463557Y-74006466D01*
X113412037Y-73836627D01*
X113394641Y-73660000D01*
X113412037Y-73483373D01*
X113463557Y-73313534D01*
X113547222Y-73157009D01*
X113576552Y-73121271D01*
X113659814Y-73019814D01*
X113761271Y-72936552D01*
X113797009Y-72907222D01*
X113953534Y-72823557D01*
X114123373Y-72772037D01*
X114189558Y-72765518D01*
X114255740Y-72759000D01*
X114344260Y-72759000D01*
X114410442Y-72765518D01*
X114410442Y-72765518D01*
G37*
G36*
X99961000Y-72021000D02*
G01*
X98159000Y-72021000D01*
X98159000Y-70219000D01*
X99961000Y-70219000D01*
X99961000Y-72021000D01*
X99961000Y-72021000D01*
G37*
G36*
X120281000Y-72021000D02*
G01*
X118479000Y-72021000D01*
X118479000Y-70219000D01*
X120281000Y-70219000D01*
X120281000Y-72021000D01*
X120281000Y-72021000D01*
G37*
G36*
X115201000Y-72021000D02*
G01*
X113399000Y-72021000D01*
X113399000Y-70219000D01*
X115201000Y-70219000D01*
X115201000Y-72021000D01*
X115201000Y-72021000D01*
G37*
G36*
X110121000Y-72021000D02*
G01*
X108319000Y-72021000D01*
X108319000Y-70219000D01*
X110121000Y-70219000D01*
X110121000Y-72021000D01*
X110121000Y-72021000D01*
G37*
G36*
X105041000Y-72021000D02*
G01*
X103239000Y-72021000D01*
X103239000Y-70219000D01*
X105041000Y-70219000D01*
X105041000Y-72021000D01*
X105041000Y-72021000D01*
G37*
G36*
X157706823Y-69721313D02*
G01*
X157867242Y-69769976D01*
X157999906Y-69840886D01*
X158015078Y-69848996D01*
X158144659Y-69955341D01*
X158251004Y-70084922D01*
X158251005Y-70084924D01*
X158330024Y-70232758D01*
X158378687Y-70393177D01*
X158395117Y-70560000D01*
X158378687Y-70726823D01*
X158330024Y-70887242D01*
X158259114Y-71019906D01*
X158251004Y-71035078D01*
X158144659Y-71164659D01*
X158015078Y-71271004D01*
X158015076Y-71271005D01*
X157867242Y-71350024D01*
X157706823Y-71398687D01*
X157581804Y-71411000D01*
X157498196Y-71411000D01*
X157373177Y-71398687D01*
X157212758Y-71350024D01*
X157064924Y-71271005D01*
X157064922Y-71271004D01*
X156935341Y-71164659D01*
X156828996Y-71035078D01*
X156820886Y-71019906D01*
X156749976Y-70887242D01*
X156701313Y-70726823D01*
X156684883Y-70560000D01*
X156701313Y-70393177D01*
X156749976Y-70232758D01*
X156828995Y-70084924D01*
X156828996Y-70084922D01*
X156935341Y-69955341D01*
X157064922Y-69848996D01*
X157080094Y-69840886D01*
X157212758Y-69769976D01*
X157373177Y-69721313D01*
X157498196Y-69709000D01*
X157581804Y-69709000D01*
X157706823Y-69721313D01*
X157706823Y-69721313D01*
G37*
G36*
X155166823Y-69721313D02*
G01*
X155327242Y-69769976D01*
X155459906Y-69840886D01*
X155475078Y-69848996D01*
X155604659Y-69955341D01*
X155711004Y-70084922D01*
X155711005Y-70084924D01*
X155790024Y-70232758D01*
X155838687Y-70393177D01*
X155855117Y-70560000D01*
X155838687Y-70726823D01*
X155790024Y-70887242D01*
X155719114Y-71019906D01*
X155711004Y-71035078D01*
X155604659Y-71164659D01*
X155475078Y-71271004D01*
X155475076Y-71271005D01*
X155327242Y-71350024D01*
X155166823Y-71398687D01*
X155041804Y-71411000D01*
X154958196Y-71411000D01*
X154833177Y-71398687D01*
X154672758Y-71350024D01*
X154524924Y-71271005D01*
X154524922Y-71271004D01*
X154395341Y-71164659D01*
X154288996Y-71035078D01*
X154280886Y-71019906D01*
X154209976Y-70887242D01*
X154161313Y-70726823D01*
X154144883Y-70560000D01*
X154161313Y-70393177D01*
X154209976Y-70232758D01*
X154288995Y-70084924D01*
X154288996Y-70084922D01*
X154395341Y-69955341D01*
X154524922Y-69848996D01*
X154540094Y-69840886D01*
X154672758Y-69769976D01*
X154833177Y-69721313D01*
X154958196Y-69709000D01*
X155041804Y-69709000D01*
X155166823Y-69721313D01*
X155166823Y-69721313D01*
G37*
G36*
X152626823Y-69721313D02*
G01*
X152787242Y-69769976D01*
X152919906Y-69840886D01*
X152935078Y-69848996D01*
X153064659Y-69955341D01*
X153171004Y-70084922D01*
X153171005Y-70084924D01*
X153250024Y-70232758D01*
X153298687Y-70393177D01*
X153315117Y-70560000D01*
X153298687Y-70726823D01*
X153250024Y-70887242D01*
X153179114Y-71019906D01*
X153171004Y-71035078D01*
X153064659Y-71164659D01*
X152935078Y-71271004D01*
X152935076Y-71271005D01*
X152787242Y-71350024D01*
X152626823Y-71398687D01*
X152501804Y-71411000D01*
X152418196Y-71411000D01*
X152293177Y-71398687D01*
X152132758Y-71350024D01*
X151984924Y-71271005D01*
X151984922Y-71271004D01*
X151855341Y-71164659D01*
X151748996Y-71035078D01*
X151740886Y-71019906D01*
X151669976Y-70887242D01*
X151621313Y-70726823D01*
X151604883Y-70560000D01*
X151621313Y-70393177D01*
X151669976Y-70232758D01*
X151748995Y-70084924D01*
X151748996Y-70084922D01*
X151855341Y-69955341D01*
X151984922Y-69848996D01*
X152000094Y-69840886D01*
X152132758Y-69769976D01*
X152293177Y-69721313D01*
X152418196Y-69709000D01*
X152501804Y-69709000D01*
X152626823Y-69721313D01*
X152626823Y-69721313D01*
G37*
G36*
X150086823Y-69721313D02*
G01*
X150247242Y-69769976D01*
X150379906Y-69840886D01*
X150395078Y-69848996D01*
X150524659Y-69955341D01*
X150631004Y-70084922D01*
X150631005Y-70084924D01*
X150710024Y-70232758D01*
X150758687Y-70393177D01*
X150775117Y-70560000D01*
X150758687Y-70726823D01*
X150710024Y-70887242D01*
X150639114Y-71019906D01*
X150631004Y-71035078D01*
X150524659Y-71164659D01*
X150395078Y-71271004D01*
X150395076Y-71271005D01*
X150247242Y-71350024D01*
X150086823Y-71398687D01*
X149961804Y-71411000D01*
X149878196Y-71411000D01*
X149753177Y-71398687D01*
X149592758Y-71350024D01*
X149444924Y-71271005D01*
X149444922Y-71271004D01*
X149315341Y-71164659D01*
X149208996Y-71035078D01*
X149200886Y-71019906D01*
X149129976Y-70887242D01*
X149081313Y-70726823D01*
X149064883Y-70560000D01*
X149081313Y-70393177D01*
X149129976Y-70232758D01*
X149208995Y-70084924D01*
X149208996Y-70084922D01*
X149315341Y-69955341D01*
X149444922Y-69848996D01*
X149460094Y-69840886D01*
X149592758Y-69769976D01*
X149753177Y-69721313D01*
X149878196Y-69709000D01*
X149961804Y-69709000D01*
X150086823Y-69721313D01*
X150086823Y-69721313D01*
G37*
G36*
X160246823Y-69721313D02*
G01*
X160407242Y-69769976D01*
X160539906Y-69840886D01*
X160555078Y-69848996D01*
X160684659Y-69955341D01*
X160791004Y-70084922D01*
X160791005Y-70084924D01*
X160870024Y-70232758D01*
X160918687Y-70393177D01*
X160935117Y-70560000D01*
X160918687Y-70726823D01*
X160870024Y-70887242D01*
X160799114Y-71019906D01*
X160791004Y-71035078D01*
X160684659Y-71164659D01*
X160555078Y-71271004D01*
X160555076Y-71271005D01*
X160407242Y-71350024D01*
X160246823Y-71398687D01*
X160121804Y-71411000D01*
X160038196Y-71411000D01*
X159913177Y-71398687D01*
X159752758Y-71350024D01*
X159604924Y-71271005D01*
X159604922Y-71271004D01*
X159475341Y-71164659D01*
X159368996Y-71035078D01*
X159360886Y-71019906D01*
X159289976Y-70887242D01*
X159241313Y-70726823D01*
X159224883Y-70560000D01*
X159241313Y-70393177D01*
X159289976Y-70232758D01*
X159368995Y-70084924D01*
X159368996Y-70084922D01*
X159475341Y-69955341D01*
X159604922Y-69848996D01*
X159620094Y-69840886D01*
X159752758Y-69769976D01*
X159913177Y-69721313D01*
X160038196Y-69709000D01*
X160121804Y-69709000D01*
X160246823Y-69721313D01*
X160246823Y-69721313D01*
G37*
G36*
X142466823Y-69721313D02*
G01*
X142627242Y-69769976D01*
X142759906Y-69840886D01*
X142775078Y-69848996D01*
X142904659Y-69955341D01*
X143011004Y-70084922D01*
X143011005Y-70084924D01*
X143090024Y-70232758D01*
X143138687Y-70393177D01*
X143155117Y-70560000D01*
X143138687Y-70726823D01*
X143090024Y-70887242D01*
X143019114Y-71019906D01*
X143011004Y-71035078D01*
X142904659Y-71164659D01*
X142775078Y-71271004D01*
X142775076Y-71271005D01*
X142627242Y-71350024D01*
X142466823Y-71398687D01*
X142341804Y-71411000D01*
X142258196Y-71411000D01*
X142133177Y-71398687D01*
X141972758Y-71350024D01*
X141824924Y-71271005D01*
X141824922Y-71271004D01*
X141695341Y-71164659D01*
X141588996Y-71035078D01*
X141580886Y-71019906D01*
X141509976Y-70887242D01*
X141461313Y-70726823D01*
X141444883Y-70560000D01*
X141461313Y-70393177D01*
X141509976Y-70232758D01*
X141588995Y-70084924D01*
X141588996Y-70084922D01*
X141695341Y-69955341D01*
X141824922Y-69848996D01*
X141840094Y-69840886D01*
X141972758Y-69769976D01*
X142133177Y-69721313D01*
X142258196Y-69709000D01*
X142341804Y-69709000D01*
X142466823Y-69721313D01*
X142466823Y-69721313D01*
G37*
G36*
X139926823Y-69721313D02*
G01*
X140087242Y-69769976D01*
X140219906Y-69840886D01*
X140235078Y-69848996D01*
X140364659Y-69955341D01*
X140471004Y-70084922D01*
X140471005Y-70084924D01*
X140550024Y-70232758D01*
X140598687Y-70393177D01*
X140615117Y-70560000D01*
X140598687Y-70726823D01*
X140550024Y-70887242D01*
X140479114Y-71019906D01*
X140471004Y-71035078D01*
X140364659Y-71164659D01*
X140235078Y-71271004D01*
X140235076Y-71271005D01*
X140087242Y-71350024D01*
X139926823Y-71398687D01*
X139801804Y-71411000D01*
X139718196Y-71411000D01*
X139593177Y-71398687D01*
X139432758Y-71350024D01*
X139284924Y-71271005D01*
X139284922Y-71271004D01*
X139155341Y-71164659D01*
X139048996Y-71035078D01*
X139040886Y-71019906D01*
X138969976Y-70887242D01*
X138921313Y-70726823D01*
X138904883Y-70560000D01*
X138921313Y-70393177D01*
X138969976Y-70232758D01*
X139048995Y-70084924D01*
X139048996Y-70084922D01*
X139155341Y-69955341D01*
X139284922Y-69848996D01*
X139300094Y-69840886D01*
X139432758Y-69769976D01*
X139593177Y-69721313D01*
X139718196Y-69709000D01*
X139801804Y-69709000D01*
X139926823Y-69721313D01*
X139926823Y-69721313D01*
G37*
G36*
X137386823Y-69721313D02*
G01*
X137547242Y-69769976D01*
X137679906Y-69840886D01*
X137695078Y-69848996D01*
X137824659Y-69955341D01*
X137931004Y-70084922D01*
X137931005Y-70084924D01*
X138010024Y-70232758D01*
X138058687Y-70393177D01*
X138075117Y-70560000D01*
X138058687Y-70726823D01*
X138010024Y-70887242D01*
X137939114Y-71019906D01*
X137931004Y-71035078D01*
X137824659Y-71164659D01*
X137695078Y-71271004D01*
X137695076Y-71271005D01*
X137547242Y-71350024D01*
X137386823Y-71398687D01*
X137261804Y-71411000D01*
X137178196Y-71411000D01*
X137053177Y-71398687D01*
X136892758Y-71350024D01*
X136744924Y-71271005D01*
X136744922Y-71271004D01*
X136615341Y-71164659D01*
X136508996Y-71035078D01*
X136500886Y-71019906D01*
X136429976Y-70887242D01*
X136381313Y-70726823D01*
X136364883Y-70560000D01*
X136381313Y-70393177D01*
X136429976Y-70232758D01*
X136508995Y-70084924D01*
X136508996Y-70084922D01*
X136615341Y-69955341D01*
X136744922Y-69848996D01*
X136760094Y-69840886D01*
X136892758Y-69769976D01*
X137053177Y-69721313D01*
X137178196Y-69709000D01*
X137261804Y-69709000D01*
X137386823Y-69721313D01*
X137386823Y-69721313D01*
G37*
G36*
X134846823Y-69721313D02*
G01*
X135007242Y-69769976D01*
X135139906Y-69840886D01*
X135155078Y-69848996D01*
X135284659Y-69955341D01*
X135391004Y-70084922D01*
X135391005Y-70084924D01*
X135470024Y-70232758D01*
X135518687Y-70393177D01*
X135535117Y-70560000D01*
X135518687Y-70726823D01*
X135470024Y-70887242D01*
X135399114Y-71019906D01*
X135391004Y-71035078D01*
X135284659Y-71164659D01*
X135155078Y-71271004D01*
X135155076Y-71271005D01*
X135007242Y-71350024D01*
X134846823Y-71398687D01*
X134721804Y-71411000D01*
X134638196Y-71411000D01*
X134513177Y-71398687D01*
X134352758Y-71350024D01*
X134204924Y-71271005D01*
X134204922Y-71271004D01*
X134075341Y-71164659D01*
X133968996Y-71035078D01*
X133960886Y-71019906D01*
X133889976Y-70887242D01*
X133841313Y-70726823D01*
X133824883Y-70560000D01*
X133841313Y-70393177D01*
X133889976Y-70232758D01*
X133968995Y-70084924D01*
X133968996Y-70084922D01*
X134075341Y-69955341D01*
X134204922Y-69848996D01*
X134220094Y-69840886D01*
X134352758Y-69769976D01*
X134513177Y-69721313D01*
X134638196Y-69709000D01*
X134721804Y-69709000D01*
X134846823Y-69721313D01*
X134846823Y-69721313D01*
G37*
G36*
X132306823Y-69721313D02*
G01*
X132467242Y-69769976D01*
X132599906Y-69840886D01*
X132615078Y-69848996D01*
X132744659Y-69955341D01*
X132851004Y-70084922D01*
X132851005Y-70084924D01*
X132930024Y-70232758D01*
X132978687Y-70393177D01*
X132995117Y-70560000D01*
X132978687Y-70726823D01*
X132930024Y-70887242D01*
X132859114Y-71019906D01*
X132851004Y-71035078D01*
X132744659Y-71164659D01*
X132615078Y-71271004D01*
X132615076Y-71271005D01*
X132467242Y-71350024D01*
X132306823Y-71398687D01*
X132181804Y-71411000D01*
X132098196Y-71411000D01*
X131973177Y-71398687D01*
X131812758Y-71350024D01*
X131664924Y-71271005D01*
X131664922Y-71271004D01*
X131535341Y-71164659D01*
X131428996Y-71035078D01*
X131420886Y-71019906D01*
X131349976Y-70887242D01*
X131301313Y-70726823D01*
X131284883Y-70560000D01*
X131301313Y-70393177D01*
X131349976Y-70232758D01*
X131428995Y-70084924D01*
X131428996Y-70084922D01*
X131535341Y-69955341D01*
X131664922Y-69848996D01*
X131680094Y-69840886D01*
X131812758Y-69769976D01*
X131973177Y-69721313D01*
X132098196Y-69709000D01*
X132181804Y-69709000D01*
X132306823Y-69721313D01*
X132306823Y-69721313D01*
G37*
G36*
X129766823Y-69721313D02*
G01*
X129927242Y-69769976D01*
X130059906Y-69840886D01*
X130075078Y-69848996D01*
X130204659Y-69955341D01*
X130311004Y-70084922D01*
X130311005Y-70084924D01*
X130390024Y-70232758D01*
X130438687Y-70393177D01*
X130455117Y-70560000D01*
X130438687Y-70726823D01*
X130390024Y-70887242D01*
X130319114Y-71019906D01*
X130311004Y-71035078D01*
X130204659Y-71164659D01*
X130075078Y-71271004D01*
X130075076Y-71271005D01*
X129927242Y-71350024D01*
X129766823Y-71398687D01*
X129641804Y-71411000D01*
X129558196Y-71411000D01*
X129433177Y-71398687D01*
X129272758Y-71350024D01*
X129124924Y-71271005D01*
X129124922Y-71271004D01*
X128995341Y-71164659D01*
X128888996Y-71035078D01*
X128880886Y-71019906D01*
X128809976Y-70887242D01*
X128761313Y-70726823D01*
X128744883Y-70560000D01*
X128761313Y-70393177D01*
X128809976Y-70232758D01*
X128888995Y-70084924D01*
X128888996Y-70084922D01*
X128995341Y-69955341D01*
X129124922Y-69848996D01*
X129140094Y-69840886D01*
X129272758Y-69769976D01*
X129433177Y-69721313D01*
X129558196Y-69709000D01*
X129641804Y-69709000D01*
X129766823Y-69721313D01*
X129766823Y-69721313D01*
G37*
G36*
X147546823Y-69721313D02*
G01*
X147707242Y-69769976D01*
X147839906Y-69840886D01*
X147855078Y-69848996D01*
X147984659Y-69955341D01*
X148091004Y-70084922D01*
X148091005Y-70084924D01*
X148170024Y-70232758D01*
X148218687Y-70393177D01*
X148235117Y-70560000D01*
X148218687Y-70726823D01*
X148170024Y-70887242D01*
X148099114Y-71019906D01*
X148091004Y-71035078D01*
X147984659Y-71164659D01*
X147855078Y-71271004D01*
X147855076Y-71271005D01*
X147707242Y-71350024D01*
X147546823Y-71398687D01*
X147421804Y-71411000D01*
X147338196Y-71411000D01*
X147213177Y-71398687D01*
X147052758Y-71350024D01*
X146904924Y-71271005D01*
X146904922Y-71271004D01*
X146775341Y-71164659D01*
X146668996Y-71035078D01*
X146660886Y-71019906D01*
X146589976Y-70887242D01*
X146541313Y-70726823D01*
X146524883Y-70560000D01*
X146541313Y-70393177D01*
X146589976Y-70232758D01*
X146668995Y-70084924D01*
X146668996Y-70084922D01*
X146775341Y-69955341D01*
X146904922Y-69848996D01*
X146920094Y-69840886D01*
X147052758Y-69769976D01*
X147213177Y-69721313D01*
X147338196Y-69709000D01*
X147421804Y-69709000D01*
X147546823Y-69721313D01*
X147546823Y-69721313D01*
G37*
G36*
X127226823Y-69721313D02*
G01*
X127387242Y-69769976D01*
X127519906Y-69840886D01*
X127535078Y-69848996D01*
X127664659Y-69955341D01*
X127771004Y-70084922D01*
X127771005Y-70084924D01*
X127850024Y-70232758D01*
X127898687Y-70393177D01*
X127915117Y-70560000D01*
X127898687Y-70726823D01*
X127850024Y-70887242D01*
X127779114Y-71019906D01*
X127771004Y-71035078D01*
X127664659Y-71164659D01*
X127535078Y-71271004D01*
X127535076Y-71271005D01*
X127387242Y-71350024D01*
X127226823Y-71398687D01*
X127101804Y-71411000D01*
X127018196Y-71411000D01*
X126893177Y-71398687D01*
X126732758Y-71350024D01*
X126584924Y-71271005D01*
X126584922Y-71271004D01*
X126455341Y-71164659D01*
X126348996Y-71035078D01*
X126340886Y-71019906D01*
X126269976Y-70887242D01*
X126221313Y-70726823D01*
X126204883Y-70560000D01*
X126221313Y-70393177D01*
X126269976Y-70232758D01*
X126348995Y-70084924D01*
X126348996Y-70084922D01*
X126455341Y-69955341D01*
X126584922Y-69848996D01*
X126600094Y-69840886D01*
X126732758Y-69769976D01*
X126893177Y-69721313D01*
X127018196Y-69709000D01*
X127101804Y-69709000D01*
X127226823Y-69721313D01*
X127226823Y-69721313D01*
G37*
G36*
X125371000Y-71411000D02*
G01*
X123669000Y-71411000D01*
X123669000Y-69709000D01*
X125371000Y-69709000D01*
X125371000Y-71411000D01*
X125371000Y-71411000D01*
G37*
M02*
