G04 #@! TF.GenerationSoftware,KiCad,Pcbnew,(5.1.2)-1*
G04 #@! TF.CreationDate,2020-05-26T19:14:15-07:00*
G04 #@! TF.ProjectId,MushAuto_UnoShield,4d757368-4175-4746-9f5f-556e6f536869,rev?*
G04 #@! TF.SameCoordinates,Original*
G04 #@! TF.FileFunction,Copper,L2,Bot*
G04 #@! TF.FilePolarity,Positive*
%FSLAX46Y46*%
G04 Gerber Fmt 4.6, Leading zero omitted, Abs format (unit mm)*
G04 Created by KiCad (PCBNEW (5.1.2)-1) date 2020-05-26 19:14:15*
%MOMM*%
%LPD*%
G04 APERTURE LIST*
%ADD10O,1.600000X1.600000*%
%ADD11R,1.600000X1.600000*%
%ADD12C,1.950000*%
%ADD13R,1.950000X1.950000*%
%ADD14O,1.700000X1.700000*%
%ADD15R,1.700000X1.700000*%
%ADD16C,0.800000*%
%ADD17C,0.250000*%
%ADD18C,0.254000*%
G04 APERTURE END LIST*
D10*
X115380000Y-118820000D03*
X117920000Y-118820000D03*
D11*
X124520000Y-70560000D03*
D10*
X155000000Y-118820000D03*
X127060000Y-70560000D03*
X152460000Y-118820000D03*
X129600000Y-70560000D03*
X149920000Y-118820000D03*
X132140000Y-70560000D03*
X147380000Y-118820000D03*
X134680000Y-70560000D03*
X144840000Y-118820000D03*
X137220000Y-70560000D03*
X142300000Y-118820000D03*
X139760000Y-70560000D03*
X138240000Y-118820000D03*
X142300000Y-70560000D03*
X135700000Y-118820000D03*
X147380000Y-70560000D03*
X133160000Y-118820000D03*
X149920000Y-70560000D03*
X130620000Y-118820000D03*
X152460000Y-70560000D03*
X128080000Y-118820000D03*
X155000000Y-70560000D03*
X125540000Y-118820000D03*
X157540000Y-70560000D03*
X123000000Y-118820000D03*
X160080000Y-70560000D03*
X120460000Y-118820000D03*
X160080000Y-118820000D03*
X157540000Y-118820000D03*
D12*
X158210000Y-107600000D03*
X156210000Y-113600000D03*
X143910000Y-113600000D03*
X143910000Y-101600000D03*
D13*
X156210000Y-101600000D03*
D12*
X158210000Y-88550000D03*
X156210000Y-94550000D03*
X143910000Y-94550000D03*
X143910000Y-82550000D03*
D13*
X156210000Y-82550000D03*
D14*
X99060000Y-109220000D03*
D15*
X101600000Y-109220000D03*
D14*
X119380000Y-76200000D03*
X119380000Y-73660000D03*
D15*
X119380000Y-71120000D03*
D12*
X135350000Y-88550000D03*
X133350000Y-94550000D03*
X121050000Y-94550000D03*
X121050000Y-82550000D03*
D13*
X133350000Y-82550000D03*
D12*
X135350000Y-107600000D03*
X133350000Y-113600000D03*
X121050000Y-113600000D03*
X121050000Y-101600000D03*
D13*
X133350000Y-101600000D03*
D15*
X111760000Y-118110000D03*
D14*
X111760000Y-115570000D03*
X99060000Y-76200000D03*
X99060000Y-73660000D03*
D15*
X99060000Y-71120000D03*
D14*
X104140000Y-76200000D03*
X104140000Y-73660000D03*
D15*
X104140000Y-71120000D03*
D14*
X109220000Y-76200000D03*
X109220000Y-73660000D03*
D15*
X109220000Y-71120000D03*
D14*
X114300000Y-76200000D03*
X114300000Y-73660000D03*
D15*
X114300000Y-71120000D03*
D14*
X99060000Y-88900000D03*
D15*
X101600000Y-88900000D03*
D14*
X99060000Y-99060000D03*
D15*
X101600000Y-99060000D03*
D14*
X99060000Y-104140000D03*
D15*
X101600000Y-104140000D03*
D14*
X99060000Y-93980000D03*
D15*
X101600000Y-93980000D03*
D14*
X99060000Y-115570000D03*
D15*
X99060000Y-118110000D03*
X105410000Y-118110000D03*
D14*
X105410000Y-115570000D03*
D16*
X100325735Y-92705735D03*
X102870000Y-106680000D03*
X106680000Y-110490000D03*
D17*
X97949999Y-119285001D02*
X97339990Y-118674992D01*
X105410000Y-115570000D02*
X101694999Y-119285001D01*
X101694999Y-119285001D02*
X97949999Y-119285001D01*
X97339990Y-95700010D02*
X99060000Y-93980000D01*
X97339990Y-118674992D02*
X97339990Y-95700010D01*
X99060000Y-115570000D02*
X97790000Y-114300000D01*
X97790000Y-100330000D02*
X99060000Y-99060000D01*
X97790000Y-114300000D02*
X97790000Y-100330000D01*
X100325735Y-92705735D02*
X100325735Y-116835735D01*
X99060000Y-118110000D02*
X100330000Y-116840000D01*
X106680000Y-110490000D02*
X102870000Y-106680000D01*
D18*
G36*
X162433000Y-120523000D02*
G01*
X96647000Y-120523000D01*
X96647000Y-118990728D01*
X96705016Y-119099268D01*
X96735174Y-119136015D01*
X96799989Y-119214993D01*
X96828992Y-119238795D01*
X97386199Y-119796003D01*
X97409998Y-119825002D01*
X97438996Y-119848800D01*
X97525722Y-119919975D01*
X97657752Y-119990547D01*
X97801013Y-120034004D01*
X97912666Y-120045001D01*
X97912676Y-120045001D01*
X97949998Y-120048677D01*
X97987321Y-120045001D01*
X101657677Y-120045001D01*
X101694999Y-120048677D01*
X101732321Y-120045001D01*
X101732332Y-120045001D01*
X101843985Y-120034004D01*
X101987246Y-119990547D01*
X102119275Y-119919975D01*
X102235000Y-119825002D01*
X102258803Y-119795998D01*
X103925000Y-118129802D01*
X103925000Y-118237002D01*
X104083748Y-118237002D01*
X103925000Y-118395750D01*
X103921928Y-118960000D01*
X103934188Y-119084482D01*
X103970498Y-119204180D01*
X104029463Y-119314494D01*
X104108815Y-119411185D01*
X104205506Y-119490537D01*
X104315820Y-119549502D01*
X104435518Y-119585812D01*
X104560000Y-119598072D01*
X105124250Y-119595000D01*
X105283000Y-119436250D01*
X105283000Y-118237000D01*
X105537000Y-118237000D01*
X105537000Y-119436250D01*
X105695750Y-119595000D01*
X106260000Y-119598072D01*
X106384482Y-119585812D01*
X106504180Y-119549502D01*
X106614494Y-119490537D01*
X106711185Y-119411185D01*
X106790537Y-119314494D01*
X106849502Y-119204180D01*
X106885812Y-119084482D01*
X106898072Y-118960000D01*
X106895000Y-118395750D01*
X106736250Y-118237000D01*
X105537000Y-118237000D01*
X105283000Y-118237000D01*
X105263000Y-118237000D01*
X105263000Y-117983000D01*
X105283000Y-117983000D01*
X105283000Y-117963000D01*
X105537000Y-117963000D01*
X105537000Y-117983000D01*
X106736250Y-117983000D01*
X106895000Y-117824250D01*
X106898072Y-117260000D01*
X106885812Y-117135518D01*
X106849502Y-117015820D01*
X106790537Y-116905506D01*
X106711185Y-116808815D01*
X106614494Y-116729463D01*
X106504180Y-116670498D01*
X106435313Y-116649607D01*
X106465134Y-116625134D01*
X106650706Y-116399014D01*
X106788599Y-116141034D01*
X106873513Y-115861111D01*
X106902185Y-115570000D01*
X110267815Y-115570000D01*
X110296487Y-115861111D01*
X110381401Y-116141034D01*
X110519294Y-116399014D01*
X110704866Y-116625134D01*
X110734687Y-116649607D01*
X110665820Y-116670498D01*
X110555506Y-116729463D01*
X110458815Y-116808815D01*
X110379463Y-116905506D01*
X110320498Y-117015820D01*
X110284188Y-117135518D01*
X110271928Y-117260000D01*
X110271928Y-118960000D01*
X110284188Y-119084482D01*
X110320498Y-119204180D01*
X110379463Y-119314494D01*
X110458815Y-119411185D01*
X110555506Y-119490537D01*
X110665820Y-119549502D01*
X110785518Y-119585812D01*
X110910000Y-119598072D01*
X112610000Y-119598072D01*
X112734482Y-119585812D01*
X112854180Y-119549502D01*
X112964494Y-119490537D01*
X113061185Y-119411185D01*
X113140537Y-119314494D01*
X113199502Y-119204180D01*
X113235812Y-119084482D01*
X113248072Y-118960000D01*
X113248072Y-118820000D01*
X113938057Y-118820000D01*
X113965764Y-119101309D01*
X114047818Y-119371808D01*
X114181068Y-119621101D01*
X114360392Y-119839608D01*
X114578899Y-120018932D01*
X114828192Y-120152182D01*
X115098691Y-120234236D01*
X115309508Y-120255000D01*
X115450492Y-120255000D01*
X115661309Y-120234236D01*
X115931808Y-120152182D01*
X116181101Y-120018932D01*
X116399608Y-119839608D01*
X116578932Y-119621101D01*
X116650000Y-119488142D01*
X116721068Y-119621101D01*
X116900392Y-119839608D01*
X117118899Y-120018932D01*
X117368192Y-120152182D01*
X117638691Y-120234236D01*
X117849508Y-120255000D01*
X117990492Y-120255000D01*
X118201309Y-120234236D01*
X118471808Y-120152182D01*
X118721101Y-120018932D01*
X118939608Y-119839608D01*
X119118932Y-119621101D01*
X119190000Y-119488142D01*
X119261068Y-119621101D01*
X119440392Y-119839608D01*
X119658899Y-120018932D01*
X119908192Y-120152182D01*
X120178691Y-120234236D01*
X120389508Y-120255000D01*
X120530492Y-120255000D01*
X120741309Y-120234236D01*
X121011808Y-120152182D01*
X121261101Y-120018932D01*
X121479608Y-119839608D01*
X121658932Y-119621101D01*
X121732579Y-119483318D01*
X121847615Y-119675131D01*
X122036586Y-119883519D01*
X122262580Y-120051037D01*
X122516913Y-120171246D01*
X122650961Y-120211904D01*
X122873000Y-120089915D01*
X122873000Y-118947000D01*
X122853000Y-118947000D01*
X122853000Y-118693000D01*
X122873000Y-118693000D01*
X122873000Y-117550085D01*
X123127000Y-117550085D01*
X123127000Y-118693000D01*
X123147000Y-118693000D01*
X123147000Y-118947000D01*
X123127000Y-118947000D01*
X123127000Y-120089915D01*
X123349039Y-120211904D01*
X123483087Y-120171246D01*
X123737420Y-120051037D01*
X123963414Y-119883519D01*
X124152385Y-119675131D01*
X124267421Y-119483318D01*
X124341068Y-119621101D01*
X124520392Y-119839608D01*
X124738899Y-120018932D01*
X124988192Y-120152182D01*
X125258691Y-120234236D01*
X125469508Y-120255000D01*
X125610492Y-120255000D01*
X125821309Y-120234236D01*
X126091808Y-120152182D01*
X126341101Y-120018932D01*
X126559608Y-119839608D01*
X126738932Y-119621101D01*
X126810000Y-119488142D01*
X126881068Y-119621101D01*
X127060392Y-119839608D01*
X127278899Y-120018932D01*
X127528192Y-120152182D01*
X127798691Y-120234236D01*
X128009508Y-120255000D01*
X128150492Y-120255000D01*
X128361309Y-120234236D01*
X128631808Y-120152182D01*
X128881101Y-120018932D01*
X129099608Y-119839608D01*
X129278932Y-119621101D01*
X129350000Y-119488142D01*
X129421068Y-119621101D01*
X129600392Y-119839608D01*
X129818899Y-120018932D01*
X130068192Y-120152182D01*
X130338691Y-120234236D01*
X130549508Y-120255000D01*
X130690492Y-120255000D01*
X130901309Y-120234236D01*
X131171808Y-120152182D01*
X131421101Y-120018932D01*
X131639608Y-119839608D01*
X131818932Y-119621101D01*
X131890000Y-119488142D01*
X131961068Y-119621101D01*
X132140392Y-119839608D01*
X132358899Y-120018932D01*
X132608192Y-120152182D01*
X132878691Y-120234236D01*
X133089508Y-120255000D01*
X133230492Y-120255000D01*
X133441309Y-120234236D01*
X133711808Y-120152182D01*
X133961101Y-120018932D01*
X134179608Y-119839608D01*
X134358932Y-119621101D01*
X134430000Y-119488142D01*
X134501068Y-119621101D01*
X134680392Y-119839608D01*
X134898899Y-120018932D01*
X135148192Y-120152182D01*
X135418691Y-120234236D01*
X135629508Y-120255000D01*
X135770492Y-120255000D01*
X135981309Y-120234236D01*
X136251808Y-120152182D01*
X136501101Y-120018932D01*
X136719608Y-119839608D01*
X136898932Y-119621101D01*
X136970000Y-119488142D01*
X137041068Y-119621101D01*
X137220392Y-119839608D01*
X137438899Y-120018932D01*
X137688192Y-120152182D01*
X137958691Y-120234236D01*
X138169508Y-120255000D01*
X138310492Y-120255000D01*
X138521309Y-120234236D01*
X138791808Y-120152182D01*
X139041101Y-120018932D01*
X139259608Y-119839608D01*
X139438932Y-119621101D01*
X139572182Y-119371808D01*
X139654236Y-119101309D01*
X139681943Y-118820000D01*
X140858057Y-118820000D01*
X140885764Y-119101309D01*
X140967818Y-119371808D01*
X141101068Y-119621101D01*
X141280392Y-119839608D01*
X141498899Y-120018932D01*
X141748192Y-120152182D01*
X142018691Y-120234236D01*
X142229508Y-120255000D01*
X142370492Y-120255000D01*
X142581309Y-120234236D01*
X142851808Y-120152182D01*
X143101101Y-120018932D01*
X143319608Y-119839608D01*
X143498932Y-119621101D01*
X143570000Y-119488142D01*
X143641068Y-119621101D01*
X143820392Y-119839608D01*
X144038899Y-120018932D01*
X144288192Y-120152182D01*
X144558691Y-120234236D01*
X144769508Y-120255000D01*
X144910492Y-120255000D01*
X145121309Y-120234236D01*
X145391808Y-120152182D01*
X145641101Y-120018932D01*
X145859608Y-119839608D01*
X146038932Y-119621101D01*
X146110000Y-119488142D01*
X146181068Y-119621101D01*
X146360392Y-119839608D01*
X146578899Y-120018932D01*
X146828192Y-120152182D01*
X147098691Y-120234236D01*
X147309508Y-120255000D01*
X147450492Y-120255000D01*
X147661309Y-120234236D01*
X147931808Y-120152182D01*
X148181101Y-120018932D01*
X148399608Y-119839608D01*
X148578932Y-119621101D01*
X148650000Y-119488142D01*
X148721068Y-119621101D01*
X148900392Y-119839608D01*
X149118899Y-120018932D01*
X149368192Y-120152182D01*
X149638691Y-120234236D01*
X149849508Y-120255000D01*
X149990492Y-120255000D01*
X150201309Y-120234236D01*
X150471808Y-120152182D01*
X150721101Y-120018932D01*
X150939608Y-119839608D01*
X151118932Y-119621101D01*
X151190000Y-119488142D01*
X151261068Y-119621101D01*
X151440392Y-119839608D01*
X151658899Y-120018932D01*
X151908192Y-120152182D01*
X152178691Y-120234236D01*
X152389508Y-120255000D01*
X152530492Y-120255000D01*
X152741309Y-120234236D01*
X153011808Y-120152182D01*
X153261101Y-120018932D01*
X153479608Y-119839608D01*
X153658932Y-119621101D01*
X153730000Y-119488142D01*
X153801068Y-119621101D01*
X153980392Y-119839608D01*
X154198899Y-120018932D01*
X154448192Y-120152182D01*
X154718691Y-120234236D01*
X154929508Y-120255000D01*
X155070492Y-120255000D01*
X155281309Y-120234236D01*
X155551808Y-120152182D01*
X155801101Y-120018932D01*
X156019608Y-119839608D01*
X156198932Y-119621101D01*
X156270000Y-119488142D01*
X156341068Y-119621101D01*
X156520392Y-119839608D01*
X156738899Y-120018932D01*
X156988192Y-120152182D01*
X157258691Y-120234236D01*
X157469508Y-120255000D01*
X157610492Y-120255000D01*
X157821309Y-120234236D01*
X158091808Y-120152182D01*
X158341101Y-120018932D01*
X158559608Y-119839608D01*
X158738932Y-119621101D01*
X158810000Y-119488142D01*
X158881068Y-119621101D01*
X159060392Y-119839608D01*
X159278899Y-120018932D01*
X159528192Y-120152182D01*
X159798691Y-120234236D01*
X160009508Y-120255000D01*
X160150492Y-120255000D01*
X160361309Y-120234236D01*
X160631808Y-120152182D01*
X160881101Y-120018932D01*
X161099608Y-119839608D01*
X161278932Y-119621101D01*
X161412182Y-119371808D01*
X161494236Y-119101309D01*
X161521943Y-118820000D01*
X161494236Y-118538691D01*
X161412182Y-118268192D01*
X161278932Y-118018899D01*
X161099608Y-117800392D01*
X160881101Y-117621068D01*
X160631808Y-117487818D01*
X160361309Y-117405764D01*
X160150492Y-117385000D01*
X160009508Y-117385000D01*
X159798691Y-117405764D01*
X159528192Y-117487818D01*
X159278899Y-117621068D01*
X159060392Y-117800392D01*
X158881068Y-118018899D01*
X158810000Y-118151858D01*
X158738932Y-118018899D01*
X158559608Y-117800392D01*
X158341101Y-117621068D01*
X158091808Y-117487818D01*
X157821309Y-117405764D01*
X157610492Y-117385000D01*
X157469508Y-117385000D01*
X157258691Y-117405764D01*
X156988192Y-117487818D01*
X156738899Y-117621068D01*
X156520392Y-117800392D01*
X156341068Y-118018899D01*
X156270000Y-118151858D01*
X156198932Y-118018899D01*
X156019608Y-117800392D01*
X155801101Y-117621068D01*
X155551808Y-117487818D01*
X155281309Y-117405764D01*
X155070492Y-117385000D01*
X154929508Y-117385000D01*
X154718691Y-117405764D01*
X154448192Y-117487818D01*
X154198899Y-117621068D01*
X153980392Y-117800392D01*
X153801068Y-118018899D01*
X153730000Y-118151858D01*
X153658932Y-118018899D01*
X153479608Y-117800392D01*
X153261101Y-117621068D01*
X153011808Y-117487818D01*
X152741309Y-117405764D01*
X152530492Y-117385000D01*
X152389508Y-117385000D01*
X152178691Y-117405764D01*
X151908192Y-117487818D01*
X151658899Y-117621068D01*
X151440392Y-117800392D01*
X151261068Y-118018899D01*
X151190000Y-118151858D01*
X151118932Y-118018899D01*
X150939608Y-117800392D01*
X150721101Y-117621068D01*
X150471808Y-117487818D01*
X150201309Y-117405764D01*
X149990492Y-117385000D01*
X149849508Y-117385000D01*
X149638691Y-117405764D01*
X149368192Y-117487818D01*
X149118899Y-117621068D01*
X148900392Y-117800392D01*
X148721068Y-118018899D01*
X148650000Y-118151858D01*
X148578932Y-118018899D01*
X148399608Y-117800392D01*
X148181101Y-117621068D01*
X147931808Y-117487818D01*
X147661309Y-117405764D01*
X147450492Y-117385000D01*
X147309508Y-117385000D01*
X147098691Y-117405764D01*
X146828192Y-117487818D01*
X146578899Y-117621068D01*
X146360392Y-117800392D01*
X146181068Y-118018899D01*
X146110000Y-118151858D01*
X146038932Y-118018899D01*
X145859608Y-117800392D01*
X145641101Y-117621068D01*
X145391808Y-117487818D01*
X145121309Y-117405764D01*
X144910492Y-117385000D01*
X144769508Y-117385000D01*
X144558691Y-117405764D01*
X144288192Y-117487818D01*
X144038899Y-117621068D01*
X143820392Y-117800392D01*
X143641068Y-118018899D01*
X143570000Y-118151858D01*
X143498932Y-118018899D01*
X143319608Y-117800392D01*
X143101101Y-117621068D01*
X142851808Y-117487818D01*
X142581309Y-117405764D01*
X142370492Y-117385000D01*
X142229508Y-117385000D01*
X142018691Y-117405764D01*
X141748192Y-117487818D01*
X141498899Y-117621068D01*
X141280392Y-117800392D01*
X141101068Y-118018899D01*
X140967818Y-118268192D01*
X140885764Y-118538691D01*
X140858057Y-118820000D01*
X139681943Y-118820000D01*
X139654236Y-118538691D01*
X139572182Y-118268192D01*
X139438932Y-118018899D01*
X139259608Y-117800392D01*
X139041101Y-117621068D01*
X138791808Y-117487818D01*
X138521309Y-117405764D01*
X138310492Y-117385000D01*
X138169508Y-117385000D01*
X137958691Y-117405764D01*
X137688192Y-117487818D01*
X137438899Y-117621068D01*
X137220392Y-117800392D01*
X137041068Y-118018899D01*
X136970000Y-118151858D01*
X136898932Y-118018899D01*
X136719608Y-117800392D01*
X136501101Y-117621068D01*
X136251808Y-117487818D01*
X135981309Y-117405764D01*
X135770492Y-117385000D01*
X135629508Y-117385000D01*
X135418691Y-117405764D01*
X135148192Y-117487818D01*
X134898899Y-117621068D01*
X134680392Y-117800392D01*
X134501068Y-118018899D01*
X134430000Y-118151858D01*
X134358932Y-118018899D01*
X134179608Y-117800392D01*
X133961101Y-117621068D01*
X133711808Y-117487818D01*
X133441309Y-117405764D01*
X133230492Y-117385000D01*
X133089508Y-117385000D01*
X132878691Y-117405764D01*
X132608192Y-117487818D01*
X132358899Y-117621068D01*
X132140392Y-117800392D01*
X131961068Y-118018899D01*
X131890000Y-118151858D01*
X131818932Y-118018899D01*
X131639608Y-117800392D01*
X131421101Y-117621068D01*
X131171808Y-117487818D01*
X130901309Y-117405764D01*
X130690492Y-117385000D01*
X130549508Y-117385000D01*
X130338691Y-117405764D01*
X130068192Y-117487818D01*
X129818899Y-117621068D01*
X129600392Y-117800392D01*
X129421068Y-118018899D01*
X129350000Y-118151858D01*
X129278932Y-118018899D01*
X129099608Y-117800392D01*
X128881101Y-117621068D01*
X128631808Y-117487818D01*
X128361309Y-117405764D01*
X128150492Y-117385000D01*
X128009508Y-117385000D01*
X127798691Y-117405764D01*
X127528192Y-117487818D01*
X127278899Y-117621068D01*
X127060392Y-117800392D01*
X126881068Y-118018899D01*
X126810000Y-118151858D01*
X126738932Y-118018899D01*
X126559608Y-117800392D01*
X126341101Y-117621068D01*
X126091808Y-117487818D01*
X125821309Y-117405764D01*
X125610492Y-117385000D01*
X125469508Y-117385000D01*
X125258691Y-117405764D01*
X124988192Y-117487818D01*
X124738899Y-117621068D01*
X124520392Y-117800392D01*
X124341068Y-118018899D01*
X124267421Y-118156682D01*
X124152385Y-117964869D01*
X123963414Y-117756481D01*
X123737420Y-117588963D01*
X123483087Y-117468754D01*
X123349039Y-117428096D01*
X123127000Y-117550085D01*
X122873000Y-117550085D01*
X122650961Y-117428096D01*
X122516913Y-117468754D01*
X122262580Y-117588963D01*
X122036586Y-117756481D01*
X121847615Y-117964869D01*
X121732579Y-118156682D01*
X121658932Y-118018899D01*
X121479608Y-117800392D01*
X121261101Y-117621068D01*
X121011808Y-117487818D01*
X120741309Y-117405764D01*
X120530492Y-117385000D01*
X120389508Y-117385000D01*
X120178691Y-117405764D01*
X119908192Y-117487818D01*
X119658899Y-117621068D01*
X119440392Y-117800392D01*
X119261068Y-118018899D01*
X119190000Y-118151858D01*
X119118932Y-118018899D01*
X118939608Y-117800392D01*
X118721101Y-117621068D01*
X118471808Y-117487818D01*
X118201309Y-117405764D01*
X117990492Y-117385000D01*
X117849508Y-117385000D01*
X117638691Y-117405764D01*
X117368192Y-117487818D01*
X117118899Y-117621068D01*
X116900392Y-117800392D01*
X116721068Y-118018899D01*
X116650000Y-118151858D01*
X116578932Y-118018899D01*
X116399608Y-117800392D01*
X116181101Y-117621068D01*
X115931808Y-117487818D01*
X115661309Y-117405764D01*
X115450492Y-117385000D01*
X115309508Y-117385000D01*
X115098691Y-117405764D01*
X114828192Y-117487818D01*
X114578899Y-117621068D01*
X114360392Y-117800392D01*
X114181068Y-118018899D01*
X114047818Y-118268192D01*
X113965764Y-118538691D01*
X113938057Y-118820000D01*
X113248072Y-118820000D01*
X113248072Y-117260000D01*
X113235812Y-117135518D01*
X113199502Y-117015820D01*
X113140537Y-116905506D01*
X113061185Y-116808815D01*
X112964494Y-116729463D01*
X112854180Y-116670498D01*
X112785313Y-116649607D01*
X112815134Y-116625134D01*
X113000706Y-116399014D01*
X113138599Y-116141034D01*
X113223513Y-115861111D01*
X113252185Y-115570000D01*
X113223513Y-115278889D01*
X113138599Y-114998966D01*
X113000706Y-114740986D01*
X112815134Y-114514866D01*
X112589014Y-114329294D01*
X112331034Y-114191401D01*
X112051111Y-114106487D01*
X111832950Y-114085000D01*
X111687050Y-114085000D01*
X111468889Y-114106487D01*
X111188966Y-114191401D01*
X110930986Y-114329294D01*
X110704866Y-114514866D01*
X110519294Y-114740986D01*
X110381401Y-114998966D01*
X110296487Y-115278889D01*
X110267815Y-115570000D01*
X106902185Y-115570000D01*
X106873513Y-115278889D01*
X106788599Y-114998966D01*
X106650706Y-114740986D01*
X106465134Y-114514866D01*
X106239014Y-114329294D01*
X105981034Y-114191401D01*
X105701111Y-114106487D01*
X105482950Y-114085000D01*
X105337050Y-114085000D01*
X105118889Y-114106487D01*
X104838966Y-114191401D01*
X104580986Y-114329294D01*
X104354866Y-114514866D01*
X104169294Y-114740986D01*
X104031401Y-114998966D01*
X103946487Y-115278889D01*
X103917815Y-115570000D01*
X103946487Y-115861111D01*
X103969203Y-115935995D01*
X101380198Y-118525001D01*
X100548072Y-118525001D01*
X100548072Y-117696730D01*
X100893799Y-117351003D01*
X100964973Y-117264277D01*
X101035546Y-117132247D01*
X101079002Y-116988987D01*
X101093676Y-116840001D01*
X101085735Y-116759376D01*
X101085735Y-113441429D01*
X119440000Y-113441429D01*
X119440000Y-113758571D01*
X119501871Y-114069620D01*
X119623237Y-114362621D01*
X119799431Y-114626315D01*
X120023685Y-114850569D01*
X120287379Y-115026763D01*
X120580380Y-115148129D01*
X120891429Y-115210000D01*
X121208571Y-115210000D01*
X121519620Y-115148129D01*
X121812621Y-115026763D01*
X122076315Y-114850569D01*
X122300569Y-114626315D01*
X122476763Y-114362621D01*
X122598129Y-114069620D01*
X122660000Y-113758571D01*
X122660000Y-113441429D01*
X131740000Y-113441429D01*
X131740000Y-113758571D01*
X131801871Y-114069620D01*
X131923237Y-114362621D01*
X132099431Y-114626315D01*
X132323685Y-114850569D01*
X132587379Y-115026763D01*
X132880380Y-115148129D01*
X133191429Y-115210000D01*
X133508571Y-115210000D01*
X133819620Y-115148129D01*
X134112621Y-115026763D01*
X134376315Y-114850569D01*
X134600569Y-114626315D01*
X134776763Y-114362621D01*
X134898129Y-114069620D01*
X134960000Y-113758571D01*
X134960000Y-113441429D01*
X142300000Y-113441429D01*
X142300000Y-113758571D01*
X142361871Y-114069620D01*
X142483237Y-114362621D01*
X142659431Y-114626315D01*
X142883685Y-114850569D01*
X143147379Y-115026763D01*
X143440380Y-115148129D01*
X143751429Y-115210000D01*
X144068571Y-115210000D01*
X144379620Y-115148129D01*
X144672621Y-115026763D01*
X144936315Y-114850569D01*
X145160569Y-114626315D01*
X145336763Y-114362621D01*
X145458129Y-114069620D01*
X145520000Y-113758571D01*
X145520000Y-113441429D01*
X154600000Y-113441429D01*
X154600000Y-113758571D01*
X154661871Y-114069620D01*
X154783237Y-114362621D01*
X154959431Y-114626315D01*
X155183685Y-114850569D01*
X155447379Y-115026763D01*
X155740380Y-115148129D01*
X156051429Y-115210000D01*
X156368571Y-115210000D01*
X156679620Y-115148129D01*
X156972621Y-115026763D01*
X157236315Y-114850569D01*
X157460569Y-114626315D01*
X157636763Y-114362621D01*
X157758129Y-114069620D01*
X157820000Y-113758571D01*
X157820000Y-113441429D01*
X157758129Y-113130380D01*
X157636763Y-112837379D01*
X157460569Y-112573685D01*
X157236315Y-112349431D01*
X156972621Y-112173237D01*
X156679620Y-112051871D01*
X156368571Y-111990000D01*
X156051429Y-111990000D01*
X155740380Y-112051871D01*
X155447379Y-112173237D01*
X155183685Y-112349431D01*
X154959431Y-112573685D01*
X154783237Y-112837379D01*
X154661871Y-113130380D01*
X154600000Y-113441429D01*
X145520000Y-113441429D01*
X145458129Y-113130380D01*
X145336763Y-112837379D01*
X145160569Y-112573685D01*
X144936315Y-112349431D01*
X144672621Y-112173237D01*
X144379620Y-112051871D01*
X144068571Y-111990000D01*
X143751429Y-111990000D01*
X143440380Y-112051871D01*
X143147379Y-112173237D01*
X142883685Y-112349431D01*
X142659431Y-112573685D01*
X142483237Y-112837379D01*
X142361871Y-113130380D01*
X142300000Y-113441429D01*
X134960000Y-113441429D01*
X134898129Y-113130380D01*
X134776763Y-112837379D01*
X134600569Y-112573685D01*
X134376315Y-112349431D01*
X134112621Y-112173237D01*
X133819620Y-112051871D01*
X133508571Y-111990000D01*
X133191429Y-111990000D01*
X132880380Y-112051871D01*
X132587379Y-112173237D01*
X132323685Y-112349431D01*
X132099431Y-112573685D01*
X131923237Y-112837379D01*
X131801871Y-113130380D01*
X131740000Y-113441429D01*
X122660000Y-113441429D01*
X122598129Y-113130380D01*
X122476763Y-112837379D01*
X122300569Y-112573685D01*
X122076315Y-112349431D01*
X121812621Y-112173237D01*
X121519620Y-112051871D01*
X121208571Y-111990000D01*
X120891429Y-111990000D01*
X120580380Y-112051871D01*
X120287379Y-112173237D01*
X120023685Y-112349431D01*
X119799431Y-112573685D01*
X119623237Y-112837379D01*
X119501871Y-113130380D01*
X119440000Y-113441429D01*
X101085735Y-113441429D01*
X101085735Y-110708072D01*
X102450000Y-110708072D01*
X102574482Y-110695812D01*
X102694180Y-110659502D01*
X102804494Y-110600537D01*
X102901185Y-110521185D01*
X102980537Y-110424494D01*
X103039502Y-110314180D01*
X103075812Y-110194482D01*
X103088072Y-110070000D01*
X103088072Y-108370000D01*
X103075812Y-108245518D01*
X103039502Y-108125820D01*
X102980537Y-108015506D01*
X102901185Y-107918815D01*
X102804494Y-107839463D01*
X102694180Y-107780498D01*
X102574482Y-107744188D01*
X102450000Y-107731928D01*
X101085735Y-107731928D01*
X101085735Y-106578061D01*
X101835000Y-106578061D01*
X101835000Y-106781939D01*
X101874774Y-106981898D01*
X101952795Y-107170256D01*
X102066063Y-107339774D01*
X102210226Y-107483937D01*
X102379744Y-107597205D01*
X102568102Y-107675226D01*
X102768061Y-107715000D01*
X102830199Y-107715000D01*
X105645000Y-110529802D01*
X105645000Y-110591939D01*
X105684774Y-110791898D01*
X105762795Y-110980256D01*
X105876063Y-111149774D01*
X106020226Y-111293937D01*
X106189744Y-111407205D01*
X106378102Y-111485226D01*
X106578061Y-111525000D01*
X106781939Y-111525000D01*
X106981898Y-111485226D01*
X107170256Y-111407205D01*
X107339774Y-111293937D01*
X107483937Y-111149774D01*
X107597205Y-110980256D01*
X107675226Y-110791898D01*
X107715000Y-110591939D01*
X107715000Y-110388061D01*
X107675226Y-110188102D01*
X107597205Y-109999744D01*
X107483937Y-109830226D01*
X107339774Y-109686063D01*
X107170256Y-109572795D01*
X106981898Y-109494774D01*
X106781939Y-109455000D01*
X106719802Y-109455000D01*
X104706231Y-107441429D01*
X133740000Y-107441429D01*
X133740000Y-107758571D01*
X133801871Y-108069620D01*
X133923237Y-108362621D01*
X134099431Y-108626315D01*
X134323685Y-108850569D01*
X134587379Y-109026763D01*
X134880380Y-109148129D01*
X135191429Y-109210000D01*
X135508571Y-109210000D01*
X135819620Y-109148129D01*
X136112621Y-109026763D01*
X136376315Y-108850569D01*
X136600569Y-108626315D01*
X136776763Y-108362621D01*
X136898129Y-108069620D01*
X136960000Y-107758571D01*
X136960000Y-107441429D01*
X156600000Y-107441429D01*
X156600000Y-107758571D01*
X156661871Y-108069620D01*
X156783237Y-108362621D01*
X156959431Y-108626315D01*
X157183685Y-108850569D01*
X157447379Y-109026763D01*
X157740380Y-109148129D01*
X158051429Y-109210000D01*
X158368571Y-109210000D01*
X158679620Y-109148129D01*
X158972621Y-109026763D01*
X159236315Y-108850569D01*
X159460569Y-108626315D01*
X159636763Y-108362621D01*
X159758129Y-108069620D01*
X159820000Y-107758571D01*
X159820000Y-107441429D01*
X159758129Y-107130380D01*
X159636763Y-106837379D01*
X159460569Y-106573685D01*
X159236315Y-106349431D01*
X158972621Y-106173237D01*
X158679620Y-106051871D01*
X158368571Y-105990000D01*
X158051429Y-105990000D01*
X157740380Y-106051871D01*
X157447379Y-106173237D01*
X157183685Y-106349431D01*
X156959431Y-106573685D01*
X156783237Y-106837379D01*
X156661871Y-107130380D01*
X156600000Y-107441429D01*
X136960000Y-107441429D01*
X136898129Y-107130380D01*
X136776763Y-106837379D01*
X136600569Y-106573685D01*
X136376315Y-106349431D01*
X136112621Y-106173237D01*
X135819620Y-106051871D01*
X135508571Y-105990000D01*
X135191429Y-105990000D01*
X134880380Y-106051871D01*
X134587379Y-106173237D01*
X134323685Y-106349431D01*
X134099431Y-106573685D01*
X133923237Y-106837379D01*
X133801871Y-107130380D01*
X133740000Y-107441429D01*
X104706231Y-107441429D01*
X103905000Y-106640199D01*
X103905000Y-106578061D01*
X103865226Y-106378102D01*
X103787205Y-106189744D01*
X103673937Y-106020226D01*
X103529774Y-105876063D01*
X103360256Y-105762795D01*
X103171898Y-105684774D01*
X102971939Y-105645000D01*
X102768061Y-105645000D01*
X102568102Y-105684774D01*
X102379744Y-105762795D01*
X102210226Y-105876063D01*
X102066063Y-106020226D01*
X101952795Y-106189744D01*
X101874774Y-106378102D01*
X101835000Y-106578061D01*
X101085735Y-106578061D01*
X101085735Y-105628072D01*
X102450000Y-105628072D01*
X102574482Y-105615812D01*
X102694180Y-105579502D01*
X102804494Y-105520537D01*
X102901185Y-105441185D01*
X102980537Y-105344494D01*
X103039502Y-105234180D01*
X103075812Y-105114482D01*
X103088072Y-104990000D01*
X103088072Y-103290000D01*
X103075812Y-103165518D01*
X103039502Y-103045820D01*
X102980537Y-102935506D01*
X102901185Y-102838815D01*
X102804494Y-102759463D01*
X102694180Y-102700498D01*
X102574482Y-102664188D01*
X102450000Y-102651928D01*
X101085735Y-102651928D01*
X101085735Y-101441429D01*
X119440000Y-101441429D01*
X119440000Y-101758571D01*
X119501871Y-102069620D01*
X119623237Y-102362621D01*
X119799431Y-102626315D01*
X120023685Y-102850569D01*
X120287379Y-103026763D01*
X120580380Y-103148129D01*
X120891429Y-103210000D01*
X121208571Y-103210000D01*
X121519620Y-103148129D01*
X121812621Y-103026763D01*
X122076315Y-102850569D01*
X122300569Y-102626315D01*
X122334856Y-102575000D01*
X131736928Y-102575000D01*
X131749188Y-102699482D01*
X131785498Y-102819180D01*
X131844463Y-102929494D01*
X131923815Y-103026185D01*
X132020506Y-103105537D01*
X132130820Y-103164502D01*
X132250518Y-103200812D01*
X132375000Y-103213072D01*
X133064250Y-103210000D01*
X133223000Y-103051250D01*
X133223000Y-101727000D01*
X133477000Y-101727000D01*
X133477000Y-103051250D01*
X133635750Y-103210000D01*
X134325000Y-103213072D01*
X134449482Y-103200812D01*
X134569180Y-103164502D01*
X134679494Y-103105537D01*
X134776185Y-103026185D01*
X134855537Y-102929494D01*
X134914502Y-102819180D01*
X134945320Y-102717584D01*
X142972021Y-102717584D01*
X143064766Y-102979429D01*
X143350120Y-103117820D01*
X143656990Y-103197883D01*
X143973584Y-103216540D01*
X144287733Y-103173074D01*
X144587367Y-103069156D01*
X144755234Y-102979429D01*
X144847979Y-102717584D01*
X144705395Y-102575000D01*
X154596928Y-102575000D01*
X154609188Y-102699482D01*
X154645498Y-102819180D01*
X154704463Y-102929494D01*
X154783815Y-103026185D01*
X154880506Y-103105537D01*
X154990820Y-103164502D01*
X155110518Y-103200812D01*
X155235000Y-103213072D01*
X155924250Y-103210000D01*
X156083000Y-103051250D01*
X156083000Y-101727000D01*
X156337000Y-101727000D01*
X156337000Y-103051250D01*
X156495750Y-103210000D01*
X157185000Y-103213072D01*
X157309482Y-103200812D01*
X157429180Y-103164502D01*
X157539494Y-103105537D01*
X157636185Y-103026185D01*
X157715537Y-102929494D01*
X157774502Y-102819180D01*
X157810812Y-102699482D01*
X157823072Y-102575000D01*
X157820000Y-101885750D01*
X157661250Y-101727000D01*
X156337000Y-101727000D01*
X156083000Y-101727000D01*
X154758750Y-101727000D01*
X154600000Y-101885750D01*
X154596928Y-102575000D01*
X144705395Y-102575000D01*
X143910000Y-101779605D01*
X142972021Y-102717584D01*
X134945320Y-102717584D01*
X134950812Y-102699482D01*
X134963072Y-102575000D01*
X134960000Y-101885750D01*
X134801250Y-101727000D01*
X133477000Y-101727000D01*
X133223000Y-101727000D01*
X131898750Y-101727000D01*
X131740000Y-101885750D01*
X131736928Y-102575000D01*
X122334856Y-102575000D01*
X122476763Y-102362621D01*
X122598129Y-102069620D01*
X122660000Y-101758571D01*
X122660000Y-101663584D01*
X142293460Y-101663584D01*
X142336926Y-101977733D01*
X142440844Y-102277367D01*
X142530571Y-102445234D01*
X142792416Y-102537979D01*
X143730395Y-101600000D01*
X144089605Y-101600000D01*
X145027584Y-102537979D01*
X145289429Y-102445234D01*
X145427820Y-102159880D01*
X145507883Y-101853010D01*
X145526540Y-101536416D01*
X145483074Y-101222267D01*
X145379156Y-100922633D01*
X145289429Y-100754766D01*
X145027584Y-100662021D01*
X144089605Y-101600000D01*
X143730395Y-101600000D01*
X142792416Y-100662021D01*
X142530571Y-100754766D01*
X142392180Y-101040120D01*
X142312117Y-101346990D01*
X142293460Y-101663584D01*
X122660000Y-101663584D01*
X122660000Y-101441429D01*
X122598129Y-101130380D01*
X122476763Y-100837379D01*
X122334857Y-100625000D01*
X131736928Y-100625000D01*
X131740000Y-101314250D01*
X131898750Y-101473000D01*
X133223000Y-101473000D01*
X133223000Y-100148750D01*
X133477000Y-100148750D01*
X133477000Y-101473000D01*
X134801250Y-101473000D01*
X134960000Y-101314250D01*
X134963072Y-100625000D01*
X134950812Y-100500518D01*
X134945321Y-100482416D01*
X142972021Y-100482416D01*
X143910000Y-101420395D01*
X144705395Y-100625000D01*
X154596928Y-100625000D01*
X154600000Y-101314250D01*
X154758750Y-101473000D01*
X156083000Y-101473000D01*
X156083000Y-100148750D01*
X156337000Y-100148750D01*
X156337000Y-101473000D01*
X157661250Y-101473000D01*
X157820000Y-101314250D01*
X157823072Y-100625000D01*
X157810812Y-100500518D01*
X157774502Y-100380820D01*
X157715537Y-100270506D01*
X157636185Y-100173815D01*
X157539494Y-100094463D01*
X157429180Y-100035498D01*
X157309482Y-99999188D01*
X157185000Y-99986928D01*
X156495750Y-99990000D01*
X156337000Y-100148750D01*
X156083000Y-100148750D01*
X155924250Y-99990000D01*
X155235000Y-99986928D01*
X155110518Y-99999188D01*
X154990820Y-100035498D01*
X154880506Y-100094463D01*
X154783815Y-100173815D01*
X154704463Y-100270506D01*
X154645498Y-100380820D01*
X154609188Y-100500518D01*
X154596928Y-100625000D01*
X144705395Y-100625000D01*
X144847979Y-100482416D01*
X144755234Y-100220571D01*
X144469880Y-100082180D01*
X144163010Y-100002117D01*
X143846416Y-99983460D01*
X143532267Y-100026926D01*
X143232633Y-100130844D01*
X143064766Y-100220571D01*
X142972021Y-100482416D01*
X134945321Y-100482416D01*
X134914502Y-100380820D01*
X134855537Y-100270506D01*
X134776185Y-100173815D01*
X134679494Y-100094463D01*
X134569180Y-100035498D01*
X134449482Y-99999188D01*
X134325000Y-99986928D01*
X133635750Y-99990000D01*
X133477000Y-100148750D01*
X133223000Y-100148750D01*
X133064250Y-99990000D01*
X132375000Y-99986928D01*
X132250518Y-99999188D01*
X132130820Y-100035498D01*
X132020506Y-100094463D01*
X131923815Y-100173815D01*
X131844463Y-100270506D01*
X131785498Y-100380820D01*
X131749188Y-100500518D01*
X131736928Y-100625000D01*
X122334857Y-100625000D01*
X122300569Y-100573685D01*
X122076315Y-100349431D01*
X121812621Y-100173237D01*
X121519620Y-100051871D01*
X121208571Y-99990000D01*
X120891429Y-99990000D01*
X120580380Y-100051871D01*
X120287379Y-100173237D01*
X120023685Y-100349431D01*
X119799431Y-100573685D01*
X119623237Y-100837379D01*
X119501871Y-101130380D01*
X119440000Y-101441429D01*
X101085735Y-101441429D01*
X101085735Y-100548072D01*
X102450000Y-100548072D01*
X102574482Y-100535812D01*
X102694180Y-100499502D01*
X102804494Y-100440537D01*
X102901185Y-100361185D01*
X102980537Y-100264494D01*
X103039502Y-100154180D01*
X103075812Y-100034482D01*
X103088072Y-99910000D01*
X103088072Y-98210000D01*
X103075812Y-98085518D01*
X103039502Y-97965820D01*
X102980537Y-97855506D01*
X102901185Y-97758815D01*
X102804494Y-97679463D01*
X102694180Y-97620498D01*
X102574482Y-97584188D01*
X102450000Y-97571928D01*
X101085735Y-97571928D01*
X101085735Y-95468072D01*
X102450000Y-95468072D01*
X102574482Y-95455812D01*
X102694180Y-95419502D01*
X102804494Y-95360537D01*
X102901185Y-95281185D01*
X102980537Y-95184494D01*
X103039502Y-95074180D01*
X103075812Y-94954482D01*
X103088072Y-94830000D01*
X103088072Y-94391429D01*
X119440000Y-94391429D01*
X119440000Y-94708571D01*
X119501871Y-95019620D01*
X119623237Y-95312621D01*
X119799431Y-95576315D01*
X120023685Y-95800569D01*
X120287379Y-95976763D01*
X120580380Y-96098129D01*
X120891429Y-96160000D01*
X121208571Y-96160000D01*
X121519620Y-96098129D01*
X121812621Y-95976763D01*
X122076315Y-95800569D01*
X122300569Y-95576315D01*
X122476763Y-95312621D01*
X122598129Y-95019620D01*
X122660000Y-94708571D01*
X122660000Y-94391429D01*
X131740000Y-94391429D01*
X131740000Y-94708571D01*
X131801871Y-95019620D01*
X131923237Y-95312621D01*
X132099431Y-95576315D01*
X132323685Y-95800569D01*
X132587379Y-95976763D01*
X132880380Y-96098129D01*
X133191429Y-96160000D01*
X133508571Y-96160000D01*
X133819620Y-96098129D01*
X134112621Y-95976763D01*
X134376315Y-95800569D01*
X134600569Y-95576315D01*
X134776763Y-95312621D01*
X134898129Y-95019620D01*
X134960000Y-94708571D01*
X134960000Y-94391429D01*
X142300000Y-94391429D01*
X142300000Y-94708571D01*
X142361871Y-95019620D01*
X142483237Y-95312621D01*
X142659431Y-95576315D01*
X142883685Y-95800569D01*
X143147379Y-95976763D01*
X143440380Y-96098129D01*
X143751429Y-96160000D01*
X144068571Y-96160000D01*
X144379620Y-96098129D01*
X144672621Y-95976763D01*
X144936315Y-95800569D01*
X145160569Y-95576315D01*
X145336763Y-95312621D01*
X145458129Y-95019620D01*
X145520000Y-94708571D01*
X145520000Y-94391429D01*
X154600000Y-94391429D01*
X154600000Y-94708571D01*
X154661871Y-95019620D01*
X154783237Y-95312621D01*
X154959431Y-95576315D01*
X155183685Y-95800569D01*
X155447379Y-95976763D01*
X155740380Y-96098129D01*
X156051429Y-96160000D01*
X156368571Y-96160000D01*
X156679620Y-96098129D01*
X156972621Y-95976763D01*
X157236315Y-95800569D01*
X157460569Y-95576315D01*
X157636763Y-95312621D01*
X157758129Y-95019620D01*
X157820000Y-94708571D01*
X157820000Y-94391429D01*
X157758129Y-94080380D01*
X157636763Y-93787379D01*
X157460569Y-93523685D01*
X157236315Y-93299431D01*
X156972621Y-93123237D01*
X156679620Y-93001871D01*
X156368571Y-92940000D01*
X156051429Y-92940000D01*
X155740380Y-93001871D01*
X155447379Y-93123237D01*
X155183685Y-93299431D01*
X154959431Y-93523685D01*
X154783237Y-93787379D01*
X154661871Y-94080380D01*
X154600000Y-94391429D01*
X145520000Y-94391429D01*
X145458129Y-94080380D01*
X145336763Y-93787379D01*
X145160569Y-93523685D01*
X144936315Y-93299431D01*
X144672621Y-93123237D01*
X144379620Y-93001871D01*
X144068571Y-92940000D01*
X143751429Y-92940000D01*
X143440380Y-93001871D01*
X143147379Y-93123237D01*
X142883685Y-93299431D01*
X142659431Y-93523685D01*
X142483237Y-93787379D01*
X142361871Y-94080380D01*
X142300000Y-94391429D01*
X134960000Y-94391429D01*
X134898129Y-94080380D01*
X134776763Y-93787379D01*
X134600569Y-93523685D01*
X134376315Y-93299431D01*
X134112621Y-93123237D01*
X133819620Y-93001871D01*
X133508571Y-92940000D01*
X133191429Y-92940000D01*
X132880380Y-93001871D01*
X132587379Y-93123237D01*
X132323685Y-93299431D01*
X132099431Y-93523685D01*
X131923237Y-93787379D01*
X131801871Y-94080380D01*
X131740000Y-94391429D01*
X122660000Y-94391429D01*
X122598129Y-94080380D01*
X122476763Y-93787379D01*
X122300569Y-93523685D01*
X122076315Y-93299431D01*
X121812621Y-93123237D01*
X121519620Y-93001871D01*
X121208571Y-92940000D01*
X120891429Y-92940000D01*
X120580380Y-93001871D01*
X120287379Y-93123237D01*
X120023685Y-93299431D01*
X119799431Y-93523685D01*
X119623237Y-93787379D01*
X119501871Y-94080380D01*
X119440000Y-94391429D01*
X103088072Y-94391429D01*
X103088072Y-93130000D01*
X103075812Y-93005518D01*
X103039502Y-92885820D01*
X102980537Y-92775506D01*
X102901185Y-92678815D01*
X102804494Y-92599463D01*
X102694180Y-92540498D01*
X102574482Y-92504188D01*
X102450000Y-92491928D01*
X101338483Y-92491928D01*
X101320961Y-92403837D01*
X101242940Y-92215479D01*
X101129672Y-92045961D01*
X100985509Y-91901798D01*
X100815991Y-91788530D01*
X100627633Y-91710509D01*
X100427674Y-91670735D01*
X100223796Y-91670735D01*
X100023837Y-91710509D01*
X99835479Y-91788530D01*
X99665961Y-91901798D01*
X99521798Y-92045961D01*
X99408530Y-92215479D01*
X99330509Y-92403837D01*
X99308928Y-92512332D01*
X99132950Y-92495000D01*
X98987050Y-92495000D01*
X98768889Y-92516487D01*
X98488966Y-92601401D01*
X98230986Y-92739294D01*
X98004866Y-92924866D01*
X97819294Y-93150986D01*
X97681401Y-93408966D01*
X97596487Y-93688889D01*
X97567815Y-93980000D01*
X97596487Y-94271111D01*
X97619203Y-94345995D01*
X96828988Y-95136211D01*
X96799990Y-95160009D01*
X96776192Y-95189007D01*
X96776191Y-95189008D01*
X96705016Y-95275734D01*
X96647000Y-95384274D01*
X96647000Y-88900000D01*
X97567815Y-88900000D01*
X97596487Y-89191111D01*
X97681401Y-89471034D01*
X97819294Y-89729014D01*
X98004866Y-89955134D01*
X98230986Y-90140706D01*
X98488966Y-90278599D01*
X98768889Y-90363513D01*
X98987050Y-90385000D01*
X99132950Y-90385000D01*
X99351111Y-90363513D01*
X99631034Y-90278599D01*
X99889014Y-90140706D01*
X100115134Y-89955134D01*
X100139607Y-89925313D01*
X100160498Y-89994180D01*
X100219463Y-90104494D01*
X100298815Y-90201185D01*
X100395506Y-90280537D01*
X100505820Y-90339502D01*
X100625518Y-90375812D01*
X100750000Y-90388072D01*
X102450000Y-90388072D01*
X102574482Y-90375812D01*
X102694180Y-90339502D01*
X102804494Y-90280537D01*
X102901185Y-90201185D01*
X102980537Y-90104494D01*
X103039502Y-89994180D01*
X103075812Y-89874482D01*
X103088072Y-89750000D01*
X103088072Y-88391429D01*
X133740000Y-88391429D01*
X133740000Y-88708571D01*
X133801871Y-89019620D01*
X133923237Y-89312621D01*
X134099431Y-89576315D01*
X134323685Y-89800569D01*
X134587379Y-89976763D01*
X134880380Y-90098129D01*
X135191429Y-90160000D01*
X135508571Y-90160000D01*
X135819620Y-90098129D01*
X136112621Y-89976763D01*
X136376315Y-89800569D01*
X136600569Y-89576315D01*
X136776763Y-89312621D01*
X136898129Y-89019620D01*
X136960000Y-88708571D01*
X136960000Y-88391429D01*
X156600000Y-88391429D01*
X156600000Y-88708571D01*
X156661871Y-89019620D01*
X156783237Y-89312621D01*
X156959431Y-89576315D01*
X157183685Y-89800569D01*
X157447379Y-89976763D01*
X157740380Y-90098129D01*
X158051429Y-90160000D01*
X158368571Y-90160000D01*
X158679620Y-90098129D01*
X158972621Y-89976763D01*
X159236315Y-89800569D01*
X159460569Y-89576315D01*
X159636763Y-89312621D01*
X159758129Y-89019620D01*
X159820000Y-88708571D01*
X159820000Y-88391429D01*
X159758129Y-88080380D01*
X159636763Y-87787379D01*
X159460569Y-87523685D01*
X159236315Y-87299431D01*
X158972621Y-87123237D01*
X158679620Y-87001871D01*
X158368571Y-86940000D01*
X158051429Y-86940000D01*
X157740380Y-87001871D01*
X157447379Y-87123237D01*
X157183685Y-87299431D01*
X156959431Y-87523685D01*
X156783237Y-87787379D01*
X156661871Y-88080380D01*
X156600000Y-88391429D01*
X136960000Y-88391429D01*
X136898129Y-88080380D01*
X136776763Y-87787379D01*
X136600569Y-87523685D01*
X136376315Y-87299431D01*
X136112621Y-87123237D01*
X135819620Y-87001871D01*
X135508571Y-86940000D01*
X135191429Y-86940000D01*
X134880380Y-87001871D01*
X134587379Y-87123237D01*
X134323685Y-87299431D01*
X134099431Y-87523685D01*
X133923237Y-87787379D01*
X133801871Y-88080380D01*
X133740000Y-88391429D01*
X103088072Y-88391429D01*
X103088072Y-88050000D01*
X103075812Y-87925518D01*
X103039502Y-87805820D01*
X102980537Y-87695506D01*
X102901185Y-87598815D01*
X102804494Y-87519463D01*
X102694180Y-87460498D01*
X102574482Y-87424188D01*
X102450000Y-87411928D01*
X100750000Y-87411928D01*
X100625518Y-87424188D01*
X100505820Y-87460498D01*
X100395506Y-87519463D01*
X100298815Y-87598815D01*
X100219463Y-87695506D01*
X100160498Y-87805820D01*
X100139607Y-87874687D01*
X100115134Y-87844866D01*
X99889014Y-87659294D01*
X99631034Y-87521401D01*
X99351111Y-87436487D01*
X99132950Y-87415000D01*
X98987050Y-87415000D01*
X98768889Y-87436487D01*
X98488966Y-87521401D01*
X98230986Y-87659294D01*
X98004866Y-87844866D01*
X97819294Y-88070986D01*
X97681401Y-88328966D01*
X97596487Y-88608889D01*
X97567815Y-88900000D01*
X96647000Y-88900000D01*
X96647000Y-82391429D01*
X119440000Y-82391429D01*
X119440000Y-82708571D01*
X119501871Y-83019620D01*
X119623237Y-83312621D01*
X119799431Y-83576315D01*
X120023685Y-83800569D01*
X120287379Y-83976763D01*
X120580380Y-84098129D01*
X120891429Y-84160000D01*
X121208571Y-84160000D01*
X121519620Y-84098129D01*
X121812621Y-83976763D01*
X122076315Y-83800569D01*
X122300569Y-83576315D01*
X122334856Y-83525000D01*
X131736928Y-83525000D01*
X131749188Y-83649482D01*
X131785498Y-83769180D01*
X131844463Y-83879494D01*
X131923815Y-83976185D01*
X132020506Y-84055537D01*
X132130820Y-84114502D01*
X132250518Y-84150812D01*
X132375000Y-84163072D01*
X133064250Y-84160000D01*
X133223000Y-84001250D01*
X133223000Y-82677000D01*
X133477000Y-82677000D01*
X133477000Y-84001250D01*
X133635750Y-84160000D01*
X134325000Y-84163072D01*
X134449482Y-84150812D01*
X134569180Y-84114502D01*
X134679494Y-84055537D01*
X134776185Y-83976185D01*
X134855537Y-83879494D01*
X134914502Y-83769180D01*
X134945320Y-83667584D01*
X142972021Y-83667584D01*
X143064766Y-83929429D01*
X143350120Y-84067820D01*
X143656990Y-84147883D01*
X143973584Y-84166540D01*
X144287733Y-84123074D01*
X144587367Y-84019156D01*
X144755234Y-83929429D01*
X144847979Y-83667584D01*
X144705395Y-83525000D01*
X154596928Y-83525000D01*
X154609188Y-83649482D01*
X154645498Y-83769180D01*
X154704463Y-83879494D01*
X154783815Y-83976185D01*
X154880506Y-84055537D01*
X154990820Y-84114502D01*
X155110518Y-84150812D01*
X155235000Y-84163072D01*
X155924250Y-84160000D01*
X156083000Y-84001250D01*
X156083000Y-82677000D01*
X156337000Y-82677000D01*
X156337000Y-84001250D01*
X156495750Y-84160000D01*
X157185000Y-84163072D01*
X157309482Y-84150812D01*
X157429180Y-84114502D01*
X157539494Y-84055537D01*
X157636185Y-83976185D01*
X157715537Y-83879494D01*
X157774502Y-83769180D01*
X157810812Y-83649482D01*
X157823072Y-83525000D01*
X157820000Y-82835750D01*
X157661250Y-82677000D01*
X156337000Y-82677000D01*
X156083000Y-82677000D01*
X154758750Y-82677000D01*
X154600000Y-82835750D01*
X154596928Y-83525000D01*
X144705395Y-83525000D01*
X143910000Y-82729605D01*
X142972021Y-83667584D01*
X134945320Y-83667584D01*
X134950812Y-83649482D01*
X134963072Y-83525000D01*
X134960000Y-82835750D01*
X134801250Y-82677000D01*
X133477000Y-82677000D01*
X133223000Y-82677000D01*
X131898750Y-82677000D01*
X131740000Y-82835750D01*
X131736928Y-83525000D01*
X122334856Y-83525000D01*
X122476763Y-83312621D01*
X122598129Y-83019620D01*
X122660000Y-82708571D01*
X122660000Y-82613584D01*
X142293460Y-82613584D01*
X142336926Y-82927733D01*
X142440844Y-83227367D01*
X142530571Y-83395234D01*
X142792416Y-83487979D01*
X143730395Y-82550000D01*
X144089605Y-82550000D01*
X145027584Y-83487979D01*
X145289429Y-83395234D01*
X145427820Y-83109880D01*
X145507883Y-82803010D01*
X145526540Y-82486416D01*
X145483074Y-82172267D01*
X145379156Y-81872633D01*
X145289429Y-81704766D01*
X145027584Y-81612021D01*
X144089605Y-82550000D01*
X143730395Y-82550000D01*
X142792416Y-81612021D01*
X142530571Y-81704766D01*
X142392180Y-81990120D01*
X142312117Y-82296990D01*
X142293460Y-82613584D01*
X122660000Y-82613584D01*
X122660000Y-82391429D01*
X122598129Y-82080380D01*
X122476763Y-81787379D01*
X122334857Y-81575000D01*
X131736928Y-81575000D01*
X131740000Y-82264250D01*
X131898750Y-82423000D01*
X133223000Y-82423000D01*
X133223000Y-81098750D01*
X133477000Y-81098750D01*
X133477000Y-82423000D01*
X134801250Y-82423000D01*
X134960000Y-82264250D01*
X134963072Y-81575000D01*
X134950812Y-81450518D01*
X134945321Y-81432416D01*
X142972021Y-81432416D01*
X143910000Y-82370395D01*
X144705395Y-81575000D01*
X154596928Y-81575000D01*
X154600000Y-82264250D01*
X154758750Y-82423000D01*
X156083000Y-82423000D01*
X156083000Y-81098750D01*
X156337000Y-81098750D01*
X156337000Y-82423000D01*
X157661250Y-82423000D01*
X157820000Y-82264250D01*
X157823072Y-81575000D01*
X157810812Y-81450518D01*
X157774502Y-81330820D01*
X157715537Y-81220506D01*
X157636185Y-81123815D01*
X157539494Y-81044463D01*
X157429180Y-80985498D01*
X157309482Y-80949188D01*
X157185000Y-80936928D01*
X156495750Y-80940000D01*
X156337000Y-81098750D01*
X156083000Y-81098750D01*
X155924250Y-80940000D01*
X155235000Y-80936928D01*
X155110518Y-80949188D01*
X154990820Y-80985498D01*
X154880506Y-81044463D01*
X154783815Y-81123815D01*
X154704463Y-81220506D01*
X154645498Y-81330820D01*
X154609188Y-81450518D01*
X154596928Y-81575000D01*
X144705395Y-81575000D01*
X144847979Y-81432416D01*
X144755234Y-81170571D01*
X144469880Y-81032180D01*
X144163010Y-80952117D01*
X143846416Y-80933460D01*
X143532267Y-80976926D01*
X143232633Y-81080844D01*
X143064766Y-81170571D01*
X142972021Y-81432416D01*
X134945321Y-81432416D01*
X134914502Y-81330820D01*
X134855537Y-81220506D01*
X134776185Y-81123815D01*
X134679494Y-81044463D01*
X134569180Y-80985498D01*
X134449482Y-80949188D01*
X134325000Y-80936928D01*
X133635750Y-80940000D01*
X133477000Y-81098750D01*
X133223000Y-81098750D01*
X133064250Y-80940000D01*
X132375000Y-80936928D01*
X132250518Y-80949188D01*
X132130820Y-80985498D01*
X132020506Y-81044463D01*
X131923815Y-81123815D01*
X131844463Y-81220506D01*
X131785498Y-81330820D01*
X131749188Y-81450518D01*
X131736928Y-81575000D01*
X122334857Y-81575000D01*
X122300569Y-81523685D01*
X122076315Y-81299431D01*
X121812621Y-81123237D01*
X121519620Y-81001871D01*
X121208571Y-80940000D01*
X120891429Y-80940000D01*
X120580380Y-81001871D01*
X120287379Y-81123237D01*
X120023685Y-81299431D01*
X119799431Y-81523685D01*
X119623237Y-81787379D01*
X119501871Y-82080380D01*
X119440000Y-82391429D01*
X96647000Y-82391429D01*
X96647000Y-76556890D01*
X97618524Y-76556890D01*
X97663175Y-76704099D01*
X97788359Y-76966920D01*
X97962412Y-77200269D01*
X98178645Y-77395178D01*
X98428748Y-77544157D01*
X98703109Y-77641481D01*
X98933000Y-77520814D01*
X98933000Y-76327000D01*
X99187000Y-76327000D01*
X99187000Y-77520814D01*
X99416891Y-77641481D01*
X99691252Y-77544157D01*
X99941355Y-77395178D01*
X100157588Y-77200269D01*
X100331641Y-76966920D01*
X100456825Y-76704099D01*
X100501476Y-76556890D01*
X102698524Y-76556890D01*
X102743175Y-76704099D01*
X102868359Y-76966920D01*
X103042412Y-77200269D01*
X103258645Y-77395178D01*
X103508748Y-77544157D01*
X103783109Y-77641481D01*
X104013000Y-77520814D01*
X104013000Y-76327000D01*
X104267000Y-76327000D01*
X104267000Y-77520814D01*
X104496891Y-77641481D01*
X104771252Y-77544157D01*
X105021355Y-77395178D01*
X105237588Y-77200269D01*
X105411641Y-76966920D01*
X105536825Y-76704099D01*
X105581476Y-76556890D01*
X107778524Y-76556890D01*
X107823175Y-76704099D01*
X107948359Y-76966920D01*
X108122412Y-77200269D01*
X108338645Y-77395178D01*
X108588748Y-77544157D01*
X108863109Y-77641481D01*
X109093000Y-77520814D01*
X109093000Y-76327000D01*
X109347000Y-76327000D01*
X109347000Y-77520814D01*
X109576891Y-77641481D01*
X109851252Y-77544157D01*
X110101355Y-77395178D01*
X110317588Y-77200269D01*
X110491641Y-76966920D01*
X110616825Y-76704099D01*
X110661476Y-76556890D01*
X112858524Y-76556890D01*
X112903175Y-76704099D01*
X113028359Y-76966920D01*
X113202412Y-77200269D01*
X113418645Y-77395178D01*
X113668748Y-77544157D01*
X113943109Y-77641481D01*
X114173000Y-77520814D01*
X114173000Y-76327000D01*
X114427000Y-76327000D01*
X114427000Y-77520814D01*
X114656891Y-77641481D01*
X114931252Y-77544157D01*
X115181355Y-77395178D01*
X115397588Y-77200269D01*
X115571641Y-76966920D01*
X115696825Y-76704099D01*
X115741476Y-76556890D01*
X117938524Y-76556890D01*
X117983175Y-76704099D01*
X118108359Y-76966920D01*
X118282412Y-77200269D01*
X118498645Y-77395178D01*
X118748748Y-77544157D01*
X119023109Y-77641481D01*
X119253000Y-77520814D01*
X119253000Y-76327000D01*
X119507000Y-76327000D01*
X119507000Y-77520814D01*
X119736891Y-77641481D01*
X120011252Y-77544157D01*
X120261355Y-77395178D01*
X120477588Y-77200269D01*
X120651641Y-76966920D01*
X120776825Y-76704099D01*
X120821476Y-76556890D01*
X120700155Y-76327000D01*
X119507000Y-76327000D01*
X119253000Y-76327000D01*
X118059845Y-76327000D01*
X117938524Y-76556890D01*
X115741476Y-76556890D01*
X115620155Y-76327000D01*
X114427000Y-76327000D01*
X114173000Y-76327000D01*
X112979845Y-76327000D01*
X112858524Y-76556890D01*
X110661476Y-76556890D01*
X110540155Y-76327000D01*
X109347000Y-76327000D01*
X109093000Y-76327000D01*
X107899845Y-76327000D01*
X107778524Y-76556890D01*
X105581476Y-76556890D01*
X105460155Y-76327000D01*
X104267000Y-76327000D01*
X104013000Y-76327000D01*
X102819845Y-76327000D01*
X102698524Y-76556890D01*
X100501476Y-76556890D01*
X100380155Y-76327000D01*
X99187000Y-76327000D01*
X98933000Y-76327000D01*
X97739845Y-76327000D01*
X97618524Y-76556890D01*
X96647000Y-76556890D01*
X96647000Y-73660000D01*
X97567815Y-73660000D01*
X97596487Y-73951111D01*
X97681401Y-74231034D01*
X97819294Y-74489014D01*
X98004866Y-74715134D01*
X98230986Y-74900706D01*
X98295523Y-74935201D01*
X98178645Y-75004822D01*
X97962412Y-75199731D01*
X97788359Y-75433080D01*
X97663175Y-75695901D01*
X97618524Y-75843110D01*
X97739845Y-76073000D01*
X98933000Y-76073000D01*
X98933000Y-76053000D01*
X99187000Y-76053000D01*
X99187000Y-76073000D01*
X100380155Y-76073000D01*
X100501476Y-75843110D01*
X100456825Y-75695901D01*
X100331641Y-75433080D01*
X100157588Y-75199731D01*
X99941355Y-75004822D01*
X99824477Y-74935201D01*
X99889014Y-74900706D01*
X100115134Y-74715134D01*
X100300706Y-74489014D01*
X100438599Y-74231034D01*
X100523513Y-73951111D01*
X100552185Y-73660000D01*
X102647815Y-73660000D01*
X102676487Y-73951111D01*
X102761401Y-74231034D01*
X102899294Y-74489014D01*
X103084866Y-74715134D01*
X103310986Y-74900706D01*
X103375523Y-74935201D01*
X103258645Y-75004822D01*
X103042412Y-75199731D01*
X102868359Y-75433080D01*
X102743175Y-75695901D01*
X102698524Y-75843110D01*
X102819845Y-76073000D01*
X104013000Y-76073000D01*
X104013000Y-76053000D01*
X104267000Y-76053000D01*
X104267000Y-76073000D01*
X105460155Y-76073000D01*
X105581476Y-75843110D01*
X105536825Y-75695901D01*
X105411641Y-75433080D01*
X105237588Y-75199731D01*
X105021355Y-75004822D01*
X104904477Y-74935201D01*
X104969014Y-74900706D01*
X105195134Y-74715134D01*
X105380706Y-74489014D01*
X105518599Y-74231034D01*
X105603513Y-73951111D01*
X105632185Y-73660000D01*
X107727815Y-73660000D01*
X107756487Y-73951111D01*
X107841401Y-74231034D01*
X107979294Y-74489014D01*
X108164866Y-74715134D01*
X108390986Y-74900706D01*
X108455523Y-74935201D01*
X108338645Y-75004822D01*
X108122412Y-75199731D01*
X107948359Y-75433080D01*
X107823175Y-75695901D01*
X107778524Y-75843110D01*
X107899845Y-76073000D01*
X109093000Y-76073000D01*
X109093000Y-76053000D01*
X109347000Y-76053000D01*
X109347000Y-76073000D01*
X110540155Y-76073000D01*
X110661476Y-75843110D01*
X110616825Y-75695901D01*
X110491641Y-75433080D01*
X110317588Y-75199731D01*
X110101355Y-75004822D01*
X109984477Y-74935201D01*
X110049014Y-74900706D01*
X110275134Y-74715134D01*
X110460706Y-74489014D01*
X110598599Y-74231034D01*
X110683513Y-73951111D01*
X110712185Y-73660000D01*
X112807815Y-73660000D01*
X112836487Y-73951111D01*
X112921401Y-74231034D01*
X113059294Y-74489014D01*
X113244866Y-74715134D01*
X113470986Y-74900706D01*
X113535523Y-74935201D01*
X113418645Y-75004822D01*
X113202412Y-75199731D01*
X113028359Y-75433080D01*
X112903175Y-75695901D01*
X112858524Y-75843110D01*
X112979845Y-76073000D01*
X114173000Y-76073000D01*
X114173000Y-76053000D01*
X114427000Y-76053000D01*
X114427000Y-76073000D01*
X115620155Y-76073000D01*
X115741476Y-75843110D01*
X115696825Y-75695901D01*
X115571641Y-75433080D01*
X115397588Y-75199731D01*
X115181355Y-75004822D01*
X115064477Y-74935201D01*
X115129014Y-74900706D01*
X115355134Y-74715134D01*
X115540706Y-74489014D01*
X115678599Y-74231034D01*
X115763513Y-73951111D01*
X115792185Y-73660000D01*
X117887815Y-73660000D01*
X117916487Y-73951111D01*
X118001401Y-74231034D01*
X118139294Y-74489014D01*
X118324866Y-74715134D01*
X118550986Y-74900706D01*
X118615523Y-74935201D01*
X118498645Y-75004822D01*
X118282412Y-75199731D01*
X118108359Y-75433080D01*
X117983175Y-75695901D01*
X117938524Y-75843110D01*
X118059845Y-76073000D01*
X119253000Y-76073000D01*
X119253000Y-76053000D01*
X119507000Y-76053000D01*
X119507000Y-76073000D01*
X120700155Y-76073000D01*
X120821476Y-75843110D01*
X120776825Y-75695901D01*
X120651641Y-75433080D01*
X120477588Y-75199731D01*
X120261355Y-75004822D01*
X120144477Y-74935201D01*
X120209014Y-74900706D01*
X120435134Y-74715134D01*
X120620706Y-74489014D01*
X120758599Y-74231034D01*
X120843513Y-73951111D01*
X120872185Y-73660000D01*
X120843513Y-73368889D01*
X120758599Y-73088966D01*
X120620706Y-72830986D01*
X120435134Y-72604866D01*
X120405313Y-72580393D01*
X120474180Y-72559502D01*
X120584494Y-72500537D01*
X120681185Y-72421185D01*
X120760537Y-72324494D01*
X120819502Y-72214180D01*
X120855812Y-72094482D01*
X120868072Y-71970000D01*
X120868072Y-70270000D01*
X120855812Y-70145518D01*
X120819502Y-70025820D01*
X120760537Y-69915506D01*
X120681185Y-69818815D01*
X120609519Y-69760000D01*
X123081928Y-69760000D01*
X123081928Y-71360000D01*
X123094188Y-71484482D01*
X123130498Y-71604180D01*
X123189463Y-71714494D01*
X123268815Y-71811185D01*
X123365506Y-71890537D01*
X123475820Y-71949502D01*
X123595518Y-71985812D01*
X123720000Y-71998072D01*
X125320000Y-71998072D01*
X125444482Y-71985812D01*
X125564180Y-71949502D01*
X125674494Y-71890537D01*
X125771185Y-71811185D01*
X125850537Y-71714494D01*
X125909502Y-71604180D01*
X125945812Y-71484482D01*
X125947581Y-71466518D01*
X126040392Y-71579608D01*
X126258899Y-71758932D01*
X126508192Y-71892182D01*
X126778691Y-71974236D01*
X126989508Y-71995000D01*
X127130492Y-71995000D01*
X127341309Y-71974236D01*
X127611808Y-71892182D01*
X127861101Y-71758932D01*
X128079608Y-71579608D01*
X128258932Y-71361101D01*
X128330000Y-71228142D01*
X128401068Y-71361101D01*
X128580392Y-71579608D01*
X128798899Y-71758932D01*
X129048192Y-71892182D01*
X129318691Y-71974236D01*
X129529508Y-71995000D01*
X129670492Y-71995000D01*
X129881309Y-71974236D01*
X130151808Y-71892182D01*
X130401101Y-71758932D01*
X130619608Y-71579608D01*
X130798932Y-71361101D01*
X130870000Y-71228142D01*
X130941068Y-71361101D01*
X131120392Y-71579608D01*
X131338899Y-71758932D01*
X131588192Y-71892182D01*
X131858691Y-71974236D01*
X132069508Y-71995000D01*
X132210492Y-71995000D01*
X132421309Y-71974236D01*
X132691808Y-71892182D01*
X132941101Y-71758932D01*
X133159608Y-71579608D01*
X133338932Y-71361101D01*
X133410000Y-71228142D01*
X133481068Y-71361101D01*
X133660392Y-71579608D01*
X133878899Y-71758932D01*
X134128192Y-71892182D01*
X134398691Y-71974236D01*
X134609508Y-71995000D01*
X134750492Y-71995000D01*
X134961309Y-71974236D01*
X135231808Y-71892182D01*
X135481101Y-71758932D01*
X135699608Y-71579608D01*
X135878932Y-71361101D01*
X135952579Y-71223318D01*
X136067615Y-71415131D01*
X136256586Y-71623519D01*
X136482580Y-71791037D01*
X136736913Y-71911246D01*
X136870961Y-71951904D01*
X137093000Y-71829915D01*
X137093000Y-70687000D01*
X137347000Y-70687000D01*
X137347000Y-71829915D01*
X137569039Y-71951904D01*
X137703087Y-71911246D01*
X137957420Y-71791037D01*
X138183414Y-71623519D01*
X138372385Y-71415131D01*
X138490000Y-71219018D01*
X138607615Y-71415131D01*
X138796586Y-71623519D01*
X139022580Y-71791037D01*
X139276913Y-71911246D01*
X139410961Y-71951904D01*
X139633000Y-71829915D01*
X139633000Y-70687000D01*
X137347000Y-70687000D01*
X137093000Y-70687000D01*
X137073000Y-70687000D01*
X137073000Y-70433000D01*
X137093000Y-70433000D01*
X137093000Y-69290085D01*
X137347000Y-69290085D01*
X137347000Y-70433000D01*
X139633000Y-70433000D01*
X139633000Y-69290085D01*
X139887000Y-69290085D01*
X139887000Y-70433000D01*
X139907000Y-70433000D01*
X139907000Y-70687000D01*
X139887000Y-70687000D01*
X139887000Y-71829915D01*
X140109039Y-71951904D01*
X140243087Y-71911246D01*
X140497420Y-71791037D01*
X140723414Y-71623519D01*
X140912385Y-71415131D01*
X141027421Y-71223318D01*
X141101068Y-71361101D01*
X141280392Y-71579608D01*
X141498899Y-71758932D01*
X141748192Y-71892182D01*
X142018691Y-71974236D01*
X142229508Y-71995000D01*
X142370492Y-71995000D01*
X142581309Y-71974236D01*
X142851808Y-71892182D01*
X143101101Y-71758932D01*
X143319608Y-71579608D01*
X143498932Y-71361101D01*
X143632182Y-71111808D01*
X143714236Y-70841309D01*
X143741943Y-70560000D01*
X145938057Y-70560000D01*
X145965764Y-70841309D01*
X146047818Y-71111808D01*
X146181068Y-71361101D01*
X146360392Y-71579608D01*
X146578899Y-71758932D01*
X146828192Y-71892182D01*
X147098691Y-71974236D01*
X147309508Y-71995000D01*
X147450492Y-71995000D01*
X147661309Y-71974236D01*
X147931808Y-71892182D01*
X148181101Y-71758932D01*
X148399608Y-71579608D01*
X148578932Y-71361101D01*
X148650000Y-71228142D01*
X148721068Y-71361101D01*
X148900392Y-71579608D01*
X149118899Y-71758932D01*
X149368192Y-71892182D01*
X149638691Y-71974236D01*
X149849508Y-71995000D01*
X149990492Y-71995000D01*
X150201309Y-71974236D01*
X150471808Y-71892182D01*
X150721101Y-71758932D01*
X150939608Y-71579608D01*
X151118932Y-71361101D01*
X151190000Y-71228142D01*
X151261068Y-71361101D01*
X151440392Y-71579608D01*
X151658899Y-71758932D01*
X151908192Y-71892182D01*
X152178691Y-71974236D01*
X152389508Y-71995000D01*
X152530492Y-71995000D01*
X152741309Y-71974236D01*
X153011808Y-71892182D01*
X153261101Y-71758932D01*
X153479608Y-71579608D01*
X153658932Y-71361101D01*
X153730000Y-71228142D01*
X153801068Y-71361101D01*
X153980392Y-71579608D01*
X154198899Y-71758932D01*
X154448192Y-71892182D01*
X154718691Y-71974236D01*
X154929508Y-71995000D01*
X155070492Y-71995000D01*
X155281309Y-71974236D01*
X155551808Y-71892182D01*
X155801101Y-71758932D01*
X156019608Y-71579608D01*
X156198932Y-71361101D01*
X156270000Y-71228142D01*
X156341068Y-71361101D01*
X156520392Y-71579608D01*
X156738899Y-71758932D01*
X156988192Y-71892182D01*
X157258691Y-71974236D01*
X157469508Y-71995000D01*
X157610492Y-71995000D01*
X157821309Y-71974236D01*
X158091808Y-71892182D01*
X158341101Y-71758932D01*
X158559608Y-71579608D01*
X158738932Y-71361101D01*
X158810000Y-71228142D01*
X158881068Y-71361101D01*
X159060392Y-71579608D01*
X159278899Y-71758932D01*
X159528192Y-71892182D01*
X159798691Y-71974236D01*
X160009508Y-71995000D01*
X160150492Y-71995000D01*
X160361309Y-71974236D01*
X160631808Y-71892182D01*
X160881101Y-71758932D01*
X161099608Y-71579608D01*
X161278932Y-71361101D01*
X161412182Y-71111808D01*
X161494236Y-70841309D01*
X161521943Y-70560000D01*
X161494236Y-70278691D01*
X161412182Y-70008192D01*
X161278932Y-69758899D01*
X161099608Y-69540392D01*
X160881101Y-69361068D01*
X160631808Y-69227818D01*
X160361309Y-69145764D01*
X160150492Y-69125000D01*
X160009508Y-69125000D01*
X159798691Y-69145764D01*
X159528192Y-69227818D01*
X159278899Y-69361068D01*
X159060392Y-69540392D01*
X158881068Y-69758899D01*
X158810000Y-69891858D01*
X158738932Y-69758899D01*
X158559608Y-69540392D01*
X158341101Y-69361068D01*
X158091808Y-69227818D01*
X157821309Y-69145764D01*
X157610492Y-69125000D01*
X157469508Y-69125000D01*
X157258691Y-69145764D01*
X156988192Y-69227818D01*
X156738899Y-69361068D01*
X156520392Y-69540392D01*
X156341068Y-69758899D01*
X156270000Y-69891858D01*
X156198932Y-69758899D01*
X156019608Y-69540392D01*
X155801101Y-69361068D01*
X155551808Y-69227818D01*
X155281309Y-69145764D01*
X155070492Y-69125000D01*
X154929508Y-69125000D01*
X154718691Y-69145764D01*
X154448192Y-69227818D01*
X154198899Y-69361068D01*
X153980392Y-69540392D01*
X153801068Y-69758899D01*
X153730000Y-69891858D01*
X153658932Y-69758899D01*
X153479608Y-69540392D01*
X153261101Y-69361068D01*
X153011808Y-69227818D01*
X152741309Y-69145764D01*
X152530492Y-69125000D01*
X152389508Y-69125000D01*
X152178691Y-69145764D01*
X151908192Y-69227818D01*
X151658899Y-69361068D01*
X151440392Y-69540392D01*
X151261068Y-69758899D01*
X151190000Y-69891858D01*
X151118932Y-69758899D01*
X150939608Y-69540392D01*
X150721101Y-69361068D01*
X150471808Y-69227818D01*
X150201309Y-69145764D01*
X149990492Y-69125000D01*
X149849508Y-69125000D01*
X149638691Y-69145764D01*
X149368192Y-69227818D01*
X149118899Y-69361068D01*
X148900392Y-69540392D01*
X148721068Y-69758899D01*
X148650000Y-69891858D01*
X148578932Y-69758899D01*
X148399608Y-69540392D01*
X148181101Y-69361068D01*
X147931808Y-69227818D01*
X147661309Y-69145764D01*
X147450492Y-69125000D01*
X147309508Y-69125000D01*
X147098691Y-69145764D01*
X146828192Y-69227818D01*
X146578899Y-69361068D01*
X146360392Y-69540392D01*
X146181068Y-69758899D01*
X146047818Y-70008192D01*
X145965764Y-70278691D01*
X145938057Y-70560000D01*
X143741943Y-70560000D01*
X143714236Y-70278691D01*
X143632182Y-70008192D01*
X143498932Y-69758899D01*
X143319608Y-69540392D01*
X143101101Y-69361068D01*
X142851808Y-69227818D01*
X142581309Y-69145764D01*
X142370492Y-69125000D01*
X142229508Y-69125000D01*
X142018691Y-69145764D01*
X141748192Y-69227818D01*
X141498899Y-69361068D01*
X141280392Y-69540392D01*
X141101068Y-69758899D01*
X141027421Y-69896682D01*
X140912385Y-69704869D01*
X140723414Y-69496481D01*
X140497420Y-69328963D01*
X140243087Y-69208754D01*
X140109039Y-69168096D01*
X139887000Y-69290085D01*
X139633000Y-69290085D01*
X139410961Y-69168096D01*
X139276913Y-69208754D01*
X139022580Y-69328963D01*
X138796586Y-69496481D01*
X138607615Y-69704869D01*
X138490000Y-69900982D01*
X138372385Y-69704869D01*
X138183414Y-69496481D01*
X137957420Y-69328963D01*
X137703087Y-69208754D01*
X137569039Y-69168096D01*
X137347000Y-69290085D01*
X137093000Y-69290085D01*
X136870961Y-69168096D01*
X136736913Y-69208754D01*
X136482580Y-69328963D01*
X136256586Y-69496481D01*
X136067615Y-69704869D01*
X135952579Y-69896682D01*
X135878932Y-69758899D01*
X135699608Y-69540392D01*
X135481101Y-69361068D01*
X135231808Y-69227818D01*
X134961309Y-69145764D01*
X134750492Y-69125000D01*
X134609508Y-69125000D01*
X134398691Y-69145764D01*
X134128192Y-69227818D01*
X133878899Y-69361068D01*
X133660392Y-69540392D01*
X133481068Y-69758899D01*
X133410000Y-69891858D01*
X133338932Y-69758899D01*
X133159608Y-69540392D01*
X132941101Y-69361068D01*
X132691808Y-69227818D01*
X132421309Y-69145764D01*
X132210492Y-69125000D01*
X132069508Y-69125000D01*
X131858691Y-69145764D01*
X131588192Y-69227818D01*
X131338899Y-69361068D01*
X131120392Y-69540392D01*
X130941068Y-69758899D01*
X130870000Y-69891858D01*
X130798932Y-69758899D01*
X130619608Y-69540392D01*
X130401101Y-69361068D01*
X130151808Y-69227818D01*
X129881309Y-69145764D01*
X129670492Y-69125000D01*
X129529508Y-69125000D01*
X129318691Y-69145764D01*
X129048192Y-69227818D01*
X128798899Y-69361068D01*
X128580392Y-69540392D01*
X128401068Y-69758899D01*
X128330000Y-69891858D01*
X128258932Y-69758899D01*
X128079608Y-69540392D01*
X127861101Y-69361068D01*
X127611808Y-69227818D01*
X127341309Y-69145764D01*
X127130492Y-69125000D01*
X126989508Y-69125000D01*
X126778691Y-69145764D01*
X126508192Y-69227818D01*
X126258899Y-69361068D01*
X126040392Y-69540392D01*
X125947581Y-69653482D01*
X125945812Y-69635518D01*
X125909502Y-69515820D01*
X125850537Y-69405506D01*
X125771185Y-69308815D01*
X125674494Y-69229463D01*
X125564180Y-69170498D01*
X125444482Y-69134188D01*
X125320000Y-69121928D01*
X123720000Y-69121928D01*
X123595518Y-69134188D01*
X123475820Y-69170498D01*
X123365506Y-69229463D01*
X123268815Y-69308815D01*
X123189463Y-69405506D01*
X123130498Y-69515820D01*
X123094188Y-69635518D01*
X123081928Y-69760000D01*
X120609519Y-69760000D01*
X120584494Y-69739463D01*
X120474180Y-69680498D01*
X120354482Y-69644188D01*
X120230000Y-69631928D01*
X118530000Y-69631928D01*
X118405518Y-69644188D01*
X118285820Y-69680498D01*
X118175506Y-69739463D01*
X118078815Y-69818815D01*
X117999463Y-69915506D01*
X117940498Y-70025820D01*
X117904188Y-70145518D01*
X117891928Y-70270000D01*
X117891928Y-71970000D01*
X117904188Y-72094482D01*
X117940498Y-72214180D01*
X117999463Y-72324494D01*
X118078815Y-72421185D01*
X118175506Y-72500537D01*
X118285820Y-72559502D01*
X118354687Y-72580393D01*
X118324866Y-72604866D01*
X118139294Y-72830986D01*
X118001401Y-73088966D01*
X117916487Y-73368889D01*
X117887815Y-73660000D01*
X115792185Y-73660000D01*
X115763513Y-73368889D01*
X115678599Y-73088966D01*
X115540706Y-72830986D01*
X115355134Y-72604866D01*
X115325313Y-72580393D01*
X115394180Y-72559502D01*
X115504494Y-72500537D01*
X115601185Y-72421185D01*
X115680537Y-72324494D01*
X115739502Y-72214180D01*
X115775812Y-72094482D01*
X115788072Y-71970000D01*
X115788072Y-70270000D01*
X115775812Y-70145518D01*
X115739502Y-70025820D01*
X115680537Y-69915506D01*
X115601185Y-69818815D01*
X115504494Y-69739463D01*
X115394180Y-69680498D01*
X115274482Y-69644188D01*
X115150000Y-69631928D01*
X113450000Y-69631928D01*
X113325518Y-69644188D01*
X113205820Y-69680498D01*
X113095506Y-69739463D01*
X112998815Y-69818815D01*
X112919463Y-69915506D01*
X112860498Y-70025820D01*
X112824188Y-70145518D01*
X112811928Y-70270000D01*
X112811928Y-71970000D01*
X112824188Y-72094482D01*
X112860498Y-72214180D01*
X112919463Y-72324494D01*
X112998815Y-72421185D01*
X113095506Y-72500537D01*
X113205820Y-72559502D01*
X113274687Y-72580393D01*
X113244866Y-72604866D01*
X113059294Y-72830986D01*
X112921401Y-73088966D01*
X112836487Y-73368889D01*
X112807815Y-73660000D01*
X110712185Y-73660000D01*
X110683513Y-73368889D01*
X110598599Y-73088966D01*
X110460706Y-72830986D01*
X110275134Y-72604866D01*
X110245313Y-72580393D01*
X110314180Y-72559502D01*
X110424494Y-72500537D01*
X110521185Y-72421185D01*
X110600537Y-72324494D01*
X110659502Y-72214180D01*
X110695812Y-72094482D01*
X110708072Y-71970000D01*
X110708072Y-70270000D01*
X110695812Y-70145518D01*
X110659502Y-70025820D01*
X110600537Y-69915506D01*
X110521185Y-69818815D01*
X110424494Y-69739463D01*
X110314180Y-69680498D01*
X110194482Y-69644188D01*
X110070000Y-69631928D01*
X108370000Y-69631928D01*
X108245518Y-69644188D01*
X108125820Y-69680498D01*
X108015506Y-69739463D01*
X107918815Y-69818815D01*
X107839463Y-69915506D01*
X107780498Y-70025820D01*
X107744188Y-70145518D01*
X107731928Y-70270000D01*
X107731928Y-71970000D01*
X107744188Y-72094482D01*
X107780498Y-72214180D01*
X107839463Y-72324494D01*
X107918815Y-72421185D01*
X108015506Y-72500537D01*
X108125820Y-72559502D01*
X108194687Y-72580393D01*
X108164866Y-72604866D01*
X107979294Y-72830986D01*
X107841401Y-73088966D01*
X107756487Y-73368889D01*
X107727815Y-73660000D01*
X105632185Y-73660000D01*
X105603513Y-73368889D01*
X105518599Y-73088966D01*
X105380706Y-72830986D01*
X105195134Y-72604866D01*
X105165313Y-72580393D01*
X105234180Y-72559502D01*
X105344494Y-72500537D01*
X105441185Y-72421185D01*
X105520537Y-72324494D01*
X105579502Y-72214180D01*
X105615812Y-72094482D01*
X105628072Y-71970000D01*
X105628072Y-70270000D01*
X105615812Y-70145518D01*
X105579502Y-70025820D01*
X105520537Y-69915506D01*
X105441185Y-69818815D01*
X105344494Y-69739463D01*
X105234180Y-69680498D01*
X105114482Y-69644188D01*
X104990000Y-69631928D01*
X103290000Y-69631928D01*
X103165518Y-69644188D01*
X103045820Y-69680498D01*
X102935506Y-69739463D01*
X102838815Y-69818815D01*
X102759463Y-69915506D01*
X102700498Y-70025820D01*
X102664188Y-70145518D01*
X102651928Y-70270000D01*
X102651928Y-71970000D01*
X102664188Y-72094482D01*
X102700498Y-72214180D01*
X102759463Y-72324494D01*
X102838815Y-72421185D01*
X102935506Y-72500537D01*
X103045820Y-72559502D01*
X103114687Y-72580393D01*
X103084866Y-72604866D01*
X102899294Y-72830986D01*
X102761401Y-73088966D01*
X102676487Y-73368889D01*
X102647815Y-73660000D01*
X100552185Y-73660000D01*
X100523513Y-73368889D01*
X100438599Y-73088966D01*
X100300706Y-72830986D01*
X100115134Y-72604866D01*
X100085313Y-72580393D01*
X100154180Y-72559502D01*
X100264494Y-72500537D01*
X100361185Y-72421185D01*
X100440537Y-72324494D01*
X100499502Y-72214180D01*
X100535812Y-72094482D01*
X100548072Y-71970000D01*
X100548072Y-70270000D01*
X100535812Y-70145518D01*
X100499502Y-70025820D01*
X100440537Y-69915506D01*
X100361185Y-69818815D01*
X100264494Y-69739463D01*
X100154180Y-69680498D01*
X100034482Y-69644188D01*
X99910000Y-69631928D01*
X98210000Y-69631928D01*
X98085518Y-69644188D01*
X97965820Y-69680498D01*
X97855506Y-69739463D01*
X97758815Y-69818815D01*
X97679463Y-69915506D01*
X97620498Y-70025820D01*
X97584188Y-70145518D01*
X97571928Y-70270000D01*
X97571928Y-71970000D01*
X97584188Y-72094482D01*
X97620498Y-72214180D01*
X97679463Y-72324494D01*
X97758815Y-72421185D01*
X97855506Y-72500537D01*
X97965820Y-72559502D01*
X98034687Y-72580393D01*
X98004866Y-72604866D01*
X97819294Y-72830986D01*
X97681401Y-73088966D01*
X97596487Y-73368889D01*
X97567815Y-73660000D01*
X96647000Y-73660000D01*
X96647000Y-67437000D01*
X162433000Y-67437000D01*
X162433000Y-120523000D01*
X162433000Y-120523000D01*
G37*
X162433000Y-120523000D02*
X96647000Y-120523000D01*
X96647000Y-118990728D01*
X96705016Y-119099268D01*
X96735174Y-119136015D01*
X96799989Y-119214993D01*
X96828992Y-119238795D01*
X97386199Y-119796003D01*
X97409998Y-119825002D01*
X97438996Y-119848800D01*
X97525722Y-119919975D01*
X97657752Y-119990547D01*
X97801013Y-120034004D01*
X97912666Y-120045001D01*
X97912676Y-120045001D01*
X97949998Y-120048677D01*
X97987321Y-120045001D01*
X101657677Y-120045001D01*
X101694999Y-120048677D01*
X101732321Y-120045001D01*
X101732332Y-120045001D01*
X101843985Y-120034004D01*
X101987246Y-119990547D01*
X102119275Y-119919975D01*
X102235000Y-119825002D01*
X102258803Y-119795998D01*
X103925000Y-118129802D01*
X103925000Y-118237002D01*
X104083748Y-118237002D01*
X103925000Y-118395750D01*
X103921928Y-118960000D01*
X103934188Y-119084482D01*
X103970498Y-119204180D01*
X104029463Y-119314494D01*
X104108815Y-119411185D01*
X104205506Y-119490537D01*
X104315820Y-119549502D01*
X104435518Y-119585812D01*
X104560000Y-119598072D01*
X105124250Y-119595000D01*
X105283000Y-119436250D01*
X105283000Y-118237000D01*
X105537000Y-118237000D01*
X105537000Y-119436250D01*
X105695750Y-119595000D01*
X106260000Y-119598072D01*
X106384482Y-119585812D01*
X106504180Y-119549502D01*
X106614494Y-119490537D01*
X106711185Y-119411185D01*
X106790537Y-119314494D01*
X106849502Y-119204180D01*
X106885812Y-119084482D01*
X106898072Y-118960000D01*
X106895000Y-118395750D01*
X106736250Y-118237000D01*
X105537000Y-118237000D01*
X105283000Y-118237000D01*
X105263000Y-118237000D01*
X105263000Y-117983000D01*
X105283000Y-117983000D01*
X105283000Y-117963000D01*
X105537000Y-117963000D01*
X105537000Y-117983000D01*
X106736250Y-117983000D01*
X106895000Y-117824250D01*
X106898072Y-117260000D01*
X106885812Y-117135518D01*
X106849502Y-117015820D01*
X106790537Y-116905506D01*
X106711185Y-116808815D01*
X106614494Y-116729463D01*
X106504180Y-116670498D01*
X106435313Y-116649607D01*
X106465134Y-116625134D01*
X106650706Y-116399014D01*
X106788599Y-116141034D01*
X106873513Y-115861111D01*
X106902185Y-115570000D01*
X110267815Y-115570000D01*
X110296487Y-115861111D01*
X110381401Y-116141034D01*
X110519294Y-116399014D01*
X110704866Y-116625134D01*
X110734687Y-116649607D01*
X110665820Y-116670498D01*
X110555506Y-116729463D01*
X110458815Y-116808815D01*
X110379463Y-116905506D01*
X110320498Y-117015820D01*
X110284188Y-117135518D01*
X110271928Y-117260000D01*
X110271928Y-118960000D01*
X110284188Y-119084482D01*
X110320498Y-119204180D01*
X110379463Y-119314494D01*
X110458815Y-119411185D01*
X110555506Y-119490537D01*
X110665820Y-119549502D01*
X110785518Y-119585812D01*
X110910000Y-119598072D01*
X112610000Y-119598072D01*
X112734482Y-119585812D01*
X112854180Y-119549502D01*
X112964494Y-119490537D01*
X113061185Y-119411185D01*
X113140537Y-119314494D01*
X113199502Y-119204180D01*
X113235812Y-119084482D01*
X113248072Y-118960000D01*
X113248072Y-118820000D01*
X113938057Y-118820000D01*
X113965764Y-119101309D01*
X114047818Y-119371808D01*
X114181068Y-119621101D01*
X114360392Y-119839608D01*
X114578899Y-120018932D01*
X114828192Y-120152182D01*
X115098691Y-120234236D01*
X115309508Y-120255000D01*
X115450492Y-120255000D01*
X115661309Y-120234236D01*
X115931808Y-120152182D01*
X116181101Y-120018932D01*
X116399608Y-119839608D01*
X116578932Y-119621101D01*
X116650000Y-119488142D01*
X116721068Y-119621101D01*
X116900392Y-119839608D01*
X117118899Y-120018932D01*
X117368192Y-120152182D01*
X117638691Y-120234236D01*
X117849508Y-120255000D01*
X117990492Y-120255000D01*
X118201309Y-120234236D01*
X118471808Y-120152182D01*
X118721101Y-120018932D01*
X118939608Y-119839608D01*
X119118932Y-119621101D01*
X119190000Y-119488142D01*
X119261068Y-119621101D01*
X119440392Y-119839608D01*
X119658899Y-120018932D01*
X119908192Y-120152182D01*
X120178691Y-120234236D01*
X120389508Y-120255000D01*
X120530492Y-120255000D01*
X120741309Y-120234236D01*
X121011808Y-120152182D01*
X121261101Y-120018932D01*
X121479608Y-119839608D01*
X121658932Y-119621101D01*
X121732579Y-119483318D01*
X121847615Y-119675131D01*
X122036586Y-119883519D01*
X122262580Y-120051037D01*
X122516913Y-120171246D01*
X122650961Y-120211904D01*
X122873000Y-120089915D01*
X122873000Y-118947000D01*
X122853000Y-118947000D01*
X122853000Y-118693000D01*
X122873000Y-118693000D01*
X122873000Y-117550085D01*
X123127000Y-117550085D01*
X123127000Y-118693000D01*
X123147000Y-118693000D01*
X123147000Y-118947000D01*
X123127000Y-118947000D01*
X123127000Y-120089915D01*
X123349039Y-120211904D01*
X123483087Y-120171246D01*
X123737420Y-120051037D01*
X123963414Y-119883519D01*
X124152385Y-119675131D01*
X124267421Y-119483318D01*
X124341068Y-119621101D01*
X124520392Y-119839608D01*
X124738899Y-120018932D01*
X124988192Y-120152182D01*
X125258691Y-120234236D01*
X125469508Y-120255000D01*
X125610492Y-120255000D01*
X125821309Y-120234236D01*
X126091808Y-120152182D01*
X126341101Y-120018932D01*
X126559608Y-119839608D01*
X126738932Y-119621101D01*
X126810000Y-119488142D01*
X126881068Y-119621101D01*
X127060392Y-119839608D01*
X127278899Y-120018932D01*
X127528192Y-120152182D01*
X127798691Y-120234236D01*
X128009508Y-120255000D01*
X128150492Y-120255000D01*
X128361309Y-120234236D01*
X128631808Y-120152182D01*
X128881101Y-120018932D01*
X129099608Y-119839608D01*
X129278932Y-119621101D01*
X129350000Y-119488142D01*
X129421068Y-119621101D01*
X129600392Y-119839608D01*
X129818899Y-120018932D01*
X130068192Y-120152182D01*
X130338691Y-120234236D01*
X130549508Y-120255000D01*
X130690492Y-120255000D01*
X130901309Y-120234236D01*
X131171808Y-120152182D01*
X131421101Y-120018932D01*
X131639608Y-119839608D01*
X131818932Y-119621101D01*
X131890000Y-119488142D01*
X131961068Y-119621101D01*
X132140392Y-119839608D01*
X132358899Y-120018932D01*
X132608192Y-120152182D01*
X132878691Y-120234236D01*
X133089508Y-120255000D01*
X133230492Y-120255000D01*
X133441309Y-120234236D01*
X133711808Y-120152182D01*
X133961101Y-120018932D01*
X134179608Y-119839608D01*
X134358932Y-119621101D01*
X134430000Y-119488142D01*
X134501068Y-119621101D01*
X134680392Y-119839608D01*
X134898899Y-120018932D01*
X135148192Y-120152182D01*
X135418691Y-120234236D01*
X135629508Y-120255000D01*
X135770492Y-120255000D01*
X135981309Y-120234236D01*
X136251808Y-120152182D01*
X136501101Y-120018932D01*
X136719608Y-119839608D01*
X136898932Y-119621101D01*
X136970000Y-119488142D01*
X137041068Y-119621101D01*
X137220392Y-119839608D01*
X137438899Y-120018932D01*
X137688192Y-120152182D01*
X137958691Y-120234236D01*
X138169508Y-120255000D01*
X138310492Y-120255000D01*
X138521309Y-120234236D01*
X138791808Y-120152182D01*
X139041101Y-120018932D01*
X139259608Y-119839608D01*
X139438932Y-119621101D01*
X139572182Y-119371808D01*
X139654236Y-119101309D01*
X139681943Y-118820000D01*
X140858057Y-118820000D01*
X140885764Y-119101309D01*
X140967818Y-119371808D01*
X141101068Y-119621101D01*
X141280392Y-119839608D01*
X141498899Y-120018932D01*
X141748192Y-120152182D01*
X142018691Y-120234236D01*
X142229508Y-120255000D01*
X142370492Y-120255000D01*
X142581309Y-120234236D01*
X142851808Y-120152182D01*
X143101101Y-120018932D01*
X143319608Y-119839608D01*
X143498932Y-119621101D01*
X143570000Y-119488142D01*
X143641068Y-119621101D01*
X143820392Y-119839608D01*
X144038899Y-120018932D01*
X144288192Y-120152182D01*
X144558691Y-120234236D01*
X144769508Y-120255000D01*
X144910492Y-120255000D01*
X145121309Y-120234236D01*
X145391808Y-120152182D01*
X145641101Y-120018932D01*
X145859608Y-119839608D01*
X146038932Y-119621101D01*
X146110000Y-119488142D01*
X146181068Y-119621101D01*
X146360392Y-119839608D01*
X146578899Y-120018932D01*
X146828192Y-120152182D01*
X147098691Y-120234236D01*
X147309508Y-120255000D01*
X147450492Y-120255000D01*
X147661309Y-120234236D01*
X147931808Y-120152182D01*
X148181101Y-120018932D01*
X148399608Y-119839608D01*
X148578932Y-119621101D01*
X148650000Y-119488142D01*
X148721068Y-119621101D01*
X148900392Y-119839608D01*
X149118899Y-120018932D01*
X149368192Y-120152182D01*
X149638691Y-120234236D01*
X149849508Y-120255000D01*
X149990492Y-120255000D01*
X150201309Y-120234236D01*
X150471808Y-120152182D01*
X150721101Y-120018932D01*
X150939608Y-119839608D01*
X151118932Y-119621101D01*
X151190000Y-119488142D01*
X151261068Y-119621101D01*
X151440392Y-119839608D01*
X151658899Y-120018932D01*
X151908192Y-120152182D01*
X152178691Y-120234236D01*
X152389508Y-120255000D01*
X152530492Y-120255000D01*
X152741309Y-120234236D01*
X153011808Y-120152182D01*
X153261101Y-120018932D01*
X153479608Y-119839608D01*
X153658932Y-119621101D01*
X153730000Y-119488142D01*
X153801068Y-119621101D01*
X153980392Y-119839608D01*
X154198899Y-120018932D01*
X154448192Y-120152182D01*
X154718691Y-120234236D01*
X154929508Y-120255000D01*
X155070492Y-120255000D01*
X155281309Y-120234236D01*
X155551808Y-120152182D01*
X155801101Y-120018932D01*
X156019608Y-119839608D01*
X156198932Y-119621101D01*
X156270000Y-119488142D01*
X156341068Y-119621101D01*
X156520392Y-119839608D01*
X156738899Y-120018932D01*
X156988192Y-120152182D01*
X157258691Y-120234236D01*
X157469508Y-120255000D01*
X157610492Y-120255000D01*
X157821309Y-120234236D01*
X158091808Y-120152182D01*
X158341101Y-120018932D01*
X158559608Y-119839608D01*
X158738932Y-119621101D01*
X158810000Y-119488142D01*
X158881068Y-119621101D01*
X159060392Y-119839608D01*
X159278899Y-120018932D01*
X159528192Y-120152182D01*
X159798691Y-120234236D01*
X160009508Y-120255000D01*
X160150492Y-120255000D01*
X160361309Y-120234236D01*
X160631808Y-120152182D01*
X160881101Y-120018932D01*
X161099608Y-119839608D01*
X161278932Y-119621101D01*
X161412182Y-119371808D01*
X161494236Y-119101309D01*
X161521943Y-118820000D01*
X161494236Y-118538691D01*
X161412182Y-118268192D01*
X161278932Y-118018899D01*
X161099608Y-117800392D01*
X160881101Y-117621068D01*
X160631808Y-117487818D01*
X160361309Y-117405764D01*
X160150492Y-117385000D01*
X160009508Y-117385000D01*
X159798691Y-117405764D01*
X159528192Y-117487818D01*
X159278899Y-117621068D01*
X159060392Y-117800392D01*
X158881068Y-118018899D01*
X158810000Y-118151858D01*
X158738932Y-118018899D01*
X158559608Y-117800392D01*
X158341101Y-117621068D01*
X158091808Y-117487818D01*
X157821309Y-117405764D01*
X157610492Y-117385000D01*
X157469508Y-117385000D01*
X157258691Y-117405764D01*
X156988192Y-117487818D01*
X156738899Y-117621068D01*
X156520392Y-117800392D01*
X156341068Y-118018899D01*
X156270000Y-118151858D01*
X156198932Y-118018899D01*
X156019608Y-117800392D01*
X155801101Y-117621068D01*
X155551808Y-117487818D01*
X155281309Y-117405764D01*
X155070492Y-117385000D01*
X154929508Y-117385000D01*
X154718691Y-117405764D01*
X154448192Y-117487818D01*
X154198899Y-117621068D01*
X153980392Y-117800392D01*
X153801068Y-118018899D01*
X153730000Y-118151858D01*
X153658932Y-118018899D01*
X153479608Y-117800392D01*
X153261101Y-117621068D01*
X153011808Y-117487818D01*
X152741309Y-117405764D01*
X152530492Y-117385000D01*
X152389508Y-117385000D01*
X152178691Y-117405764D01*
X151908192Y-117487818D01*
X151658899Y-117621068D01*
X151440392Y-117800392D01*
X151261068Y-118018899D01*
X151190000Y-118151858D01*
X151118932Y-118018899D01*
X150939608Y-117800392D01*
X150721101Y-117621068D01*
X150471808Y-117487818D01*
X150201309Y-117405764D01*
X149990492Y-117385000D01*
X149849508Y-117385000D01*
X149638691Y-117405764D01*
X149368192Y-117487818D01*
X149118899Y-117621068D01*
X148900392Y-117800392D01*
X148721068Y-118018899D01*
X148650000Y-118151858D01*
X148578932Y-118018899D01*
X148399608Y-117800392D01*
X148181101Y-117621068D01*
X147931808Y-117487818D01*
X147661309Y-117405764D01*
X147450492Y-117385000D01*
X147309508Y-117385000D01*
X147098691Y-117405764D01*
X146828192Y-117487818D01*
X146578899Y-117621068D01*
X146360392Y-117800392D01*
X146181068Y-118018899D01*
X146110000Y-118151858D01*
X146038932Y-118018899D01*
X145859608Y-117800392D01*
X145641101Y-117621068D01*
X145391808Y-117487818D01*
X145121309Y-117405764D01*
X144910492Y-117385000D01*
X144769508Y-117385000D01*
X144558691Y-117405764D01*
X144288192Y-117487818D01*
X144038899Y-117621068D01*
X143820392Y-117800392D01*
X143641068Y-118018899D01*
X143570000Y-118151858D01*
X143498932Y-118018899D01*
X143319608Y-117800392D01*
X143101101Y-117621068D01*
X142851808Y-117487818D01*
X142581309Y-117405764D01*
X142370492Y-117385000D01*
X142229508Y-117385000D01*
X142018691Y-117405764D01*
X141748192Y-117487818D01*
X141498899Y-117621068D01*
X141280392Y-117800392D01*
X141101068Y-118018899D01*
X140967818Y-118268192D01*
X140885764Y-118538691D01*
X140858057Y-118820000D01*
X139681943Y-118820000D01*
X139654236Y-118538691D01*
X139572182Y-118268192D01*
X139438932Y-118018899D01*
X139259608Y-117800392D01*
X139041101Y-117621068D01*
X138791808Y-117487818D01*
X138521309Y-117405764D01*
X138310492Y-117385000D01*
X138169508Y-117385000D01*
X137958691Y-117405764D01*
X137688192Y-117487818D01*
X137438899Y-117621068D01*
X137220392Y-117800392D01*
X137041068Y-118018899D01*
X136970000Y-118151858D01*
X136898932Y-118018899D01*
X136719608Y-117800392D01*
X136501101Y-117621068D01*
X136251808Y-117487818D01*
X135981309Y-117405764D01*
X135770492Y-117385000D01*
X135629508Y-117385000D01*
X135418691Y-117405764D01*
X135148192Y-117487818D01*
X134898899Y-117621068D01*
X134680392Y-117800392D01*
X134501068Y-118018899D01*
X134430000Y-118151858D01*
X134358932Y-118018899D01*
X134179608Y-117800392D01*
X133961101Y-117621068D01*
X133711808Y-117487818D01*
X133441309Y-117405764D01*
X133230492Y-117385000D01*
X133089508Y-117385000D01*
X132878691Y-117405764D01*
X132608192Y-117487818D01*
X132358899Y-117621068D01*
X132140392Y-117800392D01*
X131961068Y-118018899D01*
X131890000Y-118151858D01*
X131818932Y-118018899D01*
X131639608Y-117800392D01*
X131421101Y-117621068D01*
X131171808Y-117487818D01*
X130901309Y-117405764D01*
X130690492Y-117385000D01*
X130549508Y-117385000D01*
X130338691Y-117405764D01*
X130068192Y-117487818D01*
X129818899Y-117621068D01*
X129600392Y-117800392D01*
X129421068Y-118018899D01*
X129350000Y-118151858D01*
X129278932Y-118018899D01*
X129099608Y-117800392D01*
X128881101Y-117621068D01*
X128631808Y-117487818D01*
X128361309Y-117405764D01*
X128150492Y-117385000D01*
X128009508Y-117385000D01*
X127798691Y-117405764D01*
X127528192Y-117487818D01*
X127278899Y-117621068D01*
X127060392Y-117800392D01*
X126881068Y-118018899D01*
X126810000Y-118151858D01*
X126738932Y-118018899D01*
X126559608Y-117800392D01*
X126341101Y-117621068D01*
X126091808Y-117487818D01*
X125821309Y-117405764D01*
X125610492Y-117385000D01*
X125469508Y-117385000D01*
X125258691Y-117405764D01*
X124988192Y-117487818D01*
X124738899Y-117621068D01*
X124520392Y-117800392D01*
X124341068Y-118018899D01*
X124267421Y-118156682D01*
X124152385Y-117964869D01*
X123963414Y-117756481D01*
X123737420Y-117588963D01*
X123483087Y-117468754D01*
X123349039Y-117428096D01*
X123127000Y-117550085D01*
X122873000Y-117550085D01*
X122650961Y-117428096D01*
X122516913Y-117468754D01*
X122262580Y-117588963D01*
X122036586Y-117756481D01*
X121847615Y-117964869D01*
X121732579Y-118156682D01*
X121658932Y-118018899D01*
X121479608Y-117800392D01*
X121261101Y-117621068D01*
X121011808Y-117487818D01*
X120741309Y-117405764D01*
X120530492Y-117385000D01*
X120389508Y-117385000D01*
X120178691Y-117405764D01*
X119908192Y-117487818D01*
X119658899Y-117621068D01*
X119440392Y-117800392D01*
X119261068Y-118018899D01*
X119190000Y-118151858D01*
X119118932Y-118018899D01*
X118939608Y-117800392D01*
X118721101Y-117621068D01*
X118471808Y-117487818D01*
X118201309Y-117405764D01*
X117990492Y-117385000D01*
X117849508Y-117385000D01*
X117638691Y-117405764D01*
X117368192Y-117487818D01*
X117118899Y-117621068D01*
X116900392Y-117800392D01*
X116721068Y-118018899D01*
X116650000Y-118151858D01*
X116578932Y-118018899D01*
X116399608Y-117800392D01*
X116181101Y-117621068D01*
X115931808Y-117487818D01*
X115661309Y-117405764D01*
X115450492Y-117385000D01*
X115309508Y-117385000D01*
X115098691Y-117405764D01*
X114828192Y-117487818D01*
X114578899Y-117621068D01*
X114360392Y-117800392D01*
X114181068Y-118018899D01*
X114047818Y-118268192D01*
X113965764Y-118538691D01*
X113938057Y-118820000D01*
X113248072Y-118820000D01*
X113248072Y-117260000D01*
X113235812Y-117135518D01*
X113199502Y-117015820D01*
X113140537Y-116905506D01*
X113061185Y-116808815D01*
X112964494Y-116729463D01*
X112854180Y-116670498D01*
X112785313Y-116649607D01*
X112815134Y-116625134D01*
X113000706Y-116399014D01*
X113138599Y-116141034D01*
X113223513Y-115861111D01*
X113252185Y-115570000D01*
X113223513Y-115278889D01*
X113138599Y-114998966D01*
X113000706Y-114740986D01*
X112815134Y-114514866D01*
X112589014Y-114329294D01*
X112331034Y-114191401D01*
X112051111Y-114106487D01*
X111832950Y-114085000D01*
X111687050Y-114085000D01*
X111468889Y-114106487D01*
X111188966Y-114191401D01*
X110930986Y-114329294D01*
X110704866Y-114514866D01*
X110519294Y-114740986D01*
X110381401Y-114998966D01*
X110296487Y-115278889D01*
X110267815Y-115570000D01*
X106902185Y-115570000D01*
X106873513Y-115278889D01*
X106788599Y-114998966D01*
X106650706Y-114740986D01*
X106465134Y-114514866D01*
X106239014Y-114329294D01*
X105981034Y-114191401D01*
X105701111Y-114106487D01*
X105482950Y-114085000D01*
X105337050Y-114085000D01*
X105118889Y-114106487D01*
X104838966Y-114191401D01*
X104580986Y-114329294D01*
X104354866Y-114514866D01*
X104169294Y-114740986D01*
X104031401Y-114998966D01*
X103946487Y-115278889D01*
X103917815Y-115570000D01*
X103946487Y-115861111D01*
X103969203Y-115935995D01*
X101380198Y-118525001D01*
X100548072Y-118525001D01*
X100548072Y-117696730D01*
X100893799Y-117351003D01*
X100964973Y-117264277D01*
X101035546Y-117132247D01*
X101079002Y-116988987D01*
X101093676Y-116840001D01*
X101085735Y-116759376D01*
X101085735Y-113441429D01*
X119440000Y-113441429D01*
X119440000Y-113758571D01*
X119501871Y-114069620D01*
X119623237Y-114362621D01*
X119799431Y-114626315D01*
X120023685Y-114850569D01*
X120287379Y-115026763D01*
X120580380Y-115148129D01*
X120891429Y-115210000D01*
X121208571Y-115210000D01*
X121519620Y-115148129D01*
X121812621Y-115026763D01*
X122076315Y-114850569D01*
X122300569Y-114626315D01*
X122476763Y-114362621D01*
X122598129Y-114069620D01*
X122660000Y-113758571D01*
X122660000Y-113441429D01*
X131740000Y-113441429D01*
X131740000Y-113758571D01*
X131801871Y-114069620D01*
X131923237Y-114362621D01*
X132099431Y-114626315D01*
X132323685Y-114850569D01*
X132587379Y-115026763D01*
X132880380Y-115148129D01*
X133191429Y-115210000D01*
X133508571Y-115210000D01*
X133819620Y-115148129D01*
X134112621Y-115026763D01*
X134376315Y-114850569D01*
X134600569Y-114626315D01*
X134776763Y-114362621D01*
X134898129Y-114069620D01*
X134960000Y-113758571D01*
X134960000Y-113441429D01*
X142300000Y-113441429D01*
X142300000Y-113758571D01*
X142361871Y-114069620D01*
X142483237Y-114362621D01*
X142659431Y-114626315D01*
X142883685Y-114850569D01*
X143147379Y-115026763D01*
X143440380Y-115148129D01*
X143751429Y-115210000D01*
X144068571Y-115210000D01*
X144379620Y-115148129D01*
X144672621Y-115026763D01*
X144936315Y-114850569D01*
X145160569Y-114626315D01*
X145336763Y-114362621D01*
X145458129Y-114069620D01*
X145520000Y-113758571D01*
X145520000Y-113441429D01*
X154600000Y-113441429D01*
X154600000Y-113758571D01*
X154661871Y-114069620D01*
X154783237Y-114362621D01*
X154959431Y-114626315D01*
X155183685Y-114850569D01*
X155447379Y-115026763D01*
X155740380Y-115148129D01*
X156051429Y-115210000D01*
X156368571Y-115210000D01*
X156679620Y-115148129D01*
X156972621Y-115026763D01*
X157236315Y-114850569D01*
X157460569Y-114626315D01*
X157636763Y-114362621D01*
X157758129Y-114069620D01*
X157820000Y-113758571D01*
X157820000Y-113441429D01*
X157758129Y-113130380D01*
X157636763Y-112837379D01*
X157460569Y-112573685D01*
X157236315Y-112349431D01*
X156972621Y-112173237D01*
X156679620Y-112051871D01*
X156368571Y-111990000D01*
X156051429Y-111990000D01*
X155740380Y-112051871D01*
X155447379Y-112173237D01*
X155183685Y-112349431D01*
X154959431Y-112573685D01*
X154783237Y-112837379D01*
X154661871Y-113130380D01*
X154600000Y-113441429D01*
X145520000Y-113441429D01*
X145458129Y-113130380D01*
X145336763Y-112837379D01*
X145160569Y-112573685D01*
X144936315Y-112349431D01*
X144672621Y-112173237D01*
X144379620Y-112051871D01*
X144068571Y-111990000D01*
X143751429Y-111990000D01*
X143440380Y-112051871D01*
X143147379Y-112173237D01*
X142883685Y-112349431D01*
X142659431Y-112573685D01*
X142483237Y-112837379D01*
X142361871Y-113130380D01*
X142300000Y-113441429D01*
X134960000Y-113441429D01*
X134898129Y-113130380D01*
X134776763Y-112837379D01*
X134600569Y-112573685D01*
X134376315Y-112349431D01*
X134112621Y-112173237D01*
X133819620Y-112051871D01*
X133508571Y-111990000D01*
X133191429Y-111990000D01*
X132880380Y-112051871D01*
X132587379Y-112173237D01*
X132323685Y-112349431D01*
X132099431Y-112573685D01*
X131923237Y-112837379D01*
X131801871Y-113130380D01*
X131740000Y-113441429D01*
X122660000Y-113441429D01*
X122598129Y-113130380D01*
X122476763Y-112837379D01*
X122300569Y-112573685D01*
X122076315Y-112349431D01*
X121812621Y-112173237D01*
X121519620Y-112051871D01*
X121208571Y-111990000D01*
X120891429Y-111990000D01*
X120580380Y-112051871D01*
X120287379Y-112173237D01*
X120023685Y-112349431D01*
X119799431Y-112573685D01*
X119623237Y-112837379D01*
X119501871Y-113130380D01*
X119440000Y-113441429D01*
X101085735Y-113441429D01*
X101085735Y-110708072D01*
X102450000Y-110708072D01*
X102574482Y-110695812D01*
X102694180Y-110659502D01*
X102804494Y-110600537D01*
X102901185Y-110521185D01*
X102980537Y-110424494D01*
X103039502Y-110314180D01*
X103075812Y-110194482D01*
X103088072Y-110070000D01*
X103088072Y-108370000D01*
X103075812Y-108245518D01*
X103039502Y-108125820D01*
X102980537Y-108015506D01*
X102901185Y-107918815D01*
X102804494Y-107839463D01*
X102694180Y-107780498D01*
X102574482Y-107744188D01*
X102450000Y-107731928D01*
X101085735Y-107731928D01*
X101085735Y-106578061D01*
X101835000Y-106578061D01*
X101835000Y-106781939D01*
X101874774Y-106981898D01*
X101952795Y-107170256D01*
X102066063Y-107339774D01*
X102210226Y-107483937D01*
X102379744Y-107597205D01*
X102568102Y-107675226D01*
X102768061Y-107715000D01*
X102830199Y-107715000D01*
X105645000Y-110529802D01*
X105645000Y-110591939D01*
X105684774Y-110791898D01*
X105762795Y-110980256D01*
X105876063Y-111149774D01*
X106020226Y-111293937D01*
X106189744Y-111407205D01*
X106378102Y-111485226D01*
X106578061Y-111525000D01*
X106781939Y-111525000D01*
X106981898Y-111485226D01*
X107170256Y-111407205D01*
X107339774Y-111293937D01*
X107483937Y-111149774D01*
X107597205Y-110980256D01*
X107675226Y-110791898D01*
X107715000Y-110591939D01*
X107715000Y-110388061D01*
X107675226Y-110188102D01*
X107597205Y-109999744D01*
X107483937Y-109830226D01*
X107339774Y-109686063D01*
X107170256Y-109572795D01*
X106981898Y-109494774D01*
X106781939Y-109455000D01*
X106719802Y-109455000D01*
X104706231Y-107441429D01*
X133740000Y-107441429D01*
X133740000Y-107758571D01*
X133801871Y-108069620D01*
X133923237Y-108362621D01*
X134099431Y-108626315D01*
X134323685Y-108850569D01*
X134587379Y-109026763D01*
X134880380Y-109148129D01*
X135191429Y-109210000D01*
X135508571Y-109210000D01*
X135819620Y-109148129D01*
X136112621Y-109026763D01*
X136376315Y-108850569D01*
X136600569Y-108626315D01*
X136776763Y-108362621D01*
X136898129Y-108069620D01*
X136960000Y-107758571D01*
X136960000Y-107441429D01*
X156600000Y-107441429D01*
X156600000Y-107758571D01*
X156661871Y-108069620D01*
X156783237Y-108362621D01*
X156959431Y-108626315D01*
X157183685Y-108850569D01*
X157447379Y-109026763D01*
X157740380Y-109148129D01*
X158051429Y-109210000D01*
X158368571Y-109210000D01*
X158679620Y-109148129D01*
X158972621Y-109026763D01*
X159236315Y-108850569D01*
X159460569Y-108626315D01*
X159636763Y-108362621D01*
X159758129Y-108069620D01*
X159820000Y-107758571D01*
X159820000Y-107441429D01*
X159758129Y-107130380D01*
X159636763Y-106837379D01*
X159460569Y-106573685D01*
X159236315Y-106349431D01*
X158972621Y-106173237D01*
X158679620Y-106051871D01*
X158368571Y-105990000D01*
X158051429Y-105990000D01*
X157740380Y-106051871D01*
X157447379Y-106173237D01*
X157183685Y-106349431D01*
X156959431Y-106573685D01*
X156783237Y-106837379D01*
X156661871Y-107130380D01*
X156600000Y-107441429D01*
X136960000Y-107441429D01*
X136898129Y-107130380D01*
X136776763Y-106837379D01*
X136600569Y-106573685D01*
X136376315Y-106349431D01*
X136112621Y-106173237D01*
X135819620Y-106051871D01*
X135508571Y-105990000D01*
X135191429Y-105990000D01*
X134880380Y-106051871D01*
X134587379Y-106173237D01*
X134323685Y-106349431D01*
X134099431Y-106573685D01*
X133923237Y-106837379D01*
X133801871Y-107130380D01*
X133740000Y-107441429D01*
X104706231Y-107441429D01*
X103905000Y-106640199D01*
X103905000Y-106578061D01*
X103865226Y-106378102D01*
X103787205Y-106189744D01*
X103673937Y-106020226D01*
X103529774Y-105876063D01*
X103360256Y-105762795D01*
X103171898Y-105684774D01*
X102971939Y-105645000D01*
X102768061Y-105645000D01*
X102568102Y-105684774D01*
X102379744Y-105762795D01*
X102210226Y-105876063D01*
X102066063Y-106020226D01*
X101952795Y-106189744D01*
X101874774Y-106378102D01*
X101835000Y-106578061D01*
X101085735Y-106578061D01*
X101085735Y-105628072D01*
X102450000Y-105628072D01*
X102574482Y-105615812D01*
X102694180Y-105579502D01*
X102804494Y-105520537D01*
X102901185Y-105441185D01*
X102980537Y-105344494D01*
X103039502Y-105234180D01*
X103075812Y-105114482D01*
X103088072Y-104990000D01*
X103088072Y-103290000D01*
X103075812Y-103165518D01*
X103039502Y-103045820D01*
X102980537Y-102935506D01*
X102901185Y-102838815D01*
X102804494Y-102759463D01*
X102694180Y-102700498D01*
X102574482Y-102664188D01*
X102450000Y-102651928D01*
X101085735Y-102651928D01*
X101085735Y-101441429D01*
X119440000Y-101441429D01*
X119440000Y-101758571D01*
X119501871Y-102069620D01*
X119623237Y-102362621D01*
X119799431Y-102626315D01*
X120023685Y-102850569D01*
X120287379Y-103026763D01*
X120580380Y-103148129D01*
X120891429Y-103210000D01*
X121208571Y-103210000D01*
X121519620Y-103148129D01*
X121812621Y-103026763D01*
X122076315Y-102850569D01*
X122300569Y-102626315D01*
X122334856Y-102575000D01*
X131736928Y-102575000D01*
X131749188Y-102699482D01*
X131785498Y-102819180D01*
X131844463Y-102929494D01*
X131923815Y-103026185D01*
X132020506Y-103105537D01*
X132130820Y-103164502D01*
X132250518Y-103200812D01*
X132375000Y-103213072D01*
X133064250Y-103210000D01*
X133223000Y-103051250D01*
X133223000Y-101727000D01*
X133477000Y-101727000D01*
X133477000Y-103051250D01*
X133635750Y-103210000D01*
X134325000Y-103213072D01*
X134449482Y-103200812D01*
X134569180Y-103164502D01*
X134679494Y-103105537D01*
X134776185Y-103026185D01*
X134855537Y-102929494D01*
X134914502Y-102819180D01*
X134945320Y-102717584D01*
X142972021Y-102717584D01*
X143064766Y-102979429D01*
X143350120Y-103117820D01*
X143656990Y-103197883D01*
X143973584Y-103216540D01*
X144287733Y-103173074D01*
X144587367Y-103069156D01*
X144755234Y-102979429D01*
X144847979Y-102717584D01*
X144705395Y-102575000D01*
X154596928Y-102575000D01*
X154609188Y-102699482D01*
X154645498Y-102819180D01*
X154704463Y-102929494D01*
X154783815Y-103026185D01*
X154880506Y-103105537D01*
X154990820Y-103164502D01*
X155110518Y-103200812D01*
X155235000Y-103213072D01*
X155924250Y-103210000D01*
X156083000Y-103051250D01*
X156083000Y-101727000D01*
X156337000Y-101727000D01*
X156337000Y-103051250D01*
X156495750Y-103210000D01*
X157185000Y-103213072D01*
X157309482Y-103200812D01*
X157429180Y-103164502D01*
X157539494Y-103105537D01*
X157636185Y-103026185D01*
X157715537Y-102929494D01*
X157774502Y-102819180D01*
X157810812Y-102699482D01*
X157823072Y-102575000D01*
X157820000Y-101885750D01*
X157661250Y-101727000D01*
X156337000Y-101727000D01*
X156083000Y-101727000D01*
X154758750Y-101727000D01*
X154600000Y-101885750D01*
X154596928Y-102575000D01*
X144705395Y-102575000D01*
X143910000Y-101779605D01*
X142972021Y-102717584D01*
X134945320Y-102717584D01*
X134950812Y-102699482D01*
X134963072Y-102575000D01*
X134960000Y-101885750D01*
X134801250Y-101727000D01*
X133477000Y-101727000D01*
X133223000Y-101727000D01*
X131898750Y-101727000D01*
X131740000Y-101885750D01*
X131736928Y-102575000D01*
X122334856Y-102575000D01*
X122476763Y-102362621D01*
X122598129Y-102069620D01*
X122660000Y-101758571D01*
X122660000Y-101663584D01*
X142293460Y-101663584D01*
X142336926Y-101977733D01*
X142440844Y-102277367D01*
X142530571Y-102445234D01*
X142792416Y-102537979D01*
X143730395Y-101600000D01*
X144089605Y-101600000D01*
X145027584Y-102537979D01*
X145289429Y-102445234D01*
X145427820Y-102159880D01*
X145507883Y-101853010D01*
X145526540Y-101536416D01*
X145483074Y-101222267D01*
X145379156Y-100922633D01*
X145289429Y-100754766D01*
X145027584Y-100662021D01*
X144089605Y-101600000D01*
X143730395Y-101600000D01*
X142792416Y-100662021D01*
X142530571Y-100754766D01*
X142392180Y-101040120D01*
X142312117Y-101346990D01*
X142293460Y-101663584D01*
X122660000Y-101663584D01*
X122660000Y-101441429D01*
X122598129Y-101130380D01*
X122476763Y-100837379D01*
X122334857Y-100625000D01*
X131736928Y-100625000D01*
X131740000Y-101314250D01*
X131898750Y-101473000D01*
X133223000Y-101473000D01*
X133223000Y-100148750D01*
X133477000Y-100148750D01*
X133477000Y-101473000D01*
X134801250Y-101473000D01*
X134960000Y-101314250D01*
X134963072Y-100625000D01*
X134950812Y-100500518D01*
X134945321Y-100482416D01*
X142972021Y-100482416D01*
X143910000Y-101420395D01*
X144705395Y-100625000D01*
X154596928Y-100625000D01*
X154600000Y-101314250D01*
X154758750Y-101473000D01*
X156083000Y-101473000D01*
X156083000Y-100148750D01*
X156337000Y-100148750D01*
X156337000Y-101473000D01*
X157661250Y-101473000D01*
X157820000Y-101314250D01*
X157823072Y-100625000D01*
X157810812Y-100500518D01*
X157774502Y-100380820D01*
X157715537Y-100270506D01*
X157636185Y-100173815D01*
X157539494Y-100094463D01*
X157429180Y-100035498D01*
X157309482Y-99999188D01*
X157185000Y-99986928D01*
X156495750Y-99990000D01*
X156337000Y-100148750D01*
X156083000Y-100148750D01*
X155924250Y-99990000D01*
X155235000Y-99986928D01*
X155110518Y-99999188D01*
X154990820Y-100035498D01*
X154880506Y-100094463D01*
X154783815Y-100173815D01*
X154704463Y-100270506D01*
X154645498Y-100380820D01*
X154609188Y-100500518D01*
X154596928Y-100625000D01*
X144705395Y-100625000D01*
X144847979Y-100482416D01*
X144755234Y-100220571D01*
X144469880Y-100082180D01*
X144163010Y-100002117D01*
X143846416Y-99983460D01*
X143532267Y-100026926D01*
X143232633Y-100130844D01*
X143064766Y-100220571D01*
X142972021Y-100482416D01*
X134945321Y-100482416D01*
X134914502Y-100380820D01*
X134855537Y-100270506D01*
X134776185Y-100173815D01*
X134679494Y-100094463D01*
X134569180Y-100035498D01*
X134449482Y-99999188D01*
X134325000Y-99986928D01*
X133635750Y-99990000D01*
X133477000Y-100148750D01*
X133223000Y-100148750D01*
X133064250Y-99990000D01*
X132375000Y-99986928D01*
X132250518Y-99999188D01*
X132130820Y-100035498D01*
X132020506Y-100094463D01*
X131923815Y-100173815D01*
X131844463Y-100270506D01*
X131785498Y-100380820D01*
X131749188Y-100500518D01*
X131736928Y-100625000D01*
X122334857Y-100625000D01*
X122300569Y-100573685D01*
X122076315Y-100349431D01*
X121812621Y-100173237D01*
X121519620Y-100051871D01*
X121208571Y-99990000D01*
X120891429Y-99990000D01*
X120580380Y-100051871D01*
X120287379Y-100173237D01*
X120023685Y-100349431D01*
X119799431Y-100573685D01*
X119623237Y-100837379D01*
X119501871Y-101130380D01*
X119440000Y-101441429D01*
X101085735Y-101441429D01*
X101085735Y-100548072D01*
X102450000Y-100548072D01*
X102574482Y-100535812D01*
X102694180Y-100499502D01*
X102804494Y-100440537D01*
X102901185Y-100361185D01*
X102980537Y-100264494D01*
X103039502Y-100154180D01*
X103075812Y-100034482D01*
X103088072Y-99910000D01*
X103088072Y-98210000D01*
X103075812Y-98085518D01*
X103039502Y-97965820D01*
X102980537Y-97855506D01*
X102901185Y-97758815D01*
X102804494Y-97679463D01*
X102694180Y-97620498D01*
X102574482Y-97584188D01*
X102450000Y-97571928D01*
X101085735Y-97571928D01*
X101085735Y-95468072D01*
X102450000Y-95468072D01*
X102574482Y-95455812D01*
X102694180Y-95419502D01*
X102804494Y-95360537D01*
X102901185Y-95281185D01*
X102980537Y-95184494D01*
X103039502Y-95074180D01*
X103075812Y-94954482D01*
X103088072Y-94830000D01*
X103088072Y-94391429D01*
X119440000Y-94391429D01*
X119440000Y-94708571D01*
X119501871Y-95019620D01*
X119623237Y-95312621D01*
X119799431Y-95576315D01*
X120023685Y-95800569D01*
X120287379Y-95976763D01*
X120580380Y-96098129D01*
X120891429Y-96160000D01*
X121208571Y-96160000D01*
X121519620Y-96098129D01*
X121812621Y-95976763D01*
X122076315Y-95800569D01*
X122300569Y-95576315D01*
X122476763Y-95312621D01*
X122598129Y-95019620D01*
X122660000Y-94708571D01*
X122660000Y-94391429D01*
X131740000Y-94391429D01*
X131740000Y-94708571D01*
X131801871Y-95019620D01*
X131923237Y-95312621D01*
X132099431Y-95576315D01*
X132323685Y-95800569D01*
X132587379Y-95976763D01*
X132880380Y-96098129D01*
X133191429Y-96160000D01*
X133508571Y-96160000D01*
X133819620Y-96098129D01*
X134112621Y-95976763D01*
X134376315Y-95800569D01*
X134600569Y-95576315D01*
X134776763Y-95312621D01*
X134898129Y-95019620D01*
X134960000Y-94708571D01*
X134960000Y-94391429D01*
X142300000Y-94391429D01*
X142300000Y-94708571D01*
X142361871Y-95019620D01*
X142483237Y-95312621D01*
X142659431Y-95576315D01*
X142883685Y-95800569D01*
X143147379Y-95976763D01*
X143440380Y-96098129D01*
X143751429Y-96160000D01*
X144068571Y-96160000D01*
X144379620Y-96098129D01*
X144672621Y-95976763D01*
X144936315Y-95800569D01*
X145160569Y-95576315D01*
X145336763Y-95312621D01*
X145458129Y-95019620D01*
X145520000Y-94708571D01*
X145520000Y-94391429D01*
X154600000Y-94391429D01*
X154600000Y-94708571D01*
X154661871Y-95019620D01*
X154783237Y-95312621D01*
X154959431Y-95576315D01*
X155183685Y-95800569D01*
X155447379Y-95976763D01*
X155740380Y-96098129D01*
X156051429Y-96160000D01*
X156368571Y-96160000D01*
X156679620Y-96098129D01*
X156972621Y-95976763D01*
X157236315Y-95800569D01*
X157460569Y-95576315D01*
X157636763Y-95312621D01*
X157758129Y-95019620D01*
X157820000Y-94708571D01*
X157820000Y-94391429D01*
X157758129Y-94080380D01*
X157636763Y-93787379D01*
X157460569Y-93523685D01*
X157236315Y-93299431D01*
X156972621Y-93123237D01*
X156679620Y-93001871D01*
X156368571Y-92940000D01*
X156051429Y-92940000D01*
X155740380Y-93001871D01*
X155447379Y-93123237D01*
X155183685Y-93299431D01*
X154959431Y-93523685D01*
X154783237Y-93787379D01*
X154661871Y-94080380D01*
X154600000Y-94391429D01*
X145520000Y-94391429D01*
X145458129Y-94080380D01*
X145336763Y-93787379D01*
X145160569Y-93523685D01*
X144936315Y-93299431D01*
X144672621Y-93123237D01*
X144379620Y-93001871D01*
X144068571Y-92940000D01*
X143751429Y-92940000D01*
X143440380Y-93001871D01*
X143147379Y-93123237D01*
X142883685Y-93299431D01*
X142659431Y-93523685D01*
X142483237Y-93787379D01*
X142361871Y-94080380D01*
X142300000Y-94391429D01*
X134960000Y-94391429D01*
X134898129Y-94080380D01*
X134776763Y-93787379D01*
X134600569Y-93523685D01*
X134376315Y-93299431D01*
X134112621Y-93123237D01*
X133819620Y-93001871D01*
X133508571Y-92940000D01*
X133191429Y-92940000D01*
X132880380Y-93001871D01*
X132587379Y-93123237D01*
X132323685Y-93299431D01*
X132099431Y-93523685D01*
X131923237Y-93787379D01*
X131801871Y-94080380D01*
X131740000Y-94391429D01*
X122660000Y-94391429D01*
X122598129Y-94080380D01*
X122476763Y-93787379D01*
X122300569Y-93523685D01*
X122076315Y-93299431D01*
X121812621Y-93123237D01*
X121519620Y-93001871D01*
X121208571Y-92940000D01*
X120891429Y-92940000D01*
X120580380Y-93001871D01*
X120287379Y-93123237D01*
X120023685Y-93299431D01*
X119799431Y-93523685D01*
X119623237Y-93787379D01*
X119501871Y-94080380D01*
X119440000Y-94391429D01*
X103088072Y-94391429D01*
X103088072Y-93130000D01*
X103075812Y-93005518D01*
X103039502Y-92885820D01*
X102980537Y-92775506D01*
X102901185Y-92678815D01*
X102804494Y-92599463D01*
X102694180Y-92540498D01*
X102574482Y-92504188D01*
X102450000Y-92491928D01*
X101338483Y-92491928D01*
X101320961Y-92403837D01*
X101242940Y-92215479D01*
X101129672Y-92045961D01*
X100985509Y-91901798D01*
X100815991Y-91788530D01*
X100627633Y-91710509D01*
X100427674Y-91670735D01*
X100223796Y-91670735D01*
X100023837Y-91710509D01*
X99835479Y-91788530D01*
X99665961Y-91901798D01*
X99521798Y-92045961D01*
X99408530Y-92215479D01*
X99330509Y-92403837D01*
X99308928Y-92512332D01*
X99132950Y-92495000D01*
X98987050Y-92495000D01*
X98768889Y-92516487D01*
X98488966Y-92601401D01*
X98230986Y-92739294D01*
X98004866Y-92924866D01*
X97819294Y-93150986D01*
X97681401Y-93408966D01*
X97596487Y-93688889D01*
X97567815Y-93980000D01*
X97596487Y-94271111D01*
X97619203Y-94345995D01*
X96828988Y-95136211D01*
X96799990Y-95160009D01*
X96776192Y-95189007D01*
X96776191Y-95189008D01*
X96705016Y-95275734D01*
X96647000Y-95384274D01*
X96647000Y-88900000D01*
X97567815Y-88900000D01*
X97596487Y-89191111D01*
X97681401Y-89471034D01*
X97819294Y-89729014D01*
X98004866Y-89955134D01*
X98230986Y-90140706D01*
X98488966Y-90278599D01*
X98768889Y-90363513D01*
X98987050Y-90385000D01*
X99132950Y-90385000D01*
X99351111Y-90363513D01*
X99631034Y-90278599D01*
X99889014Y-90140706D01*
X100115134Y-89955134D01*
X100139607Y-89925313D01*
X100160498Y-89994180D01*
X100219463Y-90104494D01*
X100298815Y-90201185D01*
X100395506Y-90280537D01*
X100505820Y-90339502D01*
X100625518Y-90375812D01*
X100750000Y-90388072D01*
X102450000Y-90388072D01*
X102574482Y-90375812D01*
X102694180Y-90339502D01*
X102804494Y-90280537D01*
X102901185Y-90201185D01*
X102980537Y-90104494D01*
X103039502Y-89994180D01*
X103075812Y-89874482D01*
X103088072Y-89750000D01*
X103088072Y-88391429D01*
X133740000Y-88391429D01*
X133740000Y-88708571D01*
X133801871Y-89019620D01*
X133923237Y-89312621D01*
X134099431Y-89576315D01*
X134323685Y-89800569D01*
X134587379Y-89976763D01*
X134880380Y-90098129D01*
X135191429Y-90160000D01*
X135508571Y-90160000D01*
X135819620Y-90098129D01*
X136112621Y-89976763D01*
X136376315Y-89800569D01*
X136600569Y-89576315D01*
X136776763Y-89312621D01*
X136898129Y-89019620D01*
X136960000Y-88708571D01*
X136960000Y-88391429D01*
X156600000Y-88391429D01*
X156600000Y-88708571D01*
X156661871Y-89019620D01*
X156783237Y-89312621D01*
X156959431Y-89576315D01*
X157183685Y-89800569D01*
X157447379Y-89976763D01*
X157740380Y-90098129D01*
X158051429Y-90160000D01*
X158368571Y-90160000D01*
X158679620Y-90098129D01*
X158972621Y-89976763D01*
X159236315Y-89800569D01*
X159460569Y-89576315D01*
X159636763Y-89312621D01*
X159758129Y-89019620D01*
X159820000Y-88708571D01*
X159820000Y-88391429D01*
X159758129Y-88080380D01*
X159636763Y-87787379D01*
X159460569Y-87523685D01*
X159236315Y-87299431D01*
X158972621Y-87123237D01*
X158679620Y-87001871D01*
X158368571Y-86940000D01*
X158051429Y-86940000D01*
X157740380Y-87001871D01*
X157447379Y-87123237D01*
X157183685Y-87299431D01*
X156959431Y-87523685D01*
X156783237Y-87787379D01*
X156661871Y-88080380D01*
X156600000Y-88391429D01*
X136960000Y-88391429D01*
X136898129Y-88080380D01*
X136776763Y-87787379D01*
X136600569Y-87523685D01*
X136376315Y-87299431D01*
X136112621Y-87123237D01*
X135819620Y-87001871D01*
X135508571Y-86940000D01*
X135191429Y-86940000D01*
X134880380Y-87001871D01*
X134587379Y-87123237D01*
X134323685Y-87299431D01*
X134099431Y-87523685D01*
X133923237Y-87787379D01*
X133801871Y-88080380D01*
X133740000Y-88391429D01*
X103088072Y-88391429D01*
X103088072Y-88050000D01*
X103075812Y-87925518D01*
X103039502Y-87805820D01*
X102980537Y-87695506D01*
X102901185Y-87598815D01*
X102804494Y-87519463D01*
X102694180Y-87460498D01*
X102574482Y-87424188D01*
X102450000Y-87411928D01*
X100750000Y-87411928D01*
X100625518Y-87424188D01*
X100505820Y-87460498D01*
X100395506Y-87519463D01*
X100298815Y-87598815D01*
X100219463Y-87695506D01*
X100160498Y-87805820D01*
X100139607Y-87874687D01*
X100115134Y-87844866D01*
X99889014Y-87659294D01*
X99631034Y-87521401D01*
X99351111Y-87436487D01*
X99132950Y-87415000D01*
X98987050Y-87415000D01*
X98768889Y-87436487D01*
X98488966Y-87521401D01*
X98230986Y-87659294D01*
X98004866Y-87844866D01*
X97819294Y-88070986D01*
X97681401Y-88328966D01*
X97596487Y-88608889D01*
X97567815Y-88900000D01*
X96647000Y-88900000D01*
X96647000Y-82391429D01*
X119440000Y-82391429D01*
X119440000Y-82708571D01*
X119501871Y-83019620D01*
X119623237Y-83312621D01*
X119799431Y-83576315D01*
X120023685Y-83800569D01*
X120287379Y-83976763D01*
X120580380Y-84098129D01*
X120891429Y-84160000D01*
X121208571Y-84160000D01*
X121519620Y-84098129D01*
X121812621Y-83976763D01*
X122076315Y-83800569D01*
X122300569Y-83576315D01*
X122334856Y-83525000D01*
X131736928Y-83525000D01*
X131749188Y-83649482D01*
X131785498Y-83769180D01*
X131844463Y-83879494D01*
X131923815Y-83976185D01*
X132020506Y-84055537D01*
X132130820Y-84114502D01*
X132250518Y-84150812D01*
X132375000Y-84163072D01*
X133064250Y-84160000D01*
X133223000Y-84001250D01*
X133223000Y-82677000D01*
X133477000Y-82677000D01*
X133477000Y-84001250D01*
X133635750Y-84160000D01*
X134325000Y-84163072D01*
X134449482Y-84150812D01*
X134569180Y-84114502D01*
X134679494Y-84055537D01*
X134776185Y-83976185D01*
X134855537Y-83879494D01*
X134914502Y-83769180D01*
X134945320Y-83667584D01*
X142972021Y-83667584D01*
X143064766Y-83929429D01*
X143350120Y-84067820D01*
X143656990Y-84147883D01*
X143973584Y-84166540D01*
X144287733Y-84123074D01*
X144587367Y-84019156D01*
X144755234Y-83929429D01*
X144847979Y-83667584D01*
X144705395Y-83525000D01*
X154596928Y-83525000D01*
X154609188Y-83649482D01*
X154645498Y-83769180D01*
X154704463Y-83879494D01*
X154783815Y-83976185D01*
X154880506Y-84055537D01*
X154990820Y-84114502D01*
X155110518Y-84150812D01*
X155235000Y-84163072D01*
X155924250Y-84160000D01*
X156083000Y-84001250D01*
X156083000Y-82677000D01*
X156337000Y-82677000D01*
X156337000Y-84001250D01*
X156495750Y-84160000D01*
X157185000Y-84163072D01*
X157309482Y-84150812D01*
X157429180Y-84114502D01*
X157539494Y-84055537D01*
X157636185Y-83976185D01*
X157715537Y-83879494D01*
X157774502Y-83769180D01*
X157810812Y-83649482D01*
X157823072Y-83525000D01*
X157820000Y-82835750D01*
X157661250Y-82677000D01*
X156337000Y-82677000D01*
X156083000Y-82677000D01*
X154758750Y-82677000D01*
X154600000Y-82835750D01*
X154596928Y-83525000D01*
X144705395Y-83525000D01*
X143910000Y-82729605D01*
X142972021Y-83667584D01*
X134945320Y-83667584D01*
X134950812Y-83649482D01*
X134963072Y-83525000D01*
X134960000Y-82835750D01*
X134801250Y-82677000D01*
X133477000Y-82677000D01*
X133223000Y-82677000D01*
X131898750Y-82677000D01*
X131740000Y-82835750D01*
X131736928Y-83525000D01*
X122334856Y-83525000D01*
X122476763Y-83312621D01*
X122598129Y-83019620D01*
X122660000Y-82708571D01*
X122660000Y-82613584D01*
X142293460Y-82613584D01*
X142336926Y-82927733D01*
X142440844Y-83227367D01*
X142530571Y-83395234D01*
X142792416Y-83487979D01*
X143730395Y-82550000D01*
X144089605Y-82550000D01*
X145027584Y-83487979D01*
X145289429Y-83395234D01*
X145427820Y-83109880D01*
X145507883Y-82803010D01*
X145526540Y-82486416D01*
X145483074Y-82172267D01*
X145379156Y-81872633D01*
X145289429Y-81704766D01*
X145027584Y-81612021D01*
X144089605Y-82550000D01*
X143730395Y-82550000D01*
X142792416Y-81612021D01*
X142530571Y-81704766D01*
X142392180Y-81990120D01*
X142312117Y-82296990D01*
X142293460Y-82613584D01*
X122660000Y-82613584D01*
X122660000Y-82391429D01*
X122598129Y-82080380D01*
X122476763Y-81787379D01*
X122334857Y-81575000D01*
X131736928Y-81575000D01*
X131740000Y-82264250D01*
X131898750Y-82423000D01*
X133223000Y-82423000D01*
X133223000Y-81098750D01*
X133477000Y-81098750D01*
X133477000Y-82423000D01*
X134801250Y-82423000D01*
X134960000Y-82264250D01*
X134963072Y-81575000D01*
X134950812Y-81450518D01*
X134945321Y-81432416D01*
X142972021Y-81432416D01*
X143910000Y-82370395D01*
X144705395Y-81575000D01*
X154596928Y-81575000D01*
X154600000Y-82264250D01*
X154758750Y-82423000D01*
X156083000Y-82423000D01*
X156083000Y-81098750D01*
X156337000Y-81098750D01*
X156337000Y-82423000D01*
X157661250Y-82423000D01*
X157820000Y-82264250D01*
X157823072Y-81575000D01*
X157810812Y-81450518D01*
X157774502Y-81330820D01*
X157715537Y-81220506D01*
X157636185Y-81123815D01*
X157539494Y-81044463D01*
X157429180Y-80985498D01*
X157309482Y-80949188D01*
X157185000Y-80936928D01*
X156495750Y-80940000D01*
X156337000Y-81098750D01*
X156083000Y-81098750D01*
X155924250Y-80940000D01*
X155235000Y-80936928D01*
X155110518Y-80949188D01*
X154990820Y-80985498D01*
X154880506Y-81044463D01*
X154783815Y-81123815D01*
X154704463Y-81220506D01*
X154645498Y-81330820D01*
X154609188Y-81450518D01*
X154596928Y-81575000D01*
X144705395Y-81575000D01*
X144847979Y-81432416D01*
X144755234Y-81170571D01*
X144469880Y-81032180D01*
X144163010Y-80952117D01*
X143846416Y-80933460D01*
X143532267Y-80976926D01*
X143232633Y-81080844D01*
X143064766Y-81170571D01*
X142972021Y-81432416D01*
X134945321Y-81432416D01*
X134914502Y-81330820D01*
X134855537Y-81220506D01*
X134776185Y-81123815D01*
X134679494Y-81044463D01*
X134569180Y-80985498D01*
X134449482Y-80949188D01*
X134325000Y-80936928D01*
X133635750Y-80940000D01*
X133477000Y-81098750D01*
X133223000Y-81098750D01*
X133064250Y-80940000D01*
X132375000Y-80936928D01*
X132250518Y-80949188D01*
X132130820Y-80985498D01*
X132020506Y-81044463D01*
X131923815Y-81123815D01*
X131844463Y-81220506D01*
X131785498Y-81330820D01*
X131749188Y-81450518D01*
X131736928Y-81575000D01*
X122334857Y-81575000D01*
X122300569Y-81523685D01*
X122076315Y-81299431D01*
X121812621Y-81123237D01*
X121519620Y-81001871D01*
X121208571Y-80940000D01*
X120891429Y-80940000D01*
X120580380Y-81001871D01*
X120287379Y-81123237D01*
X120023685Y-81299431D01*
X119799431Y-81523685D01*
X119623237Y-81787379D01*
X119501871Y-82080380D01*
X119440000Y-82391429D01*
X96647000Y-82391429D01*
X96647000Y-76556890D01*
X97618524Y-76556890D01*
X97663175Y-76704099D01*
X97788359Y-76966920D01*
X97962412Y-77200269D01*
X98178645Y-77395178D01*
X98428748Y-77544157D01*
X98703109Y-77641481D01*
X98933000Y-77520814D01*
X98933000Y-76327000D01*
X99187000Y-76327000D01*
X99187000Y-77520814D01*
X99416891Y-77641481D01*
X99691252Y-77544157D01*
X99941355Y-77395178D01*
X100157588Y-77200269D01*
X100331641Y-76966920D01*
X100456825Y-76704099D01*
X100501476Y-76556890D01*
X102698524Y-76556890D01*
X102743175Y-76704099D01*
X102868359Y-76966920D01*
X103042412Y-77200269D01*
X103258645Y-77395178D01*
X103508748Y-77544157D01*
X103783109Y-77641481D01*
X104013000Y-77520814D01*
X104013000Y-76327000D01*
X104267000Y-76327000D01*
X104267000Y-77520814D01*
X104496891Y-77641481D01*
X104771252Y-77544157D01*
X105021355Y-77395178D01*
X105237588Y-77200269D01*
X105411641Y-76966920D01*
X105536825Y-76704099D01*
X105581476Y-76556890D01*
X107778524Y-76556890D01*
X107823175Y-76704099D01*
X107948359Y-76966920D01*
X108122412Y-77200269D01*
X108338645Y-77395178D01*
X108588748Y-77544157D01*
X108863109Y-77641481D01*
X109093000Y-77520814D01*
X109093000Y-76327000D01*
X109347000Y-76327000D01*
X109347000Y-77520814D01*
X109576891Y-77641481D01*
X109851252Y-77544157D01*
X110101355Y-77395178D01*
X110317588Y-77200269D01*
X110491641Y-76966920D01*
X110616825Y-76704099D01*
X110661476Y-76556890D01*
X112858524Y-76556890D01*
X112903175Y-76704099D01*
X113028359Y-76966920D01*
X113202412Y-77200269D01*
X113418645Y-77395178D01*
X113668748Y-77544157D01*
X113943109Y-77641481D01*
X114173000Y-77520814D01*
X114173000Y-76327000D01*
X114427000Y-76327000D01*
X114427000Y-77520814D01*
X114656891Y-77641481D01*
X114931252Y-77544157D01*
X115181355Y-77395178D01*
X115397588Y-77200269D01*
X115571641Y-76966920D01*
X115696825Y-76704099D01*
X115741476Y-76556890D01*
X117938524Y-76556890D01*
X117983175Y-76704099D01*
X118108359Y-76966920D01*
X118282412Y-77200269D01*
X118498645Y-77395178D01*
X118748748Y-77544157D01*
X119023109Y-77641481D01*
X119253000Y-77520814D01*
X119253000Y-76327000D01*
X119507000Y-76327000D01*
X119507000Y-77520814D01*
X119736891Y-77641481D01*
X120011252Y-77544157D01*
X120261355Y-77395178D01*
X120477588Y-77200269D01*
X120651641Y-76966920D01*
X120776825Y-76704099D01*
X120821476Y-76556890D01*
X120700155Y-76327000D01*
X119507000Y-76327000D01*
X119253000Y-76327000D01*
X118059845Y-76327000D01*
X117938524Y-76556890D01*
X115741476Y-76556890D01*
X115620155Y-76327000D01*
X114427000Y-76327000D01*
X114173000Y-76327000D01*
X112979845Y-76327000D01*
X112858524Y-76556890D01*
X110661476Y-76556890D01*
X110540155Y-76327000D01*
X109347000Y-76327000D01*
X109093000Y-76327000D01*
X107899845Y-76327000D01*
X107778524Y-76556890D01*
X105581476Y-76556890D01*
X105460155Y-76327000D01*
X104267000Y-76327000D01*
X104013000Y-76327000D01*
X102819845Y-76327000D01*
X102698524Y-76556890D01*
X100501476Y-76556890D01*
X100380155Y-76327000D01*
X99187000Y-76327000D01*
X98933000Y-76327000D01*
X97739845Y-76327000D01*
X97618524Y-76556890D01*
X96647000Y-76556890D01*
X96647000Y-73660000D01*
X97567815Y-73660000D01*
X97596487Y-73951111D01*
X97681401Y-74231034D01*
X97819294Y-74489014D01*
X98004866Y-74715134D01*
X98230986Y-74900706D01*
X98295523Y-74935201D01*
X98178645Y-75004822D01*
X97962412Y-75199731D01*
X97788359Y-75433080D01*
X97663175Y-75695901D01*
X97618524Y-75843110D01*
X97739845Y-76073000D01*
X98933000Y-76073000D01*
X98933000Y-76053000D01*
X99187000Y-76053000D01*
X99187000Y-76073000D01*
X100380155Y-76073000D01*
X100501476Y-75843110D01*
X100456825Y-75695901D01*
X100331641Y-75433080D01*
X100157588Y-75199731D01*
X99941355Y-75004822D01*
X99824477Y-74935201D01*
X99889014Y-74900706D01*
X100115134Y-74715134D01*
X100300706Y-74489014D01*
X100438599Y-74231034D01*
X100523513Y-73951111D01*
X100552185Y-73660000D01*
X102647815Y-73660000D01*
X102676487Y-73951111D01*
X102761401Y-74231034D01*
X102899294Y-74489014D01*
X103084866Y-74715134D01*
X103310986Y-74900706D01*
X103375523Y-74935201D01*
X103258645Y-75004822D01*
X103042412Y-75199731D01*
X102868359Y-75433080D01*
X102743175Y-75695901D01*
X102698524Y-75843110D01*
X102819845Y-76073000D01*
X104013000Y-76073000D01*
X104013000Y-76053000D01*
X104267000Y-76053000D01*
X104267000Y-76073000D01*
X105460155Y-76073000D01*
X105581476Y-75843110D01*
X105536825Y-75695901D01*
X105411641Y-75433080D01*
X105237588Y-75199731D01*
X105021355Y-75004822D01*
X104904477Y-74935201D01*
X104969014Y-74900706D01*
X105195134Y-74715134D01*
X105380706Y-74489014D01*
X105518599Y-74231034D01*
X105603513Y-73951111D01*
X105632185Y-73660000D01*
X107727815Y-73660000D01*
X107756487Y-73951111D01*
X107841401Y-74231034D01*
X107979294Y-74489014D01*
X108164866Y-74715134D01*
X108390986Y-74900706D01*
X108455523Y-74935201D01*
X108338645Y-75004822D01*
X108122412Y-75199731D01*
X107948359Y-75433080D01*
X107823175Y-75695901D01*
X107778524Y-75843110D01*
X107899845Y-76073000D01*
X109093000Y-76073000D01*
X109093000Y-76053000D01*
X109347000Y-76053000D01*
X109347000Y-76073000D01*
X110540155Y-76073000D01*
X110661476Y-75843110D01*
X110616825Y-75695901D01*
X110491641Y-75433080D01*
X110317588Y-75199731D01*
X110101355Y-75004822D01*
X109984477Y-74935201D01*
X110049014Y-74900706D01*
X110275134Y-74715134D01*
X110460706Y-74489014D01*
X110598599Y-74231034D01*
X110683513Y-73951111D01*
X110712185Y-73660000D01*
X112807815Y-73660000D01*
X112836487Y-73951111D01*
X112921401Y-74231034D01*
X113059294Y-74489014D01*
X113244866Y-74715134D01*
X113470986Y-74900706D01*
X113535523Y-74935201D01*
X113418645Y-75004822D01*
X113202412Y-75199731D01*
X113028359Y-75433080D01*
X112903175Y-75695901D01*
X112858524Y-75843110D01*
X112979845Y-76073000D01*
X114173000Y-76073000D01*
X114173000Y-76053000D01*
X114427000Y-76053000D01*
X114427000Y-76073000D01*
X115620155Y-76073000D01*
X115741476Y-75843110D01*
X115696825Y-75695901D01*
X115571641Y-75433080D01*
X115397588Y-75199731D01*
X115181355Y-75004822D01*
X115064477Y-74935201D01*
X115129014Y-74900706D01*
X115355134Y-74715134D01*
X115540706Y-74489014D01*
X115678599Y-74231034D01*
X115763513Y-73951111D01*
X115792185Y-73660000D01*
X117887815Y-73660000D01*
X117916487Y-73951111D01*
X118001401Y-74231034D01*
X118139294Y-74489014D01*
X118324866Y-74715134D01*
X118550986Y-74900706D01*
X118615523Y-74935201D01*
X118498645Y-75004822D01*
X118282412Y-75199731D01*
X118108359Y-75433080D01*
X117983175Y-75695901D01*
X117938524Y-75843110D01*
X118059845Y-76073000D01*
X119253000Y-76073000D01*
X119253000Y-76053000D01*
X119507000Y-76053000D01*
X119507000Y-76073000D01*
X120700155Y-76073000D01*
X120821476Y-75843110D01*
X120776825Y-75695901D01*
X120651641Y-75433080D01*
X120477588Y-75199731D01*
X120261355Y-75004822D01*
X120144477Y-74935201D01*
X120209014Y-74900706D01*
X120435134Y-74715134D01*
X120620706Y-74489014D01*
X120758599Y-74231034D01*
X120843513Y-73951111D01*
X120872185Y-73660000D01*
X120843513Y-73368889D01*
X120758599Y-73088966D01*
X120620706Y-72830986D01*
X120435134Y-72604866D01*
X120405313Y-72580393D01*
X120474180Y-72559502D01*
X120584494Y-72500537D01*
X120681185Y-72421185D01*
X120760537Y-72324494D01*
X120819502Y-72214180D01*
X120855812Y-72094482D01*
X120868072Y-71970000D01*
X120868072Y-70270000D01*
X120855812Y-70145518D01*
X120819502Y-70025820D01*
X120760537Y-69915506D01*
X120681185Y-69818815D01*
X120609519Y-69760000D01*
X123081928Y-69760000D01*
X123081928Y-71360000D01*
X123094188Y-71484482D01*
X123130498Y-71604180D01*
X123189463Y-71714494D01*
X123268815Y-71811185D01*
X123365506Y-71890537D01*
X123475820Y-71949502D01*
X123595518Y-71985812D01*
X123720000Y-71998072D01*
X125320000Y-71998072D01*
X125444482Y-71985812D01*
X125564180Y-71949502D01*
X125674494Y-71890537D01*
X125771185Y-71811185D01*
X125850537Y-71714494D01*
X125909502Y-71604180D01*
X125945812Y-71484482D01*
X125947581Y-71466518D01*
X126040392Y-71579608D01*
X126258899Y-71758932D01*
X126508192Y-71892182D01*
X126778691Y-71974236D01*
X126989508Y-71995000D01*
X127130492Y-71995000D01*
X127341309Y-71974236D01*
X127611808Y-71892182D01*
X127861101Y-71758932D01*
X128079608Y-71579608D01*
X128258932Y-71361101D01*
X128330000Y-71228142D01*
X128401068Y-71361101D01*
X128580392Y-71579608D01*
X128798899Y-71758932D01*
X129048192Y-71892182D01*
X129318691Y-71974236D01*
X129529508Y-71995000D01*
X129670492Y-71995000D01*
X129881309Y-71974236D01*
X130151808Y-71892182D01*
X130401101Y-71758932D01*
X130619608Y-71579608D01*
X130798932Y-71361101D01*
X130870000Y-71228142D01*
X130941068Y-71361101D01*
X131120392Y-71579608D01*
X131338899Y-71758932D01*
X131588192Y-71892182D01*
X131858691Y-71974236D01*
X132069508Y-71995000D01*
X132210492Y-71995000D01*
X132421309Y-71974236D01*
X132691808Y-71892182D01*
X132941101Y-71758932D01*
X133159608Y-71579608D01*
X133338932Y-71361101D01*
X133410000Y-71228142D01*
X133481068Y-71361101D01*
X133660392Y-71579608D01*
X133878899Y-71758932D01*
X134128192Y-71892182D01*
X134398691Y-71974236D01*
X134609508Y-71995000D01*
X134750492Y-71995000D01*
X134961309Y-71974236D01*
X135231808Y-71892182D01*
X135481101Y-71758932D01*
X135699608Y-71579608D01*
X135878932Y-71361101D01*
X135952579Y-71223318D01*
X136067615Y-71415131D01*
X136256586Y-71623519D01*
X136482580Y-71791037D01*
X136736913Y-71911246D01*
X136870961Y-71951904D01*
X137093000Y-71829915D01*
X137093000Y-70687000D01*
X137347000Y-70687000D01*
X137347000Y-71829915D01*
X137569039Y-71951904D01*
X137703087Y-71911246D01*
X137957420Y-71791037D01*
X138183414Y-71623519D01*
X138372385Y-71415131D01*
X138490000Y-71219018D01*
X138607615Y-71415131D01*
X138796586Y-71623519D01*
X139022580Y-71791037D01*
X139276913Y-71911246D01*
X139410961Y-71951904D01*
X139633000Y-71829915D01*
X139633000Y-70687000D01*
X137347000Y-70687000D01*
X137093000Y-70687000D01*
X137073000Y-70687000D01*
X137073000Y-70433000D01*
X137093000Y-70433000D01*
X137093000Y-69290085D01*
X137347000Y-69290085D01*
X137347000Y-70433000D01*
X139633000Y-70433000D01*
X139633000Y-69290085D01*
X139887000Y-69290085D01*
X139887000Y-70433000D01*
X139907000Y-70433000D01*
X139907000Y-70687000D01*
X139887000Y-70687000D01*
X139887000Y-71829915D01*
X140109039Y-71951904D01*
X140243087Y-71911246D01*
X140497420Y-71791037D01*
X140723414Y-71623519D01*
X140912385Y-71415131D01*
X141027421Y-71223318D01*
X141101068Y-71361101D01*
X141280392Y-71579608D01*
X141498899Y-71758932D01*
X141748192Y-71892182D01*
X142018691Y-71974236D01*
X142229508Y-71995000D01*
X142370492Y-71995000D01*
X142581309Y-71974236D01*
X142851808Y-71892182D01*
X143101101Y-71758932D01*
X143319608Y-71579608D01*
X143498932Y-71361101D01*
X143632182Y-71111808D01*
X143714236Y-70841309D01*
X143741943Y-70560000D01*
X145938057Y-70560000D01*
X145965764Y-70841309D01*
X146047818Y-71111808D01*
X146181068Y-71361101D01*
X146360392Y-71579608D01*
X146578899Y-71758932D01*
X146828192Y-71892182D01*
X147098691Y-71974236D01*
X147309508Y-71995000D01*
X147450492Y-71995000D01*
X147661309Y-71974236D01*
X147931808Y-71892182D01*
X148181101Y-71758932D01*
X148399608Y-71579608D01*
X148578932Y-71361101D01*
X148650000Y-71228142D01*
X148721068Y-71361101D01*
X148900392Y-71579608D01*
X149118899Y-71758932D01*
X149368192Y-71892182D01*
X149638691Y-71974236D01*
X149849508Y-71995000D01*
X149990492Y-71995000D01*
X150201309Y-71974236D01*
X150471808Y-71892182D01*
X150721101Y-71758932D01*
X150939608Y-71579608D01*
X151118932Y-71361101D01*
X151190000Y-71228142D01*
X151261068Y-71361101D01*
X151440392Y-71579608D01*
X151658899Y-71758932D01*
X151908192Y-71892182D01*
X152178691Y-71974236D01*
X152389508Y-71995000D01*
X152530492Y-71995000D01*
X152741309Y-71974236D01*
X153011808Y-71892182D01*
X153261101Y-71758932D01*
X153479608Y-71579608D01*
X153658932Y-71361101D01*
X153730000Y-71228142D01*
X153801068Y-71361101D01*
X153980392Y-71579608D01*
X154198899Y-71758932D01*
X154448192Y-71892182D01*
X154718691Y-71974236D01*
X154929508Y-71995000D01*
X155070492Y-71995000D01*
X155281309Y-71974236D01*
X155551808Y-71892182D01*
X155801101Y-71758932D01*
X156019608Y-71579608D01*
X156198932Y-71361101D01*
X156270000Y-71228142D01*
X156341068Y-71361101D01*
X156520392Y-71579608D01*
X156738899Y-71758932D01*
X156988192Y-71892182D01*
X157258691Y-71974236D01*
X157469508Y-71995000D01*
X157610492Y-71995000D01*
X157821309Y-71974236D01*
X158091808Y-71892182D01*
X158341101Y-71758932D01*
X158559608Y-71579608D01*
X158738932Y-71361101D01*
X158810000Y-71228142D01*
X158881068Y-71361101D01*
X159060392Y-71579608D01*
X159278899Y-71758932D01*
X159528192Y-71892182D01*
X159798691Y-71974236D01*
X160009508Y-71995000D01*
X160150492Y-71995000D01*
X160361309Y-71974236D01*
X160631808Y-71892182D01*
X160881101Y-71758932D01*
X161099608Y-71579608D01*
X161278932Y-71361101D01*
X161412182Y-71111808D01*
X161494236Y-70841309D01*
X161521943Y-70560000D01*
X161494236Y-70278691D01*
X161412182Y-70008192D01*
X161278932Y-69758899D01*
X161099608Y-69540392D01*
X160881101Y-69361068D01*
X160631808Y-69227818D01*
X160361309Y-69145764D01*
X160150492Y-69125000D01*
X160009508Y-69125000D01*
X159798691Y-69145764D01*
X159528192Y-69227818D01*
X159278899Y-69361068D01*
X159060392Y-69540392D01*
X158881068Y-69758899D01*
X158810000Y-69891858D01*
X158738932Y-69758899D01*
X158559608Y-69540392D01*
X158341101Y-69361068D01*
X158091808Y-69227818D01*
X157821309Y-69145764D01*
X157610492Y-69125000D01*
X157469508Y-69125000D01*
X157258691Y-69145764D01*
X156988192Y-69227818D01*
X156738899Y-69361068D01*
X156520392Y-69540392D01*
X156341068Y-69758899D01*
X156270000Y-69891858D01*
X156198932Y-69758899D01*
X156019608Y-69540392D01*
X155801101Y-69361068D01*
X155551808Y-69227818D01*
X155281309Y-69145764D01*
X155070492Y-69125000D01*
X154929508Y-69125000D01*
X154718691Y-69145764D01*
X154448192Y-69227818D01*
X154198899Y-69361068D01*
X153980392Y-69540392D01*
X153801068Y-69758899D01*
X153730000Y-69891858D01*
X153658932Y-69758899D01*
X153479608Y-69540392D01*
X153261101Y-69361068D01*
X153011808Y-69227818D01*
X152741309Y-69145764D01*
X152530492Y-69125000D01*
X152389508Y-69125000D01*
X152178691Y-69145764D01*
X151908192Y-69227818D01*
X151658899Y-69361068D01*
X151440392Y-69540392D01*
X151261068Y-69758899D01*
X151190000Y-69891858D01*
X151118932Y-69758899D01*
X150939608Y-69540392D01*
X150721101Y-69361068D01*
X150471808Y-69227818D01*
X150201309Y-69145764D01*
X149990492Y-69125000D01*
X149849508Y-69125000D01*
X149638691Y-69145764D01*
X149368192Y-69227818D01*
X149118899Y-69361068D01*
X148900392Y-69540392D01*
X148721068Y-69758899D01*
X148650000Y-69891858D01*
X148578932Y-69758899D01*
X148399608Y-69540392D01*
X148181101Y-69361068D01*
X147931808Y-69227818D01*
X147661309Y-69145764D01*
X147450492Y-69125000D01*
X147309508Y-69125000D01*
X147098691Y-69145764D01*
X146828192Y-69227818D01*
X146578899Y-69361068D01*
X146360392Y-69540392D01*
X146181068Y-69758899D01*
X146047818Y-70008192D01*
X145965764Y-70278691D01*
X145938057Y-70560000D01*
X143741943Y-70560000D01*
X143714236Y-70278691D01*
X143632182Y-70008192D01*
X143498932Y-69758899D01*
X143319608Y-69540392D01*
X143101101Y-69361068D01*
X142851808Y-69227818D01*
X142581309Y-69145764D01*
X142370492Y-69125000D01*
X142229508Y-69125000D01*
X142018691Y-69145764D01*
X141748192Y-69227818D01*
X141498899Y-69361068D01*
X141280392Y-69540392D01*
X141101068Y-69758899D01*
X141027421Y-69896682D01*
X140912385Y-69704869D01*
X140723414Y-69496481D01*
X140497420Y-69328963D01*
X140243087Y-69208754D01*
X140109039Y-69168096D01*
X139887000Y-69290085D01*
X139633000Y-69290085D01*
X139410961Y-69168096D01*
X139276913Y-69208754D01*
X139022580Y-69328963D01*
X138796586Y-69496481D01*
X138607615Y-69704869D01*
X138490000Y-69900982D01*
X138372385Y-69704869D01*
X138183414Y-69496481D01*
X137957420Y-69328963D01*
X137703087Y-69208754D01*
X137569039Y-69168096D01*
X137347000Y-69290085D01*
X137093000Y-69290085D01*
X136870961Y-69168096D01*
X136736913Y-69208754D01*
X136482580Y-69328963D01*
X136256586Y-69496481D01*
X136067615Y-69704869D01*
X135952579Y-69896682D01*
X135878932Y-69758899D01*
X135699608Y-69540392D01*
X135481101Y-69361068D01*
X135231808Y-69227818D01*
X134961309Y-69145764D01*
X134750492Y-69125000D01*
X134609508Y-69125000D01*
X134398691Y-69145764D01*
X134128192Y-69227818D01*
X133878899Y-69361068D01*
X133660392Y-69540392D01*
X133481068Y-69758899D01*
X133410000Y-69891858D01*
X133338932Y-69758899D01*
X133159608Y-69540392D01*
X132941101Y-69361068D01*
X132691808Y-69227818D01*
X132421309Y-69145764D01*
X132210492Y-69125000D01*
X132069508Y-69125000D01*
X131858691Y-69145764D01*
X131588192Y-69227818D01*
X131338899Y-69361068D01*
X131120392Y-69540392D01*
X130941068Y-69758899D01*
X130870000Y-69891858D01*
X130798932Y-69758899D01*
X130619608Y-69540392D01*
X130401101Y-69361068D01*
X130151808Y-69227818D01*
X129881309Y-69145764D01*
X129670492Y-69125000D01*
X129529508Y-69125000D01*
X129318691Y-69145764D01*
X129048192Y-69227818D01*
X128798899Y-69361068D01*
X128580392Y-69540392D01*
X128401068Y-69758899D01*
X128330000Y-69891858D01*
X128258932Y-69758899D01*
X128079608Y-69540392D01*
X127861101Y-69361068D01*
X127611808Y-69227818D01*
X127341309Y-69145764D01*
X127130492Y-69125000D01*
X126989508Y-69125000D01*
X126778691Y-69145764D01*
X126508192Y-69227818D01*
X126258899Y-69361068D01*
X126040392Y-69540392D01*
X125947581Y-69653482D01*
X125945812Y-69635518D01*
X125909502Y-69515820D01*
X125850537Y-69405506D01*
X125771185Y-69308815D01*
X125674494Y-69229463D01*
X125564180Y-69170498D01*
X125444482Y-69134188D01*
X125320000Y-69121928D01*
X123720000Y-69121928D01*
X123595518Y-69134188D01*
X123475820Y-69170498D01*
X123365506Y-69229463D01*
X123268815Y-69308815D01*
X123189463Y-69405506D01*
X123130498Y-69515820D01*
X123094188Y-69635518D01*
X123081928Y-69760000D01*
X120609519Y-69760000D01*
X120584494Y-69739463D01*
X120474180Y-69680498D01*
X120354482Y-69644188D01*
X120230000Y-69631928D01*
X118530000Y-69631928D01*
X118405518Y-69644188D01*
X118285820Y-69680498D01*
X118175506Y-69739463D01*
X118078815Y-69818815D01*
X117999463Y-69915506D01*
X117940498Y-70025820D01*
X117904188Y-70145518D01*
X117891928Y-70270000D01*
X117891928Y-71970000D01*
X117904188Y-72094482D01*
X117940498Y-72214180D01*
X117999463Y-72324494D01*
X118078815Y-72421185D01*
X118175506Y-72500537D01*
X118285820Y-72559502D01*
X118354687Y-72580393D01*
X118324866Y-72604866D01*
X118139294Y-72830986D01*
X118001401Y-73088966D01*
X117916487Y-73368889D01*
X117887815Y-73660000D01*
X115792185Y-73660000D01*
X115763513Y-73368889D01*
X115678599Y-73088966D01*
X115540706Y-72830986D01*
X115355134Y-72604866D01*
X115325313Y-72580393D01*
X115394180Y-72559502D01*
X115504494Y-72500537D01*
X115601185Y-72421185D01*
X115680537Y-72324494D01*
X115739502Y-72214180D01*
X115775812Y-72094482D01*
X115788072Y-71970000D01*
X115788072Y-70270000D01*
X115775812Y-70145518D01*
X115739502Y-70025820D01*
X115680537Y-69915506D01*
X115601185Y-69818815D01*
X115504494Y-69739463D01*
X115394180Y-69680498D01*
X115274482Y-69644188D01*
X115150000Y-69631928D01*
X113450000Y-69631928D01*
X113325518Y-69644188D01*
X113205820Y-69680498D01*
X113095506Y-69739463D01*
X112998815Y-69818815D01*
X112919463Y-69915506D01*
X112860498Y-70025820D01*
X112824188Y-70145518D01*
X112811928Y-70270000D01*
X112811928Y-71970000D01*
X112824188Y-72094482D01*
X112860498Y-72214180D01*
X112919463Y-72324494D01*
X112998815Y-72421185D01*
X113095506Y-72500537D01*
X113205820Y-72559502D01*
X113274687Y-72580393D01*
X113244866Y-72604866D01*
X113059294Y-72830986D01*
X112921401Y-73088966D01*
X112836487Y-73368889D01*
X112807815Y-73660000D01*
X110712185Y-73660000D01*
X110683513Y-73368889D01*
X110598599Y-73088966D01*
X110460706Y-72830986D01*
X110275134Y-72604866D01*
X110245313Y-72580393D01*
X110314180Y-72559502D01*
X110424494Y-72500537D01*
X110521185Y-72421185D01*
X110600537Y-72324494D01*
X110659502Y-72214180D01*
X110695812Y-72094482D01*
X110708072Y-71970000D01*
X110708072Y-70270000D01*
X110695812Y-70145518D01*
X110659502Y-70025820D01*
X110600537Y-69915506D01*
X110521185Y-69818815D01*
X110424494Y-69739463D01*
X110314180Y-69680498D01*
X110194482Y-69644188D01*
X110070000Y-69631928D01*
X108370000Y-69631928D01*
X108245518Y-69644188D01*
X108125820Y-69680498D01*
X108015506Y-69739463D01*
X107918815Y-69818815D01*
X107839463Y-69915506D01*
X107780498Y-70025820D01*
X107744188Y-70145518D01*
X107731928Y-70270000D01*
X107731928Y-71970000D01*
X107744188Y-72094482D01*
X107780498Y-72214180D01*
X107839463Y-72324494D01*
X107918815Y-72421185D01*
X108015506Y-72500537D01*
X108125820Y-72559502D01*
X108194687Y-72580393D01*
X108164866Y-72604866D01*
X107979294Y-72830986D01*
X107841401Y-73088966D01*
X107756487Y-73368889D01*
X107727815Y-73660000D01*
X105632185Y-73660000D01*
X105603513Y-73368889D01*
X105518599Y-73088966D01*
X105380706Y-72830986D01*
X105195134Y-72604866D01*
X105165313Y-72580393D01*
X105234180Y-72559502D01*
X105344494Y-72500537D01*
X105441185Y-72421185D01*
X105520537Y-72324494D01*
X105579502Y-72214180D01*
X105615812Y-72094482D01*
X105628072Y-71970000D01*
X105628072Y-70270000D01*
X105615812Y-70145518D01*
X105579502Y-70025820D01*
X105520537Y-69915506D01*
X105441185Y-69818815D01*
X105344494Y-69739463D01*
X105234180Y-69680498D01*
X105114482Y-69644188D01*
X104990000Y-69631928D01*
X103290000Y-69631928D01*
X103165518Y-69644188D01*
X103045820Y-69680498D01*
X102935506Y-69739463D01*
X102838815Y-69818815D01*
X102759463Y-69915506D01*
X102700498Y-70025820D01*
X102664188Y-70145518D01*
X102651928Y-70270000D01*
X102651928Y-71970000D01*
X102664188Y-72094482D01*
X102700498Y-72214180D01*
X102759463Y-72324494D01*
X102838815Y-72421185D01*
X102935506Y-72500537D01*
X103045820Y-72559502D01*
X103114687Y-72580393D01*
X103084866Y-72604866D01*
X102899294Y-72830986D01*
X102761401Y-73088966D01*
X102676487Y-73368889D01*
X102647815Y-73660000D01*
X100552185Y-73660000D01*
X100523513Y-73368889D01*
X100438599Y-73088966D01*
X100300706Y-72830986D01*
X100115134Y-72604866D01*
X100085313Y-72580393D01*
X100154180Y-72559502D01*
X100264494Y-72500537D01*
X100361185Y-72421185D01*
X100440537Y-72324494D01*
X100499502Y-72214180D01*
X100535812Y-72094482D01*
X100548072Y-71970000D01*
X100548072Y-70270000D01*
X100535812Y-70145518D01*
X100499502Y-70025820D01*
X100440537Y-69915506D01*
X100361185Y-69818815D01*
X100264494Y-69739463D01*
X100154180Y-69680498D01*
X100034482Y-69644188D01*
X99910000Y-69631928D01*
X98210000Y-69631928D01*
X98085518Y-69644188D01*
X97965820Y-69680498D01*
X97855506Y-69739463D01*
X97758815Y-69818815D01*
X97679463Y-69915506D01*
X97620498Y-70025820D01*
X97584188Y-70145518D01*
X97571928Y-70270000D01*
X97571928Y-71970000D01*
X97584188Y-72094482D01*
X97620498Y-72214180D01*
X97679463Y-72324494D01*
X97758815Y-72421185D01*
X97855506Y-72500537D01*
X97965820Y-72559502D01*
X98034687Y-72580393D01*
X98004866Y-72604866D01*
X97819294Y-72830986D01*
X97681401Y-73088966D01*
X97596487Y-73368889D01*
X97567815Y-73660000D01*
X96647000Y-73660000D01*
X96647000Y-67437000D01*
X162433000Y-67437000D01*
X162433000Y-120523000D01*
M02*
