G04 #@! TF.GenerationSoftware,KiCad,Pcbnew,(5.1.2)-1*
G04 #@! TF.CreationDate,2020-05-26T19:14:15-07:00*
G04 #@! TF.ProjectId,MushAuto_UnoShield,4d757368-4175-4746-9f5f-556e6f536869,rev?*
G04 #@! TF.SameCoordinates,Original*
G04 #@! TF.FileFunction,Legend,Top*
G04 #@! TF.FilePolarity,Positive*
%FSLAX46Y46*%
G04 Gerber Fmt 4.6, Leading zero omitted, Abs format (unit mm)*
G04 Created by KiCad (PCBNEW (5.1.2)-1) date 2020-05-26 19:14:15*
%MOMM*%
%LPD*%
G04 APERTURE LIST*
%ADD10C,0.150000*%
%ADD11C,0.120000*%
%ADD12C,0.100000*%
%ADD13C,0.254000*%
G04 APERTURE END LIST*
D10*
X101219047Y-101671428D02*
X101980952Y-101671428D01*
X101219047Y-96591428D02*
X101980952Y-96591428D01*
X101219047Y-91511428D02*
X101980952Y-91511428D01*
X98679047Y-101671428D02*
X99440952Y-101671428D01*
X99060000Y-102052380D02*
X99060000Y-101290476D01*
X98679047Y-96591428D02*
X99440952Y-96591428D01*
X99060000Y-96972380D02*
X99060000Y-96210476D01*
X98679047Y-91511428D02*
X99440952Y-91511428D01*
X99060000Y-91892380D02*
X99060000Y-91130476D01*
D11*
X100330000Y-105470000D02*
X100330000Y-90230000D01*
X97730000Y-90230000D02*
X97730000Y-105470000D01*
X100390000Y-114240000D02*
X110430000Y-114240000D01*
X110430000Y-116840000D02*
X100390000Y-116840000D01*
D10*
X108204047Y-118181428D02*
X108965952Y-118181428D01*
X101854047Y-118181428D02*
X102615952Y-118181428D01*
X101854047Y-115641428D02*
X102615952Y-115641428D01*
X102235000Y-116022380D02*
X102235000Y-115260476D01*
X108204047Y-115641428D02*
X108965952Y-115641428D01*
X108585000Y-116022380D02*
X108585000Y-115260476D01*
D12*
X159810000Y-99980000D02*
X159810000Y-115220000D01*
X140310000Y-99980000D02*
X159810000Y-99980000D01*
X140310000Y-115220000D02*
X140310000Y-99980000D01*
X159810000Y-115220000D02*
X140310000Y-115220000D01*
X159810000Y-80930000D02*
X159810000Y-96170000D01*
X140310000Y-80930000D02*
X159810000Y-80930000D01*
X140310000Y-96170000D02*
X140310000Y-80930000D01*
X159810000Y-96170000D02*
X140310000Y-96170000D01*
D11*
X102930000Y-109220000D02*
X102930000Y-110550000D01*
X102930000Y-110550000D02*
X101600000Y-110550000D01*
X100330000Y-110550000D02*
X97730000Y-110550000D01*
X97730000Y-107890000D02*
X97730000Y-110550000D01*
X100330000Y-107890000D02*
X97730000Y-107890000D01*
X100330000Y-107890000D02*
X100330000Y-110550000D01*
X119380000Y-69790000D02*
X120710000Y-69790000D01*
X120710000Y-69790000D02*
X120710000Y-71120000D01*
X120710000Y-72390000D02*
X120710000Y-77530000D01*
X118050000Y-77530000D02*
X120710000Y-77530000D01*
X118050000Y-72390000D02*
X118050000Y-77530000D01*
X118050000Y-72390000D02*
X120710000Y-72390000D01*
D12*
X136950000Y-80930000D02*
X136950000Y-96170000D01*
X117450000Y-80930000D02*
X136950000Y-80930000D01*
X117450000Y-96170000D02*
X117450000Y-80930000D01*
X136950000Y-96170000D02*
X117450000Y-96170000D01*
X136950000Y-99980000D02*
X136950000Y-115220000D01*
X117450000Y-99980000D02*
X136950000Y-99980000D01*
X117450000Y-115220000D02*
X117450000Y-99980000D01*
X136950000Y-115220000D02*
X117450000Y-115220000D01*
D11*
X113090000Y-116840000D02*
X110430000Y-116840000D01*
X113090000Y-116840000D02*
X113090000Y-114240000D01*
X113090000Y-114240000D02*
X110430000Y-114240000D01*
X110430000Y-116840000D02*
X110430000Y-114240000D01*
X110430000Y-119440000D02*
X110430000Y-118110000D01*
X111760000Y-119440000D02*
X110430000Y-119440000D01*
X99060000Y-69790000D02*
X100390000Y-69790000D01*
X100390000Y-69790000D02*
X100390000Y-71120000D01*
X100390000Y-72390000D02*
X100390000Y-77530000D01*
X97730000Y-77530000D02*
X100390000Y-77530000D01*
X97730000Y-72390000D02*
X97730000Y-77530000D01*
X97730000Y-72390000D02*
X100390000Y-72390000D01*
X104140000Y-69790000D02*
X105470000Y-69790000D01*
X105470000Y-69790000D02*
X105470000Y-71120000D01*
X105470000Y-72390000D02*
X105470000Y-77530000D01*
X102810000Y-77530000D02*
X105470000Y-77530000D01*
X102810000Y-72390000D02*
X102810000Y-77530000D01*
X102810000Y-72390000D02*
X105470000Y-72390000D01*
X109220000Y-69790000D02*
X110550000Y-69790000D01*
X110550000Y-69790000D02*
X110550000Y-71120000D01*
X110550000Y-72390000D02*
X110550000Y-77530000D01*
X107890000Y-77530000D02*
X110550000Y-77530000D01*
X107890000Y-72390000D02*
X107890000Y-77530000D01*
X107890000Y-72390000D02*
X110550000Y-72390000D01*
X114300000Y-69790000D02*
X115630000Y-69790000D01*
X115630000Y-69790000D02*
X115630000Y-71120000D01*
X115630000Y-72390000D02*
X115630000Y-77530000D01*
X112970000Y-77530000D02*
X115630000Y-77530000D01*
X112970000Y-72390000D02*
X112970000Y-77530000D01*
X112970000Y-72390000D02*
X115630000Y-72390000D01*
X102930000Y-88900000D02*
X102930000Y-90230000D01*
X102930000Y-90230000D02*
X101600000Y-90230000D01*
X100330000Y-90230000D02*
X97730000Y-90230000D01*
X97730000Y-87570000D02*
X97730000Y-90230000D01*
X100330000Y-87570000D02*
X97730000Y-87570000D01*
X100330000Y-87570000D02*
X100330000Y-90230000D01*
X102930000Y-99060000D02*
X102930000Y-100390000D01*
X102930000Y-100390000D02*
X101600000Y-100390000D01*
X100330000Y-100390000D02*
X97730000Y-100390000D01*
X97730000Y-97730000D02*
X97730000Y-100390000D01*
X100330000Y-97730000D02*
X97730000Y-97730000D01*
X100330000Y-97730000D02*
X100330000Y-100390000D01*
X102930000Y-104140000D02*
X102930000Y-105470000D01*
X102930000Y-105470000D02*
X101600000Y-105470000D01*
X100330000Y-105470000D02*
X97730000Y-105470000D01*
X97730000Y-102810000D02*
X97730000Y-105470000D01*
X100330000Y-102810000D02*
X97730000Y-102810000D01*
X100330000Y-102810000D02*
X100330000Y-105470000D01*
X102930000Y-93980000D02*
X102930000Y-95310000D01*
X102930000Y-95310000D02*
X101600000Y-95310000D01*
X100330000Y-95310000D02*
X97730000Y-95310000D01*
X97730000Y-92650000D02*
X97730000Y-95310000D01*
X100330000Y-92650000D02*
X97730000Y-92650000D01*
X100330000Y-92650000D02*
X100330000Y-95310000D01*
X99060000Y-119440000D02*
X97730000Y-119440000D01*
X97730000Y-119440000D02*
X97730000Y-118110000D01*
X97730000Y-116840000D02*
X97730000Y-114240000D01*
X100390000Y-114240000D02*
X97730000Y-114240000D01*
X100390000Y-116840000D02*
X100390000Y-114240000D01*
X100390000Y-116840000D02*
X97730000Y-116840000D01*
X106740000Y-116840000D02*
X104080000Y-116840000D01*
X106740000Y-116840000D02*
X106740000Y-114240000D01*
X106740000Y-114240000D02*
X104080000Y-114240000D01*
X104080000Y-116840000D02*
X104080000Y-114240000D01*
X104080000Y-119440000D02*
X104080000Y-118110000D01*
X105410000Y-119440000D02*
X104080000Y-119440000D01*
D13*
X145433571Y-110714523D02*
X145010238Y-110109761D01*
X144707857Y-110714523D02*
X144707857Y-109444523D01*
X145191666Y-109444523D01*
X145312619Y-109505000D01*
X145373095Y-109565476D01*
X145433571Y-109686428D01*
X145433571Y-109867857D01*
X145373095Y-109988809D01*
X145312619Y-110049285D01*
X145191666Y-110109761D01*
X144707857Y-110109761D01*
X146461666Y-110654047D02*
X146340714Y-110714523D01*
X146098809Y-110714523D01*
X145977857Y-110654047D01*
X145917380Y-110533095D01*
X145917380Y-110049285D01*
X145977857Y-109928333D01*
X146098809Y-109867857D01*
X146340714Y-109867857D01*
X146461666Y-109928333D01*
X146522142Y-110049285D01*
X146522142Y-110170238D01*
X145917380Y-110291190D01*
X147247857Y-110714523D02*
X147126904Y-110654047D01*
X147066428Y-110533095D01*
X147066428Y-109444523D01*
X148275952Y-110714523D02*
X148275952Y-110049285D01*
X148215476Y-109928333D01*
X148094523Y-109867857D01*
X147852619Y-109867857D01*
X147731666Y-109928333D01*
X148275952Y-110654047D02*
X148155000Y-110714523D01*
X147852619Y-110714523D01*
X147731666Y-110654047D01*
X147671190Y-110533095D01*
X147671190Y-110412142D01*
X147731666Y-110291190D01*
X147852619Y-110230714D01*
X148155000Y-110230714D01*
X148275952Y-110170238D01*
X148759761Y-109867857D02*
X149062142Y-110714523D01*
X149364523Y-109867857D02*
X149062142Y-110714523D01*
X148941190Y-111016904D01*
X148880714Y-111077380D01*
X148759761Y-111137857D01*
X149848333Y-110230714D02*
X150815952Y-110230714D01*
X151844047Y-110049285D02*
X151420714Y-110049285D01*
X151420714Y-110714523D02*
X151420714Y-109444523D01*
X152025476Y-109444523D01*
X153053571Y-110714523D02*
X153053571Y-110049285D01*
X152993095Y-109928333D01*
X152872142Y-109867857D01*
X152630238Y-109867857D01*
X152509285Y-109928333D01*
X153053571Y-110654047D02*
X152932619Y-110714523D01*
X152630238Y-110714523D01*
X152509285Y-110654047D01*
X152448809Y-110533095D01*
X152448809Y-110412142D01*
X152509285Y-110291190D01*
X152630238Y-110230714D01*
X152932619Y-110230714D01*
X153053571Y-110170238D01*
X153658333Y-109867857D02*
X153658333Y-110714523D01*
X153658333Y-109988809D02*
X153718809Y-109928333D01*
X153839761Y-109867857D01*
X154021190Y-109867857D01*
X154142142Y-109928333D01*
X154202619Y-110049285D01*
X154202619Y-110714523D01*
X155472619Y-110714523D02*
X154746904Y-110714523D01*
X155109761Y-110714523D02*
X155109761Y-109444523D01*
X154988809Y-109625952D01*
X154867857Y-109746904D01*
X154746904Y-109807380D01*
X143044761Y-92014523D02*
X142621428Y-91409761D01*
X142319047Y-92014523D02*
X142319047Y-90744523D01*
X142802857Y-90744523D01*
X142923809Y-90805000D01*
X142984285Y-90865476D01*
X143044761Y-90986428D01*
X143044761Y-91167857D01*
X142984285Y-91288809D01*
X142923809Y-91349285D01*
X142802857Y-91409761D01*
X142319047Y-91409761D01*
X144072857Y-91954047D02*
X143951904Y-92014523D01*
X143710000Y-92014523D01*
X143589047Y-91954047D01*
X143528571Y-91833095D01*
X143528571Y-91349285D01*
X143589047Y-91228333D01*
X143710000Y-91167857D01*
X143951904Y-91167857D01*
X144072857Y-91228333D01*
X144133333Y-91349285D01*
X144133333Y-91470238D01*
X143528571Y-91591190D01*
X144859047Y-92014523D02*
X144738095Y-91954047D01*
X144677619Y-91833095D01*
X144677619Y-90744523D01*
X145887142Y-92014523D02*
X145887142Y-91349285D01*
X145826666Y-91228333D01*
X145705714Y-91167857D01*
X145463809Y-91167857D01*
X145342857Y-91228333D01*
X145887142Y-91954047D02*
X145766190Y-92014523D01*
X145463809Y-92014523D01*
X145342857Y-91954047D01*
X145282380Y-91833095D01*
X145282380Y-91712142D01*
X145342857Y-91591190D01*
X145463809Y-91530714D01*
X145766190Y-91530714D01*
X145887142Y-91470238D01*
X146370952Y-91167857D02*
X146673333Y-92014523D01*
X146975714Y-91167857D02*
X146673333Y-92014523D01*
X146552380Y-92316904D01*
X146491904Y-92377380D01*
X146370952Y-92437857D01*
X147459523Y-91530714D02*
X148427142Y-91530714D01*
X148971428Y-91954047D02*
X149152857Y-92014523D01*
X149455238Y-92014523D01*
X149576190Y-91954047D01*
X149636666Y-91893571D01*
X149697142Y-91772619D01*
X149697142Y-91651666D01*
X149636666Y-91530714D01*
X149576190Y-91470238D01*
X149455238Y-91409761D01*
X149213333Y-91349285D01*
X149092380Y-91288809D01*
X149031904Y-91228333D01*
X148971428Y-91107380D01*
X148971428Y-90986428D01*
X149031904Y-90865476D01*
X149092380Y-90805000D01*
X149213333Y-90744523D01*
X149515714Y-90744523D01*
X149697142Y-90805000D01*
X150422857Y-92014523D02*
X150301904Y-91954047D01*
X150241428Y-91893571D01*
X150180952Y-91772619D01*
X150180952Y-91409761D01*
X150241428Y-91288809D01*
X150301904Y-91228333D01*
X150422857Y-91167857D01*
X150604285Y-91167857D01*
X150725238Y-91228333D01*
X150785714Y-91288809D01*
X150846190Y-91409761D01*
X150846190Y-91772619D01*
X150785714Y-91893571D01*
X150725238Y-91954047D01*
X150604285Y-92014523D01*
X150422857Y-92014523D01*
X151571904Y-92014523D02*
X151450952Y-91954047D01*
X151390476Y-91833095D01*
X151390476Y-90744523D01*
X152539523Y-91954047D02*
X152418571Y-92014523D01*
X152176666Y-92014523D01*
X152055714Y-91954047D01*
X151995238Y-91833095D01*
X151995238Y-91349285D01*
X152055714Y-91228333D01*
X152176666Y-91167857D01*
X152418571Y-91167857D01*
X152539523Y-91228333D01*
X152600000Y-91349285D01*
X152600000Y-91470238D01*
X151995238Y-91591190D01*
X153144285Y-91167857D02*
X153144285Y-92014523D01*
X153144285Y-91288809D02*
X153204761Y-91228333D01*
X153325714Y-91167857D01*
X153507142Y-91167857D01*
X153628095Y-91228333D01*
X153688571Y-91349285D01*
X153688571Y-92014523D01*
X154474761Y-92014523D02*
X154353809Y-91954047D01*
X154293333Y-91893571D01*
X154232857Y-91772619D01*
X154232857Y-91409761D01*
X154293333Y-91288809D01*
X154353809Y-91228333D01*
X154474761Y-91167857D01*
X154656190Y-91167857D01*
X154777142Y-91228333D01*
X154837619Y-91288809D01*
X154898095Y-91409761D01*
X154898095Y-91772619D01*
X154837619Y-91893571D01*
X154777142Y-91954047D01*
X154656190Y-92014523D01*
X154474761Y-92014523D01*
X155442380Y-92014523D02*
X155442380Y-91167857D01*
X155442380Y-90744523D02*
X155381904Y-90805000D01*
X155442380Y-90865476D01*
X155502857Y-90805000D01*
X155442380Y-90744523D01*
X155442380Y-90865476D01*
X156591428Y-92014523D02*
X156591428Y-90744523D01*
X156591428Y-91954047D02*
X156470476Y-92014523D01*
X156228571Y-92014523D01*
X156107619Y-91954047D01*
X156047142Y-91893571D01*
X155986666Y-91772619D01*
X155986666Y-91409761D01*
X156047142Y-91288809D01*
X156107619Y-91228333D01*
X156228571Y-91167857D01*
X156470476Y-91167857D01*
X156591428Y-91228333D01*
X157861428Y-92014523D02*
X157135714Y-92014523D01*
X157498571Y-92014523D02*
X157498571Y-90744523D01*
X157377619Y-90925952D01*
X157256666Y-91046904D01*
X157135714Y-91107380D01*
D10*
X104910476Y-108672380D02*
X105148571Y-109672380D01*
X105339047Y-108958095D01*
X105529523Y-109672380D01*
X105767619Y-108672380D01*
X106577142Y-109672380D02*
X106577142Y-109148571D01*
X106529523Y-109053333D01*
X106434285Y-109005714D01*
X106243809Y-109005714D01*
X106148571Y-109053333D01*
X106577142Y-109624761D02*
X106481904Y-109672380D01*
X106243809Y-109672380D01*
X106148571Y-109624761D01*
X106100952Y-109529523D01*
X106100952Y-109434285D01*
X106148571Y-109339047D01*
X106243809Y-109291428D01*
X106481904Y-109291428D01*
X106577142Y-109243809D01*
X106910476Y-109005714D02*
X107291428Y-109005714D01*
X107053333Y-108672380D02*
X107053333Y-109529523D01*
X107100952Y-109624761D01*
X107196190Y-109672380D01*
X107291428Y-109672380D01*
X108005714Y-109624761D02*
X107910476Y-109672380D01*
X107720000Y-109672380D01*
X107624761Y-109624761D01*
X107577142Y-109529523D01*
X107577142Y-109148571D01*
X107624761Y-109053333D01*
X107720000Y-109005714D01*
X107910476Y-109005714D01*
X108005714Y-109053333D01*
X108053333Y-109148571D01*
X108053333Y-109243809D01*
X107577142Y-109339047D01*
X108481904Y-109672380D02*
X108481904Y-109005714D01*
X108481904Y-109196190D02*
X108529523Y-109100952D01*
X108577142Y-109053333D01*
X108672380Y-109005714D01*
X108767619Y-109005714D01*
X109053333Y-109624761D02*
X109196190Y-109672380D01*
X109434285Y-109672380D01*
X109529523Y-109624761D01*
X109577142Y-109577142D01*
X109624761Y-109481904D01*
X109624761Y-109386666D01*
X109577142Y-109291428D01*
X109529523Y-109243809D01*
X109434285Y-109196190D01*
X109243809Y-109148571D01*
X109148571Y-109100952D01*
X109100952Y-109053333D01*
X109053333Y-108958095D01*
X109053333Y-108862857D01*
X109100952Y-108767619D01*
X109148571Y-108720000D01*
X109243809Y-108672380D01*
X109481904Y-108672380D01*
X109624761Y-108720000D01*
X109958095Y-109005714D02*
X110148571Y-109672380D01*
X110339047Y-109196190D01*
X110529523Y-109672380D01*
X110720000Y-109005714D01*
X111100952Y-109672380D02*
X111100952Y-109005714D01*
X111100952Y-108672380D02*
X111053333Y-108720000D01*
X111100952Y-108767619D01*
X111148571Y-108720000D01*
X111100952Y-108672380D01*
X111100952Y-108767619D01*
X111434285Y-109005714D02*
X111815238Y-109005714D01*
X111577142Y-108672380D02*
X111577142Y-109529523D01*
X111624761Y-109624761D01*
X111720000Y-109672380D01*
X111815238Y-109672380D01*
X112577142Y-109624761D02*
X112481904Y-109672380D01*
X112291428Y-109672380D01*
X112196190Y-109624761D01*
X112148571Y-109577142D01*
X112100952Y-109481904D01*
X112100952Y-109196190D01*
X112148571Y-109100952D01*
X112196190Y-109053333D01*
X112291428Y-109005714D01*
X112481904Y-109005714D01*
X112577142Y-109053333D01*
X113005714Y-109672380D02*
X113005714Y-108672380D01*
X113434285Y-109672380D02*
X113434285Y-109148571D01*
X113386666Y-109053333D01*
X113291428Y-109005714D01*
X113148571Y-109005714D01*
X113053333Y-109053333D01*
X113005714Y-109100952D01*
X117244761Y-75993333D02*
X117292380Y-75850476D01*
X117292380Y-75612380D01*
X117244761Y-75517142D01*
X117197142Y-75469523D01*
X117101904Y-75421904D01*
X117006666Y-75421904D01*
X116911428Y-75469523D01*
X116863809Y-75517142D01*
X116816190Y-75612380D01*
X116768571Y-75802857D01*
X116720952Y-75898095D01*
X116673333Y-75945714D01*
X116578095Y-75993333D01*
X116482857Y-75993333D01*
X116387619Y-75945714D01*
X116340000Y-75898095D01*
X116292380Y-75802857D01*
X116292380Y-75564761D01*
X116340000Y-75421904D01*
X117244761Y-74612380D02*
X117292380Y-74707619D01*
X117292380Y-74898095D01*
X117244761Y-74993333D01*
X117149523Y-75040952D01*
X116768571Y-75040952D01*
X116673333Y-74993333D01*
X116625714Y-74898095D01*
X116625714Y-74707619D01*
X116673333Y-74612380D01*
X116768571Y-74564761D01*
X116863809Y-74564761D01*
X116959047Y-75040952D01*
X117292380Y-74136190D02*
X116625714Y-74136190D01*
X116816190Y-74136190D02*
X116720952Y-74088571D01*
X116673333Y-74040952D01*
X116625714Y-73945714D01*
X116625714Y-73850476D01*
X116625714Y-73612380D02*
X117292380Y-73374285D01*
X116625714Y-73136190D01*
X117292380Y-72612380D02*
X117244761Y-72707619D01*
X117197142Y-72755238D01*
X117101904Y-72802857D01*
X116816190Y-72802857D01*
X116720952Y-72755238D01*
X116673333Y-72707619D01*
X116625714Y-72612380D01*
X116625714Y-72469523D01*
X116673333Y-72374285D01*
X116720952Y-72326666D01*
X116816190Y-72279047D01*
X117101904Y-72279047D01*
X117197142Y-72326666D01*
X117244761Y-72374285D01*
X117292380Y-72469523D01*
X117292380Y-72612380D01*
X117292380Y-71326666D02*
X117292380Y-71898095D01*
X117292380Y-71612380D02*
X116292380Y-71612380D01*
X116435238Y-71707619D01*
X116530476Y-71802857D01*
X116578095Y-71898095D01*
D13*
X121424523Y-91664523D02*
X121001190Y-91059761D01*
X120698809Y-91664523D02*
X120698809Y-90394523D01*
X121182619Y-90394523D01*
X121303571Y-90455000D01*
X121364047Y-90515476D01*
X121424523Y-90636428D01*
X121424523Y-90817857D01*
X121364047Y-90938809D01*
X121303571Y-90999285D01*
X121182619Y-91059761D01*
X120698809Y-91059761D01*
X122452619Y-91604047D02*
X122331666Y-91664523D01*
X122089761Y-91664523D01*
X121968809Y-91604047D01*
X121908333Y-91483095D01*
X121908333Y-90999285D01*
X121968809Y-90878333D01*
X122089761Y-90817857D01*
X122331666Y-90817857D01*
X122452619Y-90878333D01*
X122513095Y-90999285D01*
X122513095Y-91120238D01*
X121908333Y-91241190D01*
X123238809Y-91664523D02*
X123117857Y-91604047D01*
X123057380Y-91483095D01*
X123057380Y-90394523D01*
X124266904Y-91664523D02*
X124266904Y-90999285D01*
X124206428Y-90878333D01*
X124085476Y-90817857D01*
X123843571Y-90817857D01*
X123722619Y-90878333D01*
X124266904Y-91604047D02*
X124145952Y-91664523D01*
X123843571Y-91664523D01*
X123722619Y-91604047D01*
X123662142Y-91483095D01*
X123662142Y-91362142D01*
X123722619Y-91241190D01*
X123843571Y-91180714D01*
X124145952Y-91180714D01*
X124266904Y-91120238D01*
X124750714Y-90817857D02*
X125053095Y-91664523D01*
X125355476Y-90817857D02*
X125053095Y-91664523D01*
X124932142Y-91966904D01*
X124871666Y-92027380D01*
X124750714Y-92087857D01*
X125839285Y-91180714D02*
X126806904Y-91180714D01*
X127411666Y-91664523D02*
X127411666Y-90394523D01*
X127835000Y-91301666D01*
X128258333Y-90394523D01*
X128258333Y-91664523D01*
X128863095Y-91664523D02*
X128863095Y-90817857D01*
X128863095Y-90394523D02*
X128802619Y-90455000D01*
X128863095Y-90515476D01*
X128923571Y-90455000D01*
X128863095Y-90394523D01*
X128863095Y-90515476D01*
X129407380Y-91604047D02*
X129528333Y-91664523D01*
X129770238Y-91664523D01*
X129891190Y-91604047D01*
X129951666Y-91483095D01*
X129951666Y-91422619D01*
X129891190Y-91301666D01*
X129770238Y-91241190D01*
X129588809Y-91241190D01*
X129467857Y-91180714D01*
X129407380Y-91059761D01*
X129407380Y-90999285D01*
X129467857Y-90878333D01*
X129588809Y-90817857D01*
X129770238Y-90817857D01*
X129891190Y-90878333D01*
X130314523Y-90817857D02*
X130798333Y-90817857D01*
X130495952Y-90394523D02*
X130495952Y-91483095D01*
X130556428Y-91604047D01*
X130677380Y-91664523D01*
X130798333Y-91664523D01*
X131705476Y-91604047D02*
X131584523Y-91664523D01*
X131342619Y-91664523D01*
X131221666Y-91604047D01*
X131161190Y-91483095D01*
X131161190Y-90999285D01*
X131221666Y-90878333D01*
X131342619Y-90817857D01*
X131584523Y-90817857D01*
X131705476Y-90878333D01*
X131765952Y-90999285D01*
X131765952Y-91120238D01*
X131161190Y-91241190D01*
X132310238Y-91664523D02*
X132310238Y-90817857D01*
X132310238Y-91059761D02*
X132370714Y-90938809D01*
X132431190Y-90878333D01*
X132552142Y-90817857D01*
X132673095Y-90817857D01*
X133761666Y-91664523D02*
X133035952Y-91664523D01*
X133398809Y-91664523D02*
X133398809Y-90394523D01*
X133277857Y-90575952D01*
X133156904Y-90696904D01*
X133035952Y-90757380D01*
X121182619Y-110714523D02*
X120759285Y-110109761D01*
X120456904Y-110714523D02*
X120456904Y-109444523D01*
X120940714Y-109444523D01*
X121061666Y-109505000D01*
X121122142Y-109565476D01*
X121182619Y-109686428D01*
X121182619Y-109867857D01*
X121122142Y-109988809D01*
X121061666Y-110049285D01*
X120940714Y-110109761D01*
X120456904Y-110109761D01*
X122210714Y-110654047D02*
X122089761Y-110714523D01*
X121847857Y-110714523D01*
X121726904Y-110654047D01*
X121666428Y-110533095D01*
X121666428Y-110049285D01*
X121726904Y-109928333D01*
X121847857Y-109867857D01*
X122089761Y-109867857D01*
X122210714Y-109928333D01*
X122271190Y-110049285D01*
X122271190Y-110170238D01*
X121666428Y-110291190D01*
X122996904Y-110714523D02*
X122875952Y-110654047D01*
X122815476Y-110533095D01*
X122815476Y-109444523D01*
X124025000Y-110714523D02*
X124025000Y-110049285D01*
X123964523Y-109928333D01*
X123843571Y-109867857D01*
X123601666Y-109867857D01*
X123480714Y-109928333D01*
X124025000Y-110654047D02*
X123904047Y-110714523D01*
X123601666Y-110714523D01*
X123480714Y-110654047D01*
X123420238Y-110533095D01*
X123420238Y-110412142D01*
X123480714Y-110291190D01*
X123601666Y-110230714D01*
X123904047Y-110230714D01*
X124025000Y-110170238D01*
X124508809Y-109867857D02*
X124811190Y-110714523D01*
X125113571Y-109867857D02*
X124811190Y-110714523D01*
X124690238Y-111016904D01*
X124629761Y-111077380D01*
X124508809Y-111137857D01*
X125597380Y-110230714D02*
X126565000Y-110230714D01*
X127169761Y-110714523D02*
X127169761Y-109444523D01*
X127169761Y-110049285D02*
X127895476Y-110049285D01*
X127895476Y-110714523D02*
X127895476Y-109444523D01*
X128984047Y-110654047D02*
X128863095Y-110714523D01*
X128621190Y-110714523D01*
X128500238Y-110654047D01*
X128439761Y-110533095D01*
X128439761Y-110049285D01*
X128500238Y-109928333D01*
X128621190Y-109867857D01*
X128863095Y-109867857D01*
X128984047Y-109928333D01*
X129044523Y-110049285D01*
X129044523Y-110170238D01*
X128439761Y-110291190D01*
X130133095Y-110714523D02*
X130133095Y-110049285D01*
X130072619Y-109928333D01*
X129951666Y-109867857D01*
X129709761Y-109867857D01*
X129588809Y-109928333D01*
X130133095Y-110654047D02*
X130012142Y-110714523D01*
X129709761Y-110714523D01*
X129588809Y-110654047D01*
X129528333Y-110533095D01*
X129528333Y-110412142D01*
X129588809Y-110291190D01*
X129709761Y-110230714D01*
X130012142Y-110230714D01*
X130133095Y-110170238D01*
X130556428Y-109867857D02*
X131040238Y-109867857D01*
X130737857Y-109444523D02*
X130737857Y-110533095D01*
X130798333Y-110654047D01*
X130919285Y-110714523D01*
X131040238Y-110714523D01*
X131947380Y-110654047D02*
X131826428Y-110714523D01*
X131584523Y-110714523D01*
X131463571Y-110654047D01*
X131403095Y-110533095D01*
X131403095Y-110049285D01*
X131463571Y-109928333D01*
X131584523Y-109867857D01*
X131826428Y-109867857D01*
X131947380Y-109928333D01*
X132007857Y-110049285D01*
X132007857Y-110170238D01*
X131403095Y-110291190D01*
X132552142Y-110714523D02*
X132552142Y-109867857D01*
X132552142Y-110109761D02*
X132612619Y-109988809D01*
X132673095Y-109928333D01*
X132794047Y-109867857D01*
X132915000Y-109867857D01*
X134003571Y-110714523D02*
X133277857Y-110714523D01*
X133640714Y-110714523D02*
X133640714Y-109444523D01*
X133519761Y-109625952D01*
X133398809Y-109746904D01*
X133277857Y-109807380D01*
D10*
X114117380Y-120808095D02*
X113117380Y-120808095D01*
X113593571Y-120808095D02*
X113593571Y-120236666D01*
X114117380Y-120236666D02*
X113117380Y-120236666D01*
X114069761Y-119379523D02*
X114117380Y-119474761D01*
X114117380Y-119665238D01*
X114069761Y-119760476D01*
X113974523Y-119808095D01*
X113593571Y-119808095D01*
X113498333Y-119760476D01*
X113450714Y-119665238D01*
X113450714Y-119474761D01*
X113498333Y-119379523D01*
X113593571Y-119331904D01*
X113688809Y-119331904D01*
X113784047Y-119808095D01*
X114117380Y-118474761D02*
X113593571Y-118474761D01*
X113498333Y-118522380D01*
X113450714Y-118617619D01*
X113450714Y-118808095D01*
X113498333Y-118903333D01*
X114069761Y-118474761D02*
X114117380Y-118570000D01*
X114117380Y-118808095D01*
X114069761Y-118903333D01*
X113974523Y-118950952D01*
X113879285Y-118950952D01*
X113784047Y-118903333D01*
X113736428Y-118808095D01*
X113736428Y-118570000D01*
X113688809Y-118474761D01*
X113450714Y-118141428D02*
X113450714Y-117760476D01*
X113117380Y-117998571D02*
X113974523Y-117998571D01*
X114069761Y-117950952D01*
X114117380Y-117855714D01*
X114117380Y-117760476D01*
X114069761Y-117046190D02*
X114117380Y-117141428D01*
X114117380Y-117331904D01*
X114069761Y-117427142D01*
X113974523Y-117474761D01*
X113593571Y-117474761D01*
X113498333Y-117427142D01*
X113450714Y-117331904D01*
X113450714Y-117141428D01*
X113498333Y-117046190D01*
X113593571Y-116998571D01*
X113688809Y-116998571D01*
X113784047Y-117474761D01*
X114117380Y-116570000D02*
X113450714Y-116570000D01*
X113641190Y-116570000D02*
X113545952Y-116522380D01*
X113498333Y-116474761D01*
X113450714Y-116379523D01*
X113450714Y-116284285D01*
X113117380Y-116093809D02*
X114117380Y-115760476D01*
X113117380Y-115427142D01*
X114117380Y-114950952D02*
X114069761Y-115046190D01*
X114022142Y-115093809D01*
X113926904Y-115141428D01*
X113641190Y-115141428D01*
X113545952Y-115093809D01*
X113498333Y-115046190D01*
X113450714Y-114950952D01*
X113450714Y-114808095D01*
X113498333Y-114712857D01*
X113545952Y-114665238D01*
X113641190Y-114617619D01*
X113926904Y-114617619D01*
X114022142Y-114665238D01*
X114069761Y-114712857D01*
X114117380Y-114808095D01*
X114117380Y-114950952D01*
X114117380Y-114046190D02*
X114069761Y-114141428D01*
X113974523Y-114189047D01*
X113117380Y-114189047D01*
X113450714Y-113808095D02*
X113450714Y-113427142D01*
X113117380Y-113665238D02*
X113974523Y-113665238D01*
X114069761Y-113617619D01*
X114117380Y-113522380D01*
X114117380Y-113427142D01*
X114212619Y-113331904D02*
X114212619Y-112570000D01*
X114117380Y-112331904D02*
X113117380Y-112331904D01*
X114117380Y-111855714D02*
X113117380Y-111855714D01*
X114117380Y-111284285D01*
X113117380Y-111284285D01*
X114117380Y-110284285D02*
X114117380Y-110855714D01*
X114117380Y-110570000D02*
X113117380Y-110570000D01*
X113260238Y-110665238D01*
X113355476Y-110760476D01*
X113403095Y-110855714D01*
X96972380Y-76874285D02*
X95972380Y-76874285D01*
X95972380Y-76636190D01*
X96020000Y-76493333D01*
X96115238Y-76398095D01*
X96210476Y-76350476D01*
X96400952Y-76302857D01*
X96543809Y-76302857D01*
X96734285Y-76350476D01*
X96829523Y-76398095D01*
X96924761Y-76493333D01*
X96972380Y-76636190D01*
X96972380Y-76874285D01*
X96972380Y-75874285D02*
X95972380Y-75874285D01*
X96448571Y-75874285D02*
X96448571Y-75302857D01*
X96972380Y-75302857D02*
X95972380Y-75302857D01*
X95972380Y-74969523D02*
X95972380Y-74398095D01*
X96972380Y-74683809D02*
X95972380Y-74683809D01*
X96972380Y-73540952D02*
X96972380Y-74112380D01*
X96972380Y-73826666D02*
X95972380Y-73826666D01*
X96115238Y-73921904D01*
X96210476Y-74017142D01*
X96258095Y-74112380D01*
X96972380Y-72588571D02*
X96972380Y-73160000D01*
X96972380Y-72874285D02*
X95972380Y-72874285D01*
X96115238Y-72969523D01*
X96210476Y-73064761D01*
X96258095Y-73160000D01*
X96591428Y-72160000D02*
X96591428Y-71398095D01*
X96305714Y-70493333D02*
X96972380Y-70493333D01*
X95924761Y-70731428D02*
X96639047Y-70969523D01*
X96639047Y-70350476D01*
X102052380Y-76874285D02*
X101052380Y-76874285D01*
X101052380Y-76636190D01*
X101100000Y-76493333D01*
X101195238Y-76398095D01*
X101290476Y-76350476D01*
X101480952Y-76302857D01*
X101623809Y-76302857D01*
X101814285Y-76350476D01*
X101909523Y-76398095D01*
X102004761Y-76493333D01*
X102052380Y-76636190D01*
X102052380Y-76874285D01*
X102052380Y-75874285D02*
X101052380Y-75874285D01*
X101528571Y-75874285D02*
X101528571Y-75302857D01*
X102052380Y-75302857D02*
X101052380Y-75302857D01*
X101052380Y-74969523D02*
X101052380Y-74398095D01*
X102052380Y-74683809D02*
X101052380Y-74683809D01*
X102052380Y-73540952D02*
X102052380Y-74112380D01*
X102052380Y-73826666D02*
X101052380Y-73826666D01*
X101195238Y-73921904D01*
X101290476Y-74017142D01*
X101338095Y-74112380D01*
X102052380Y-72588571D02*
X102052380Y-73160000D01*
X102052380Y-72874285D02*
X101052380Y-72874285D01*
X101195238Y-72969523D01*
X101290476Y-73064761D01*
X101338095Y-73160000D01*
X101671428Y-72160000D02*
X101671428Y-71398095D01*
X101052380Y-71017142D02*
X101052380Y-70398095D01*
X101433333Y-70731428D01*
X101433333Y-70588571D01*
X101480952Y-70493333D01*
X101528571Y-70445714D01*
X101623809Y-70398095D01*
X101861904Y-70398095D01*
X101957142Y-70445714D01*
X102004761Y-70493333D01*
X102052380Y-70588571D01*
X102052380Y-70874285D01*
X102004761Y-70969523D01*
X101957142Y-71017142D01*
X107132380Y-76874285D02*
X106132380Y-76874285D01*
X106132380Y-76636190D01*
X106180000Y-76493333D01*
X106275238Y-76398095D01*
X106370476Y-76350476D01*
X106560952Y-76302857D01*
X106703809Y-76302857D01*
X106894285Y-76350476D01*
X106989523Y-76398095D01*
X107084761Y-76493333D01*
X107132380Y-76636190D01*
X107132380Y-76874285D01*
X107132380Y-75874285D02*
X106132380Y-75874285D01*
X106608571Y-75874285D02*
X106608571Y-75302857D01*
X107132380Y-75302857D02*
X106132380Y-75302857D01*
X106132380Y-74969523D02*
X106132380Y-74398095D01*
X107132380Y-74683809D02*
X106132380Y-74683809D01*
X107132380Y-73540952D02*
X107132380Y-74112380D01*
X107132380Y-73826666D02*
X106132380Y-73826666D01*
X106275238Y-73921904D01*
X106370476Y-74017142D01*
X106418095Y-74112380D01*
X107132380Y-72588571D02*
X107132380Y-73160000D01*
X107132380Y-72874285D02*
X106132380Y-72874285D01*
X106275238Y-72969523D01*
X106370476Y-73064761D01*
X106418095Y-73160000D01*
X106751428Y-72160000D02*
X106751428Y-71398095D01*
X106227619Y-70969523D02*
X106180000Y-70921904D01*
X106132380Y-70826666D01*
X106132380Y-70588571D01*
X106180000Y-70493333D01*
X106227619Y-70445714D01*
X106322857Y-70398095D01*
X106418095Y-70398095D01*
X106560952Y-70445714D01*
X107132380Y-71017142D01*
X107132380Y-70398095D01*
X112212380Y-76874285D02*
X111212380Y-76874285D01*
X111212380Y-76636190D01*
X111260000Y-76493333D01*
X111355238Y-76398095D01*
X111450476Y-76350476D01*
X111640952Y-76302857D01*
X111783809Y-76302857D01*
X111974285Y-76350476D01*
X112069523Y-76398095D01*
X112164761Y-76493333D01*
X112212380Y-76636190D01*
X112212380Y-76874285D01*
X112212380Y-75874285D02*
X111212380Y-75874285D01*
X111688571Y-75874285D02*
X111688571Y-75302857D01*
X112212380Y-75302857D02*
X111212380Y-75302857D01*
X111212380Y-74969523D02*
X111212380Y-74398095D01*
X112212380Y-74683809D02*
X111212380Y-74683809D01*
X112212380Y-73540952D02*
X112212380Y-74112380D01*
X112212380Y-73826666D02*
X111212380Y-73826666D01*
X111355238Y-73921904D01*
X111450476Y-74017142D01*
X111498095Y-74112380D01*
X112212380Y-72588571D02*
X112212380Y-73160000D01*
X112212380Y-72874285D02*
X111212380Y-72874285D01*
X111355238Y-72969523D01*
X111450476Y-73064761D01*
X111498095Y-73160000D01*
X111831428Y-72160000D02*
X111831428Y-71398095D01*
X112212380Y-70398095D02*
X112212380Y-70969523D01*
X112212380Y-70683809D02*
X111212380Y-70683809D01*
X111355238Y-70779047D01*
X111450476Y-70874285D01*
X111498095Y-70969523D01*
X104926190Y-89304761D02*
X105069047Y-89352380D01*
X105307142Y-89352380D01*
X105402380Y-89304761D01*
X105450000Y-89257142D01*
X105497619Y-89161904D01*
X105497619Y-89066666D01*
X105450000Y-88971428D01*
X105402380Y-88923809D01*
X105307142Y-88876190D01*
X105116666Y-88828571D01*
X105021428Y-88780952D01*
X104973809Y-88733333D01*
X104926190Y-88638095D01*
X104926190Y-88542857D01*
X104973809Y-88447619D01*
X105021428Y-88400000D01*
X105116666Y-88352380D01*
X105354761Y-88352380D01*
X105497619Y-88400000D01*
X106069047Y-89352380D02*
X105973809Y-89304761D01*
X105926190Y-89257142D01*
X105878571Y-89161904D01*
X105878571Y-88876190D01*
X105926190Y-88780952D01*
X105973809Y-88733333D01*
X106069047Y-88685714D01*
X106211904Y-88685714D01*
X106307142Y-88733333D01*
X106354761Y-88780952D01*
X106402380Y-88876190D01*
X106402380Y-89161904D01*
X106354761Y-89257142D01*
X106307142Y-89304761D01*
X106211904Y-89352380D01*
X106069047Y-89352380D01*
X106973809Y-89352380D02*
X106878571Y-89304761D01*
X106830952Y-89209523D01*
X106830952Y-88352380D01*
X107735714Y-89304761D02*
X107640476Y-89352380D01*
X107450000Y-89352380D01*
X107354761Y-89304761D01*
X107307142Y-89209523D01*
X107307142Y-88828571D01*
X107354761Y-88733333D01*
X107450000Y-88685714D01*
X107640476Y-88685714D01*
X107735714Y-88733333D01*
X107783333Y-88828571D01*
X107783333Y-88923809D01*
X107307142Y-89019047D01*
X108211904Y-88685714D02*
X108211904Y-89352380D01*
X108211904Y-88780952D02*
X108259523Y-88733333D01*
X108354761Y-88685714D01*
X108497619Y-88685714D01*
X108592857Y-88733333D01*
X108640476Y-88828571D01*
X108640476Y-89352380D01*
X109259523Y-89352380D02*
X109164285Y-89304761D01*
X109116666Y-89257142D01*
X109069047Y-89161904D01*
X109069047Y-88876190D01*
X109116666Y-88780952D01*
X109164285Y-88733333D01*
X109259523Y-88685714D01*
X109402380Y-88685714D01*
X109497619Y-88733333D01*
X109545238Y-88780952D01*
X109592857Y-88876190D01*
X109592857Y-89161904D01*
X109545238Y-89257142D01*
X109497619Y-89304761D01*
X109402380Y-89352380D01*
X109259523Y-89352380D01*
X110021428Y-89352380D02*
X110021428Y-88685714D01*
X110021428Y-88352380D02*
X109973809Y-88400000D01*
X110021428Y-88447619D01*
X110069047Y-88400000D01*
X110021428Y-88352380D01*
X110021428Y-88447619D01*
X110926190Y-89352380D02*
X110926190Y-88352380D01*
X110926190Y-89304761D02*
X110830952Y-89352380D01*
X110640476Y-89352380D01*
X110545238Y-89304761D01*
X110497619Y-89257142D01*
X110450000Y-89161904D01*
X110450000Y-88876190D01*
X110497619Y-88780952D01*
X110545238Y-88733333D01*
X110640476Y-88685714D01*
X110830952Y-88685714D01*
X110926190Y-88733333D01*
X104680000Y-99512380D02*
X104680000Y-98512380D01*
X105013333Y-99226666D01*
X105346666Y-98512380D01*
X105346666Y-99512380D01*
X105822857Y-99512380D02*
X105822857Y-98845714D01*
X105822857Y-98512380D02*
X105775238Y-98560000D01*
X105822857Y-98607619D01*
X105870476Y-98560000D01*
X105822857Y-98512380D01*
X105822857Y-98607619D01*
X106251428Y-99464761D02*
X106346666Y-99512380D01*
X106537142Y-99512380D01*
X106632380Y-99464761D01*
X106680000Y-99369523D01*
X106680000Y-99321904D01*
X106632380Y-99226666D01*
X106537142Y-99179047D01*
X106394285Y-99179047D01*
X106299047Y-99131428D01*
X106251428Y-99036190D01*
X106251428Y-98988571D01*
X106299047Y-98893333D01*
X106394285Y-98845714D01*
X106537142Y-98845714D01*
X106632380Y-98893333D01*
X106965714Y-98845714D02*
X107346666Y-98845714D01*
X107108571Y-98512380D02*
X107108571Y-99369523D01*
X107156190Y-99464761D01*
X107251428Y-99512380D01*
X107346666Y-99512380D01*
X108060952Y-99464761D02*
X107965714Y-99512380D01*
X107775238Y-99512380D01*
X107680000Y-99464761D01*
X107632380Y-99369523D01*
X107632380Y-98988571D01*
X107680000Y-98893333D01*
X107775238Y-98845714D01*
X107965714Y-98845714D01*
X108060952Y-98893333D01*
X108108571Y-98988571D01*
X108108571Y-99083809D01*
X107632380Y-99179047D01*
X108537142Y-99512380D02*
X108537142Y-98845714D01*
X108537142Y-99036190D02*
X108584761Y-98940952D01*
X108632380Y-98893333D01*
X108727619Y-98845714D01*
X108822857Y-98845714D01*
X104489523Y-104592380D02*
X104489523Y-103592380D01*
X104489523Y-104068571D02*
X105060952Y-104068571D01*
X105060952Y-104592380D02*
X105060952Y-103592380D01*
X105918095Y-104544761D02*
X105822857Y-104592380D01*
X105632380Y-104592380D01*
X105537142Y-104544761D01*
X105489523Y-104449523D01*
X105489523Y-104068571D01*
X105537142Y-103973333D01*
X105632380Y-103925714D01*
X105822857Y-103925714D01*
X105918095Y-103973333D01*
X105965714Y-104068571D01*
X105965714Y-104163809D01*
X105489523Y-104259047D01*
X106822857Y-104592380D02*
X106822857Y-104068571D01*
X106775238Y-103973333D01*
X106680000Y-103925714D01*
X106489523Y-103925714D01*
X106394285Y-103973333D01*
X106822857Y-104544761D02*
X106727619Y-104592380D01*
X106489523Y-104592380D01*
X106394285Y-104544761D01*
X106346666Y-104449523D01*
X106346666Y-104354285D01*
X106394285Y-104259047D01*
X106489523Y-104211428D01*
X106727619Y-104211428D01*
X106822857Y-104163809D01*
X107156190Y-103925714D02*
X107537142Y-103925714D01*
X107299047Y-103592380D02*
X107299047Y-104449523D01*
X107346666Y-104544761D01*
X107441904Y-104592380D01*
X107537142Y-104592380D01*
X108251428Y-104544761D02*
X108156190Y-104592380D01*
X107965714Y-104592380D01*
X107870476Y-104544761D01*
X107822857Y-104449523D01*
X107822857Y-104068571D01*
X107870476Y-103973333D01*
X107965714Y-103925714D01*
X108156190Y-103925714D01*
X108251428Y-103973333D01*
X108299047Y-104068571D01*
X108299047Y-104163809D01*
X107822857Y-104259047D01*
X108727619Y-104592380D02*
X108727619Y-103925714D01*
X108727619Y-104116190D02*
X108775238Y-104020952D01*
X108822857Y-103973333D01*
X108918095Y-103925714D01*
X109013333Y-103925714D01*
X104648095Y-93908571D02*
X104314761Y-93908571D01*
X104314761Y-94432380D02*
X104314761Y-93432380D01*
X104790952Y-93432380D01*
X105600476Y-94432380D02*
X105600476Y-93908571D01*
X105552857Y-93813333D01*
X105457619Y-93765714D01*
X105267142Y-93765714D01*
X105171904Y-93813333D01*
X105600476Y-94384761D02*
X105505238Y-94432380D01*
X105267142Y-94432380D01*
X105171904Y-94384761D01*
X105124285Y-94289523D01*
X105124285Y-94194285D01*
X105171904Y-94099047D01*
X105267142Y-94051428D01*
X105505238Y-94051428D01*
X105600476Y-94003809D01*
X106076666Y-93765714D02*
X106076666Y-94432380D01*
X106076666Y-93860952D02*
X106124285Y-93813333D01*
X106219523Y-93765714D01*
X106362380Y-93765714D01*
X106457619Y-93813333D01*
X106505238Y-93908571D01*
X106505238Y-94432380D01*
X96250476Y-120197619D02*
X96298095Y-120150000D01*
X96393333Y-120102380D01*
X96631428Y-120102380D01*
X96726666Y-120150000D01*
X96774285Y-120197619D01*
X96821904Y-120292857D01*
X96821904Y-120388095D01*
X96774285Y-120530952D01*
X96202857Y-121102380D01*
X96821904Y-121102380D01*
X97679047Y-120435714D02*
X97679047Y-121102380D01*
X97440952Y-120054761D02*
X97202857Y-120769047D01*
X97821904Y-120769047D01*
X98060000Y-120102380D02*
X98393333Y-121102380D01*
X98726666Y-120102380D01*
X98821904Y-121197619D02*
X99583809Y-121197619D01*
X99821904Y-121102380D02*
X99821904Y-120102380D01*
X100298095Y-121102380D02*
X100298095Y-120102380D01*
X100869523Y-121102380D01*
X100869523Y-120102380D01*
X101869523Y-121102380D02*
X101298095Y-121102380D01*
X101583809Y-121102380D02*
X101583809Y-120102380D01*
X101488571Y-120245238D01*
X101393333Y-120340476D01*
X101298095Y-120388095D01*
X104441904Y-121102380D02*
X103870476Y-121102380D01*
X104156190Y-121102380D02*
X104156190Y-120102380D01*
X104060952Y-120245238D01*
X103965714Y-120340476D01*
X103870476Y-120388095D01*
X104822857Y-120197619D02*
X104870476Y-120150000D01*
X104965714Y-120102380D01*
X105203809Y-120102380D01*
X105299047Y-120150000D01*
X105346666Y-120197619D01*
X105394285Y-120292857D01*
X105394285Y-120388095D01*
X105346666Y-120530952D01*
X104775238Y-121102380D01*
X105394285Y-121102380D01*
X105680000Y-120102380D02*
X106013333Y-121102380D01*
X106346666Y-120102380D01*
X106441904Y-121197619D02*
X107203809Y-121197619D01*
X107441904Y-121102380D02*
X107441904Y-120102380D01*
X107918095Y-121102380D02*
X107918095Y-120102380D01*
X108489523Y-121102380D01*
X108489523Y-120102380D01*
X109489523Y-121102380D02*
X108918095Y-121102380D01*
X109203809Y-121102380D02*
X109203809Y-120102380D01*
X109108571Y-120245238D01*
X109013333Y-120340476D01*
X108918095Y-120388095D01*
M02*
