M48
; DRILL file {KiCad (5.1.2)-1} date 5/27/2020 11:11:44 AM
; FORMAT={-:-/ absolute / metric / decimal}
; #@! TF.CreationDate,2020-05-27T11:11:44-07:00
; #@! TF.GenerationSoftware,Kicad,Pcbnew,(5.1.2)-1
; #@! TF.FileFunction,Plated,1,2,PTH
FMAT,2
METRIC
T1C0.400
T2C0.800
T3C1.000
T4C1.300
%
G90
G05
T1
X100.326Y-92.706
X102.87Y-106.68
X106.68Y-110.49
T2
X115.38Y-118.82
X117.92Y-118.82
X120.46Y-118.82
X123.0Y-118.82
X124.52Y-70.56
X125.54Y-118.82
X127.06Y-70.56
X128.08Y-118.82
X129.6Y-70.56
X130.62Y-118.82
X132.14Y-70.56
X133.16Y-118.82
X134.68Y-70.56
X135.7Y-118.82
X137.22Y-70.56
X138.24Y-118.82
X139.76Y-70.56
X142.3Y-70.56
X142.3Y-118.82
X144.84Y-118.82
X147.38Y-70.56
X147.38Y-118.82
X149.92Y-70.56
X149.92Y-118.82
X152.46Y-70.56
X152.46Y-118.82
X155.0Y-70.56
X155.0Y-118.82
X157.54Y-70.56
X157.54Y-118.82
X160.08Y-70.56
X160.08Y-118.82
T3
X119.38Y-71.12
X119.38Y-73.66
X119.38Y-76.2
X99.06Y-71.12
X99.06Y-73.66
X99.06Y-76.2
X109.22Y-71.12
X109.22Y-73.66
X109.22Y-76.2
X111.76Y-115.57
X111.76Y-118.11
X99.06Y-99.06
X101.6Y-99.06
X99.06Y-88.9
X101.6Y-88.9
X99.06Y-93.98
X101.6Y-93.98
X99.06Y-115.57
X99.06Y-118.11
X105.41Y-115.57
X105.41Y-118.11
X99.06Y-104.14
X101.6Y-104.14
X104.14Y-71.12
X104.14Y-73.66
X104.14Y-76.2
X114.3Y-71.12
X114.3Y-73.66
X114.3Y-76.2
X99.06Y-109.22
X101.6Y-109.22
T4
X143.91Y-82.55
X143.91Y-94.55
X156.21Y-82.55
X156.21Y-94.55
X158.21Y-88.55
X143.91Y-101.6
X143.91Y-113.6
X156.21Y-101.6
X156.21Y-113.6
X158.21Y-107.6
X121.05Y-82.55
X121.05Y-94.55
X133.35Y-82.55
X133.35Y-94.55
X135.35Y-88.55
X121.05Y-101.6
X121.05Y-113.6
X133.35Y-101.6
X133.35Y-113.6
X135.35Y-107.6
T0
M30
